<?xml version="1.0" standalone="no"?>
<!DOCTYPE svg PUBLIC "-//W3C//DTD SVG 1.1//EN" "http://www.w3.org/Graphics/SVG/1.1/DTD/svg11.dtd" >
<svg xmlns="http://www.w3.org/2000/svg">
<metadata></metadata>
<defs>
<font id="webfontregular" horiz-adv-x="1816" >
<font-face units-per-em="2048" ascent="1638" descent="-410" />
<missing-glyph horiz-adv-x="512" />
<glyph horiz-adv-x="2048" />
<glyph horiz-adv-x="2048" />
<glyph unicode="&#xd;" horiz-adv-x="512" />
<glyph unicode=" "  horiz-adv-x="512" />
<glyph unicode="&#x09;" horiz-adv-x="512" />
<glyph unicode="&#xa0;" horiz-adv-x="512" />
<glyph unicode="!" horiz-adv-x="2387" d="M25 440q0 121 48 215.5t144 169.5q84 66 192.5 101t225.5 35q27 0 58.5 -1.5t86.5 -15.5q70 -12 134.5 -42t120 -75t93.5 -100q19 51 50 94t73.5 73t98.5 50q55 16 110 17q49 0 87 -19.5t66.5 -59.5t43 -94.5t14.5 -113.5l-4 -74l-4 -45l-14 -119l-7 -65l-2 -54 q0 -57 9.5 -98t30 -72.5t59.5 -50.5q18 -8 39.5 -12t54.5 -4q66 0 129 37t121 112q27 35 44 66t34 76q27 80 26 149v29q0 82 -22 135q-16 53 -62 96q-33 29 -78 49q-10 4 -42.5 14.5t-69.5 20.5q-25 0 -37 4l-25 19l-14 24l-4 31q0 20 4 31l18 28q14 14 29 19l39 8 q86 0 151.5 -38t112.5 -118q20 -33 33.5 -69.5t24 -83.5t16.5 -101.5t6 -109.5q0 -84 -33 -168q-14 -39 -38.5 -80t-57.5 -82q-76 -94 -170 -141t-209 -47q-92 0 -151.5 17.5t-102.5 53.5q-49 43 -74.5 120t-25.5 188v45t4 55l14 119l13 63l4 54q0 57 -23 86q-18 29 -61 28 q-25 0 -49.5 -13t-46.5 -42q-14 -18 -35 -64l-21 -75l-80 -625h-243l80 592q-18 74 -54 125q-29 49 -86 90q-45 33 -103.5 49t-121.5 16q-98 0 -179 -28.5t-156 -89t-113.5 -142.5t-38.5 -172l6 -65q2 -14 8 -38t14 -42l31 -70q16 -27 33 -37l-6 31l-2 21v16v23q0 45 2 64 t15 63.5t48 95.5q35 43 82 67q51 23 113 23q55 0 94 -23q41 -18 74 -63q27 -39 47 -94q16 -53 16 -109q0 -68 -19.5 -126t-60.5 -99q-37 -43 -94 -63.5t-125 -20.5q-80 0 -144.5 32.5t-116.5 101.5t-77 144q-23 80 -22 168zM268 293q0 -41 4 -62l19 -53q12 -27 25.5 -38 t31.5 -11t35.5 9t30 27.5t18.5 43.5l8 59l-6 72q-4 33 -14 55q-6 20 -25 33q-12 12 -35 12q-20 0 -36 -10q-12 -8 -26.5 -28.5t-23.5 -51.5z" />
<glyph unicode="&#x22;" horiz-adv-x="2283" d="M43 344v62.5t8 89.5q0 39 6 71q0 4 17.5 73t48.5 125t70 99l18 19l18 12l9 4l10 4h8l8 2l29 -6l22 -18l17 -25l6 -27q0 -16 -4 -24l-15 -21q-47 -39 -81.5 -91t-59.5 -107q-14 -35 -24.5 -67t-16.5 -50q-12 -55 -12 -113v-12q0 -86 16.5 -155.5t55.5 -141.5 q74 -127 221 -235q131 -92 300 -143.5t365 -51.5q164 0 301.5 38t262.5 118q139 90 209.5 214t70.5 277q0 78 -8 125q-6 53 -22.5 85t-36 47.5t-48.5 19.5q-47 0 -78.5 -13.5t-54.5 -44.5l-63 -483h-244l117 889h-498q-90 0 -180 -36t-168 -108q-76 -63 -121 -147 q-18 -39 -28.5 -79t-10.5 -83l6 -65q2 -14 8.5 -38t14.5 -42l31 -70q16 -27 32 -37l-6 29l-2 20v17v22q0 25 1 53.5t16 69.5q14 51 49 103q35 43 82 67q51 23 112 23q55 0 95 -23q43 -18 75 -63q27 -39 47 -94q16 -53 17 -109q0 -70 -19.5 -126t-60.5 -97q-35 -41 -94 -66 q-61 -20 -127 -20q-80 0 -142.5 31.5t-117.5 101.5q-49 68 -75 146.5t-26 166.5q0 98 42 183.5t130 166t193.5 121.5t226.5 41h1006l-21 -59h-243l-45 -326l30 31l47 29q25 12 56 18l63 6q63 0 115 -29q53 -25 93 -79t60.5 -122.5t20.5 -140.5q0 -158 -78 -287.5 t-237 -240.5q-150 -102 -345.5 -156.5t-416.5 -54.5q-213 0 -400.5 55.5t-339 166t-232.5 259t-81 326.5zM643 289l6 -60l19 -53q12 -25 25.5 -38t31.5 -13t33.5 7t29 26.5t19.5 46.5l8 59v29q0 16 -4 45q-2 31 -14 53q-6 20 -25 33q-12 12 -37 12q-16 0 -33.5 -11 t-31 -30.5t-21.5 -50.5z" />
<glyph unicode="#" horiz-adv-x="1964" d="M-49 -254q0 76 20.5 140.5t53.5 113.5q45 66 109.5 100.5t146.5 34.5h983q70 0 130 25.5t112.5 83t79 115t26.5 112.5v27q0 70 -19.5 125t-58.5 94q-33 37 -83 58.5t-103 21.5t-105.5 -18.5t-100.5 -55.5t-77 -84q-23 -43 -33 -107l-33 -323h-231l37 323v17 q0 49 -18.5 92t-63.5 87t-111 69q-29 10 -64.5 16t-78.5 6q-53 0 -94 -7t-78 -26q-37 -14 -58.5 -38.5t-37.5 -67.5l32 8l46 10l36 4l50 3q45 0 86 -16.5t79 -53.5q37 -31 55.5 -74t18.5 -90q0 -53 -24.5 -99t-73.5 -83q-37 -27 -98 -47q-29 -6 -55.5 -10.5t-59.5 -4.5 q-18 0 -39 1t-58.5 15.5t-73.5 49.5t-53.5 87t-17.5 116q0 104 33 187t100.5 141.5t155.5 91t197 32.5q55 0 76.5 -3t60.5 -13q68 -12 123 -45q66 -35 114 -88q49 -47 76 -119q33 61 80 110.5t109 88.5q57 33 125.5 51t150.5 18q43 0 79 -6t73 -22q63 -27 125.5 -87.5 t93.5 -148.5q16 -45 24 -89t8 -103v-21q0 -43 -6 -79t-22 -73q-27 -68 -86 -116q-68 -61 -174.5 -92t-253.5 -31h-826q-59 0 -115.5 -24.5t-103.5 -71.5q-41 -47 -69 -105q-23 -57 -23 -121q0 -51 15.5 -84.5t50.5 -72.5q10 -10 27.5 -22.5t53 -27t85.5 -14.5l12 -2 q90 0 175 33t161 90l135 115l135 110q86 57 195.5 87t230.5 30q23 0 49.5 -1t73.5 -16.5t90 -52.5q43 -33 64.5 -84t21.5 -112q0 -66 -25.5 -121t-76 -99t-109.5 -68t-125 -24l-18 -2q-55 0 -105 25q-49 18 -92 61q-41 37 -63.5 86.5t-22.5 98.5q0 39 13.5 71.5t43.5 63.5 l50 -27q-17 -16 -25 -41l-8 -55q0 -33 9 -60.5t28.5 -53t43 -38t54.5 -14.5q41 0 71.5 15.5t57.5 52.5q20 29 30.5 64.5t11.5 53t1 27.5q0 41 -10 72t-27.5 54.5t-45.5 38.5t-64 15q-88 0 -172 -31.5t-170 -99.5l-144 -123l-143 -122q-94 -66 -196.5 -99t-207.5 -33 q-76 0 -140 26t-117.5 76t-80 108.5t-26.5 113.5zM133 465q0 -29 7 -51.5t26 -48.5q16 -18 39 -31q16 -6 55 -10q27 0 43 8q16 6 31.5 24.5t21.5 40.5l9 49q0 29 -7.5 54.5t-21.5 45t-32.5 29t-55.5 13.5q-31 0 -51 -10q-14 -4 -35 -25l-23 -41q-6 -18 -6 -47z" />
<glyph unicode="$" horiz-adv-x="2871" d="M41 0l123 948h244l-115 -893h610l74 570q4 37 11 64.5t30 68.5q31 59 85 101t119.5 66.5t135.5 24.5q49 0 82 -10q43 -6 80 -27q10 -6 32.5 -19t38.5 -28q35 -25 62 -61l18 143h834l-25 -59h-244l-45 -348l47 39q27 16 54 24l57 14l64 7q68 0 120 -21.5t102 -69 t77.5 -128t27.5 -175.5l-4 -79q-16 -170 -132 -307.5t-335 -245.5q-207 -96 -475 -148.5t-573 -52.5q-248 0 -420 22q-90 10 -171 26.5t-153 39.5q-131 41 -203.5 101.5t-72.5 133.5q0 33 10 60q14 29 33.5 47t56.5 35q35 10 76 10l979 -2l-21 -59h-940q-31 0 -47 -5 l-37 -18l-22 -29l-8 -39q0 -51 54 -94t171 -77.5t266 -53.5q72 -8 144.5 -12t166.5 -4h113q131 0 244.5 12t228.5 41q225 49 413.5 148.5t291 217t118.5 261.5l5 73q0 45 -2.5 67t-14.5 58q-12 55 -43 99q-20 29 -43.5 44t-52.5 19q-27 0 -43 -4l-43 -12q-20 -6 -41 -21 l-35 -22l-59 -461h-240l117 889h-246l-115 -889h-80l64 553l4 49q0 59 -15.5 99t-52.5 71q-20 18 -59 32.5t-82 14.5q-27 0 -39 -3t-37.5 -15.5t-52 -44t-43 -65.5t-22.5 -79l-84 -612h-1096zM1985 1247q0 80 26.5 143.5t84.5 114.5t136 77t168 26q61 0 117.5 -18.5 t110.5 -55.5q43 -35 69.5 -84t26.5 -111q0 -55 -15.5 -97t-48 -81t-75.5 -58.5t-93 -19.5q-39 0 -67.5 13.5t-55 42t-40 60.5t-13.5 69q0 35 11.5 59.5t35.5 48.5l-26 2q-41 0 -72 -10q-35 -6 -67.5 -25.5t-55 -42t-35.5 -53.5l-8 -30l-2 -19v-10v-12v-29.5t7 -42.5 t25.5 -61.5t45.5 -53t61 -41.5h-129l-57 68q-23 33 -39 69l-20 76zM2400 1272q0 -23 4 -35l13 -27q10 -14 22 -18l29 -4q14 0 27.5 7t23.5 24l14 34l7 39q0 27 -5 39l-12 31q-6 12 -18 18l-25 9q-19 -1 -35 -11q-12 -6 -24 -26l-17 -39z" />
<glyph unicode="%" horiz-adv-x="1796" d="M20 209q0 158 25 280.5t76 202.5q35 59 85 93t105 34q35 0 58.5 -9t50 -29.5t39 -46t12.5 -54.5q0 -41 -10 -73t-31.5 -52t-58.5 -37q-35 -10 -72 -10l-55 6l-39 18l-29 27l-12 33l-29 -66l-22 -98l-17 -115l-4 -116q1 -129 58 -238q53 -104 174 -201q111 -86 239.5 -131 t267.5 -45q100 0 185 35q90 31 172 98q70 55 125 131q49 68 88 154q18 51 31 106q8 55 9 82t1 41q0 63 -12 119q-8 51 -32 95t-63 71t-88 27l-33 -6l-34 -15l-33 -18l-23 -19l-59 -483h-246l117 889h-244l-117 -889h-79l116 948h832l-25 -59h-239l-43 -326q18 20 43.5 37.5 t58.5 26.5l61 14l64 6q80 0 135 -35q57 -31 100 -100q33 -53 51.5 -130t18.5 -167v-68q-6 -31 -10 -64.5t-6 -41.5q-10 -29 -13 -41q-31 -113 -104.5 -203t-189 -158.5t-241.5 -102.5t-261 -34q-168 0 -310.5 50.5t-263 151.5t-185.5 227t-65 278zM215 668q0 -35 18 -60 q20 -20 58 -20q18 0 28 4l25 16q12 10 18 25l7 35q0 37 -20.5 57t-55.5 20l-31 -6q-14 -4 -25.5 -13t-17.5 -26z" />
<glyph unicode="&#x26;" horiz-adv-x="1415" d="M41 889l18 59h953q53 0 103 -28.5t99.5 -84t74 -118t24.5 -129.5q0 -80 -22.5 -145.5t-71.5 -116.5q-43 -49 -112 -74t-155 -25q-82 0 -145.5 24.5t-114.5 80t-75.5 122t-24.5 146.5l2 43q0 20 8 43l10 41q8 29 17.5 47.5t17.5 32.5t23 33q27 33 51 49h-680zM674 586 q0 -49 12 -90t38 -80t58 -56q25 -10 39.5 -13t38.5 -3q43 0 80 17.5t67.5 55.5t45.5 81q6 23 10 44t4 46q0 39 -2 55t-14 47q-16 47 -44 79t-65 46q-33 16 -70 16q-43 0 -80.5 -18t-63.5 -53t-40 -80t-14 -94z" />
<glyph unicode="'" horiz-adv-x="1796" d="M20 0l115 948h834l-25 -59h-244l-53 -393l37 45q18 18 45 32l51 19l56 8q55 0 105 -19.5t97 -57.5t71 -88t24 -103q0 -39 -9.5 -70t-29 -69.5t-52.5 -73.5l-61 -64h346l117 893h252l-135 -948h-1045l25 55h67q29 0 43.5 3t25.5 6.5t25 11.5l46 24q25 12 47 35 q45 39 69.5 87t24.5 102q0 29 -12.5 57.5t-34.5 52.5q-10 8 -31 23q-8 6 -20 12q-25 12 -54 12l-30 -4l-27 -14q-14 -6 -25 -23l-18 -28l-29 -197h-239l92 674h-246l-115 -889h-80z" />
<glyph unicode="(" horiz-adv-x="528" d="M41 326v24v33l2 47l8 66q25 182 83.5 335.5t150.5 296.5q86 135 202 250q106 104 248 183l49 -50q-104 -74 -189 -190.5t-155 -282.5q-51 -121 -84.5 -252t-58.5 -290l-18 -144l-11 -100v-27q0 -16 -4 -45l-2 -61q0 -39 2 -77t11.5 -93t30 -122t56.5 -132q31 -61 87 -133 l-37 -37q-94 47 -166 133q-68 80 -121 205q-41 102 -64 219q-8 49 -14 115.5t-6 128.5z" />
<glyph unicode=")" horiz-adv-x="591" d="M-248 -432q76 57 137.5 128t118.5 171q41 72 82 168q10 25 35 92q18 49 37 104l43 172l35 185l8 63l10 94l10 107l4 111q0 39 -2 77.5t-9 94t-30 122.5q-18 66 -57 132q-33 68 -86 135l37 37q94 -43 166 -131q68 -80 121 -205q41 -102 62.5 -220t21.5 -241v-33v-26 q-4 -20 -4 -31q0 -47 -9 -86q-25 -172 -83 -331t-148 -300t-201.5 -246.5t-249.5 -183.5z" />
<glyph unicode="*" horiz-adv-x="864" d="M25 647q0 29 7 51.5t22.5 40t37 27.5t47.5 10q20 0 49 -12l62 -37l41 -35l57 -45l-24 51l-21 54l-18 51l-4 41q0 24 8 47q6 16 24 35l37 20l45 8q25 0 43 -8l39 -20q16 -12 23.5 -29.5t11.5 -44.5l-6 -49l-19 -55l-16 -41l-27 -60l48 39l49 41q29 25 54.5 37t51.5 12 q31 0 49 -10q16 -4 35 -25q12 -12 23 -36l8 -41q0 -25 -7 -46.5t-20.5 -38t-40.5 -30.5l-47 -8l-37 2l-49 4l-51 4l-35 2l57 -37l58 -37q31 -23 51.5 -49.5t26.5 -56.5q0 -27 -7.5 -48.5t-25.5 -43.5q-10 -14 -37 -29l-45 -8q-39 0 -70 22q-27 25 -45 72l-20 63l-23 91 l-22 -78l-21 -76q-18 -45 -45.5 -69.5t-66.5 -24.5q-27 0 -46.5 7t-35 25.5t-25.5 38.5l-8 45q0 37 17.5 64t52.5 53l47 31l73 45l-18 -2l-43 -4q-33 0 -51 -4h-39q-39 0 -60.5 5t-40 16t-30.5 32z" />
<glyph unicode="+" horiz-adv-x="948" d="M41 381v115h375v381h112v-381h375v-115h-375v-385h-112v385h-375z" />
<glyph unicode="," horiz-adv-x="1964" d="M-100 -475q0 47 23.5 98t66.5 105q37 45 98 100q51 43 127 90q-29 41 -41 64q-25 45 -37 67l-55 131q-8 23 -16.5 56.5t-18.5 76.5q-6 45 -8 67.5t-2 72.5v22v10v17v16l4 23q0 33 4 57.5t27.5 103t68.5 158.5q51 102 125 187.5t166 148.5q111 78 246 117t278 39h23 q178 0 330.5 -51.5t283.5 -157t199 -223t68 -254.5l-5 -66l-67 -545h-80l59 557l2 25q0 96 -53 178q-53 88 -157 166q-117 86 -261 129q-68 20 -147.5 32.5t-163.5 12.5h-31q-172 0 -318 -54t-267 -163q-102 -90 -158.5 -190.5t-69.5 -215.5l-4 -75q0 -76 8.5 -139.5 t30.5 -124.5q6 -20 16.5 -49t30 -70t29.5 -59.5t35 -53.5q150 74 319.5 117t341.5 43h47.5t53.5 -4h61q29 -6 41 -8l41 96l33 102l20 111l8 123v8q0 66 -16 118t-53 100t-84 72.5t-103 24.5q-31 0 -47 -4q-20 0 -39 -8l-36 -16l-25 -27q59 -12 98 -41q43 -25 78 -59 q27 -33 45.5 -78t18.5 -90q0 -23 -1 -48.5t-15.5 -67.5t-51.5 -79q-29 -31 -86 -53q-53 -16 -123 -17q-53 0 -104.5 18.5t-89 56.5t-55 85t-17.5 105q0 84 32.5 155.5t101.5 134t146.5 96.5t157.5 34q119 0 210 -32t169 -100q66 -63 99.5 -134.5t33.5 -153.5v-39v-76 q-6 -33 -10 -72t-21 -86q-4 -23 -13 -52.5t-21 -55.5q-18 -49 -50 -105q78 -23 146 -61q57 -31 108 -80q47 -51 76 -117q27 -70 27 -143q0 -80 -44 -142.5t-132 -113.5q-37 -20 -72 -33.5t-79 -24t-90 -16.5t-91 -6l-31 -2q-53 0 -118.5 11t-73.5 14q-35 12 -52.5 17 t-48 15.5t-70.5 27.5t-46 19q-35 16 -76 41q-57 -33 -134 -64.5t-145 -49.5l-141 -31q-47 -6 -69.5 -8t-71.5 -2q-51 0 -95.5 12t-80 35.5t-57 70t-21.5 95.5zM-8 -494q0 -31 8 -50t30.5 -36.5t53.5 -25.5l72 -8q33 -2 53 0q25 6 37 8q45 6 90 20q49 12 108 47l144 80 q-57 39 -60 41q-25 23 -34 31l-86 78l-78 82l-70 86q-29 -18 -40 -25.5t-36 -28.5l-63 -59q-66 -66 -97.5 -125t-31.5 -115zM328 -98q31 -43 71 -84q8 -10 37 -38t47 -42l92 -74l93 -65l137 98l115 100q33 33 57 58.5t55 64.5t45 60q29 45 43 67l-49 8l-49 6l-51 2l-49 3 q-164 0 -307.5 -40t-286.5 -124zM631 535l6 -50l18 -43q12 -18 31 -30l39 -9q28 1 51 9t40.5 29.5t25.5 41.5l8 52q0 29 -7 51t-23.5 40.5t-42 30t-52.5 11.5q-23 0 -39 -9.5t-29.5 -29t-19.5 -43.5zM811 -481q59 -25 126 -37t138 -12q84 0 160 18t129 53q66 43 100.5 103.5 t34.5 138.5q0 31 -9 55.5t-31.5 53t-53.5 51.5l-70 39q-23 -33 -45 -61.5t-59 -67.5q-25 -27 -61.5 -64t-71.5 -65l-133 -103z" />
<glyph unicode="-" horiz-adv-x="1396" d="M51 436v164h1204v-164h-1204z" />
<glyph unicode="." horiz-adv-x="464" d="M29 147q0 29 12 59t38.5 59.5t52.5 41.5t61 17q30 -1 59 -15q29 -12 57 -43q27 -25 39 -54.5t17 -64.5q0 -37 -13.5 -64.5t-37 -48t-54.5 -30.5l-63 -8h-37q-18 6 -39 10t-43 27q-25 18 -37 48t-12 66z" />
<glyph unicode="/" horiz-adv-x="464" d="M-37 -188q39 13 78 38q37 23 70 52l30 30l25 29l18 31l13 28q-31 0 -59.5 12.5t-55.5 39t-38 54.5t-11 58q0 41 12 68t31.5 44t46.5 26.5t70 13.5q35 0 60.5 -9.5t52 -30t38.5 -48t12 -64.5q0 -31 -6 -63.5t-22 -67.5q-25 -63 -79 -129.5t-120 -111.5q-57 -37 -129 -54z " />
<glyph unicode="0" horiz-adv-x="1163" d="M31 641l2 74v47q6 25 8 35q16 133 58 246.5t112 224.5q78 117 171 180t202 63q121 0 213 -59q90 -53 157 -174q49 -90 77 -217t28 -260l-2 -74q0 -139 -32 -259t-97 -224q-74 -123 -172.5 -183.5t-218.5 -60.5q-129 0 -225.5 49t-166.5 152q-55 88 -84.5 198.5 t-29.5 241.5zM276 674q0 -51 2.5 -102.5t11.5 -120t35.5 -152.5t67.5 -129t94 -45q76 0 135.5 52t112.5 161q20 43 35.5 89t30.5 101q23 102 22 199l6 88l5 94q0 98 -12.5 180t-37.5 144q-31 80 -83 118t-117 38q-46 -1 -97 -54q-45 -45 -102 -155q-45 -96 -74.5 -198.5 t-29.5 -184.5z" />
<glyph unicode="1" horiz-adv-x="888" d="M41 0l18 55h117q29 0 48.5 10.5t41.5 32.5q18 23 30.5 50.5t18.5 60.5l164 887h-219v84q68 0 144.5 18.5t146.5 54t106.5 66.5t42.5 57l9 56h84l-234 -1223l-2 -29q0 -27 7 -49t28 -41q14 -18 41 -27l55 -8h92l-24 -55h-715z" />
<glyph unicode="2" horiz-adv-x="1183" d="M37 0v80l260 250l178 176q55 55 90 92q23 25 80 88l133 156q57 74 86 125q12 25 19.5 45t9.5 41q0 70 -25.5 124t-78 94t-109.5 58q-25 8 -57.5 14.5t-63.5 6.5q-53 0 -106.5 -17.5t-94.5 -52.5q-41 -31 -61.5 -84t-20.5 -113v-10l5 -20l2 -23l2 -18l-4 -27q0 -12 -9 -20 l-16 -13l-25 -4q-20 0 -35.5 8.5t-25.5 22.5l-14 41l-4 63q0 92 36.5 165t118.5 136q57 41 135 72q72 25 150 25q119 0 212 -25.5t171 -82t118 -138.5t40 -182q0 -49 -10.5 -94.5t-37.5 -96.5q-43 -92 -135 -190q-74 -74 -211 -183q-123 -94 -311 -213v-36h453q18 0 41.5 14 t42.5 41l18 27l14 28l7 25l4 28h79l-114 -403h-936z" />
<glyph unicode="3" horiz-adv-x="1163" d="M27 371q0 47 7 81.5t26.5 67.5t45 50.5t58.5 17.5q39 0 65 -10q29 -6 42.5 -24.5t23.5 -49.5l8 -68l-8 -37l-21 -55l-22 -55l-6 -35l2 -14q0 -31 24 -66q18 -27 58 -51l76 -33q35 -8 49 -9t32 -1q59 0 115.5 29.5t105 88t76.5 119.5q16 41 21.5 68t5.5 51 q0 49 -12.5 102.5t-36 99.5t-61 78t-85.5 44h-116v84h116q49 0 86 24.5t72 81.5q25 43 37 92.5t12 102.5q0 49 -20 88q-18 37 -56 68.5t-73 43t-55.5 15.5t-47.5 4q-39 0 -57 -2t-55 -13.5t-66 -35.5q-16 -16 -35 -58q-12 -37 -18 -88q0 -35 -4 -51l-6 -33q-6 -16 -25 -32 q-8 -6 -37 -11q-23 0 -30 4l-15 19l-8 27l-2 36v41q0 74 30.5 137.5t94.5 108.5q51 37 125 60q31 8 70.5 14t80.5 6q94 0 172 -22.5t143.5 -68.5t101.5 -111.5t36 -145.5v-19q0 -20 -1 -44.5t-15 -65.5q-12 -49 -44 -95.5t-69 -75t-90 -48.5q45 -20 84 -56t67.5 -82.5 t42.5 -99.5q6 -25 10.5 -49.5t4.5 -52.5v-21q0 -94 -40 -172t-124 -145q-70 -55 -162 -90q-90 -29 -182 -29l-39 -2q-96 0 -173 19.5t-146.5 60.5t-114.5 106q-37 61 -47 148z" />
<glyph unicode="4" horiz-adv-x="1204" d="M37 436v60l856 960h59l-121 -960h269v-60h-277l-22 -221v-16l6 -52q6 -25 21.5 -46t35.5 -35q12 -6 39 -11h164l-35 -55h-751l22 55h129q18 0 41 13l41 36l31 52q6 20 10 59l25 221h-543zM188 496h400l59 532h-55l-404 -475v-57z" />
<glyph unicode="5" horiz-adv-x="1183" d="M33 311q0 61 11 101.5t33.5 69t45 39.5t49.5 11q35 0 57 -8q27 -6 38.5 -19t17.5 -36l6 -45l-6 -113v-10v-12v-15l4 -10q6 -45 27.5 -76.5t56.5 -58.5t79 -40t97 -13h12h17h8l10 2h8l8 2q43 0 85 31.5t75 82t51 113.5q8 31 12.5 59.5t4.5 67.5l-2 43l-7 43 q-12 74 -53 125q-37 55 -95 91t-126 54.5t-145 18.5l-84 -6l-82 -19l-78 -28q-35 -16 -64 -39l-36 35l231 729h766l55 67h80l-92 -311h-764l-80 -256l62 37l61 24l64 15l69 4q61 0 105.5 -8.5t97.5 -32.5q96 -41 180 -120t128 -174t44 -206v-14q0 -102 -35 -187 q-31 -88 -98.5 -162.5t-150.5 -117.5q-84 -39 -179 -39l-86 -4q-96 0 -179 18.5t-154 55.5q-80 43 -121 102q-39 66 -39 139z" />
<glyph unicode="6" horiz-adv-x="1120" d="M29 508q0 186 56 341t175 286q106 119 259 203.5t345 129.5v-59q-92 -45 -174 -104q-74 -55 -135 -123q-49 -61 -102 -150q-43 -78 -76 -176q20 20 51 38.5t68 31.5l73 16l74 6q92 0 160.5 -33.5t126.5 -107.5q45 -61 69.5 -133t24.5 -154v-22q0 -109 -37 -199t-110 -164 q-66 -66 -158 -102q-92 -33 -191 -33q-102 0 -190 30.5t-156.5 93t-110.5 164t-42 220.5zM268 451q0 -70 14.5 -125.5t49.5 -109.5t86 -85q14 -6 45 -16.5t69 -10.5q70 0 116 35t85 111q8 18 17.5 51t19.5 85t10 134q0 18 -1 43t-15 66q-14 53 -49 98q-35 51 -84 77.5 t-103 26.5q-59 1 -104 -28q-43 -25 -82 -82q-31 -43 -47 -94.5t-23 -118.5z" />
<glyph unicode="7" horiz-adv-x="1140" d="M37 1028l67 453h1029q-6 -25 -21 -54q-20 -37 -33 -57l-135 -223q-94 -150 -180 -301q-41 -72 -68 -125q-33 -63 -55 -113q-78 -170 -119 -323q-18 -76 -28.5 -146.5t-10.5 -138.5h-323q0 47 22 106q10 27 35 78q49 106 137 244l113 158q55 80 96 133q49 68 129 170 q49 66 66 88q41 57 86 129q25 41 43 77t28 64h-639q-25 0 -50 -19.5t-49.5 -56t-35 -71.5t-12.5 -43v-29h-92z" />
<glyph unicode="8" horiz-adv-x="1015" d="M27 387l2 41q12 84 43.5 156.5t83.5 122.5q41 41 90 69.5t106 42.5l-51 70l-33 65q-14 37 -24 80l-8 84v15q0 100 33.5 173.5t103.5 123.5q59 41 137 61t166 20q66 0 128 -24.5t114.5 -72.5t79 -110.5t26.5 -127.5v-21q0 -59 -24.5 -112.5t-73.5 -102.5 q-39 -37 -97.5 -69.5t-128.5 -51.5q43 -24 78 -71q39 -45 69 -102.5t44 -127.5q8 -33 12 -64.5t4 -72.5q0 -109 -28 -178q-25 -72 -80 -121q-51 -41 -121 -62q-31 -8 -74 -14t-88 -6h-22q-51 0 -95.5 6t-91.5 23q-84 31 -149.5 89t-98.5 126q-18 39 -25 76.5t-7 66.5z M109 428q0 -31 14 -72q8 -27 18.5 -49t22.5 -43q33 -59 76 -96q43 -33 88 -33h12q66 0 118 16.5t101 48t77 80t28 101.5v14q0 18 -3.5 41t-19.5 56q-23 49 -66 102q-18 23 -22 27q-23 25 -47.5 48t-49 42.5t-44.5 36.5q-68 -19 -115 -48q-43 -23 -85 -57.5t-65.5 -85.5 t-37.5 -129zM479 1174q0 -35 1 -48.5t9 -40.5q8 -39 31 -79.5t49 -75.5q25 -27 64 -53q53 10 101 31.5t99.5 60.5t81 87t29.5 99v21q0 51 -18.5 90t-51 65.5t-81.5 42.5q-25 6 -45.5 10.5t-47.5 4.5q-59 -1 -98 -17q-41 -14 -68.5 -45t-41 -68.5t-13.5 -84.5z" />
<glyph unicode="9" horiz-adv-x="1140" d="M20 961v22q0 106 36 196.5t112 166.5q68 68 156 101.5t192 33.5q106 0 190.5 -32t157 -95.5t112.5 -163.5t40 -217q0 -190 -57.5 -343t-174.5 -286q-109 -121 -261 -206t-343 -130v60q106 55 197 139q98 90 186 216t145.5 266t75.5 284l2 49q0 72 -16 127 q-14 59 -50 114.5t-88 84t-116 28.5q-66 0 -121 -37q-45 -35 -84 -110q-25 -53 -37 -121q-10 -76 -10 -147q0 -63 17.5 -114.5t51.5 -102t79 -74.5q49 -23 104 -23l55 6q12 2 28.5 8.5t29.5 14.5q27 12 54.5 33.5t47.5 46.5l-29 -76q-6 -27 -10 -31l-14 -31l-10 -14 q-57 -37 -121 -55q-33 -8 -61.5 -12.5t-69.5 -4.5h-17q-89 0 -159 35q-70 33 -125 105q-43 57 -72 133q-10 35 -16.5 74t-6.5 82z" />
<glyph unicode=":" horiz-adv-x="548" d="M25 172q0 43 10 70q12 29 37.5 50t46 28.5t34 10.5t37.5 3q37 0 65 -10.5t53.5 -31t38.5 -55t13 -65.5q0 -37 -13 -64.5t-38 -52.5q-25 -18 -55.5 -29.5t-63.5 -11.5q-37 0 -63.5 9.5t-53 30t-37.5 51t-11 67.5zM96 754q0 37 10.5 61.5t13.5 30.5t22.5 28.5t50 36 t63.5 13.5q39 -1 68 -15q29 -12 50 -35.5t34 -56.5q6 -18 10 -61q0 -41 -9.5 -66.5t-30 -52.5t-52.5 -39q-16 -6 -29.5 -8t-40.5 -2q-41 0 -68.5 11t-49 37t-29 46t-10.5 33.5t-3 38.5z" />
<glyph unicode=";" horiz-adv-x="20" d="M-760 1354q0 37 10 63q8 31 31 56q18 25 50 38t65 13q39 0 68.5 -13.5t51 -38t33 -54t11.5 -62.5q0 -37 -9.5 -64.5t-33.5 -54.5q-18 -25 -50 -37t-71 -12q-41 0 -68 10q-29 12 -49 38t-31 52z" />
<glyph unicode="&#x3c;" horiz-adv-x="1415" d="M16 0l115 948h1217l-25 -59h-383l-117 -889h-239l116 889h-487l-117 -889h-80zM236 496q0 35 12 66.5t36.5 53t48 30.5t66.5 13q37 0 68 -10t53 -33q25 -18 38 -53t13 -67q0 -37 -14 -66q-12 -27 -37 -51q-25 -18 -55.5 -29.5t-63.5 -11.5q-37 0 -63.5 9t-53 29.5 t-37.5 51.5t-11 68zM977 496q0 29 12 58.5t36 56t52 42.5q25 10 60 15q20 0 30 -2.5t33 -12.5q33 -12 57 -41q25 -23 41 -57q10 -25 15 -59q0 -37 -13.5 -65t-37.5 -52q-25 -18 -55.5 -29.5t-63.5 -11.5q-37 0 -63.5 9t-53.5 29.5t-38 51.5t-11 68z" />
<glyph unicode="=" horiz-adv-x="948" d="M41 205v119h862v-119h-862zM41 549v119h862v-119h-862z" />
<glyph unicode="&#x3e;" horiz-adv-x="2136" d="M29 209q-1 157 24 280t76 203q35 59 85 93t105 34q35 0 58.5 -9t50.5 -29.5t39 -46t12 -54.5q0 -41 -10 -73t-31.5 -52t-58.5 -37q-35 -10 -72 -10l-55 6l-39 18l-29 27l-12 33l-29 -62l-22 -88l-17 -104l-4 -113v-28q0 -184 68 -325.5t207 -236.5q115 -78 260 -117.5 t321 -39.5l11 -2q94 0 176 22q84 18 169 56t131 84.5t46 95.5q0 25 -4 39l-12 32l-19 23l-22 8q-12 0 -26.5 -7t-29.5 -28l-12 -100l-236 -4l31 303h242l-17 -125l23 29l27 16l32 8l41 2q33 0 62.5 -12t49 -36.5t32.5 -61.5q10 -41 10 -86q0 -78 -55.5 -141.5t-163.5 -108.5 q-92 -37 -214 -55.5t-272 -18.5q-188 0 -350 47t-291 146q-141 109 -213.5 261t-72.5 345zM225 666l4 -29l15 -27q10 -14 22 -18l31 -4h10l27 6q12 6 20 20l15 27l4 31q0 18 -4 28l-15 27q-6 12 -18 18.5t-29 6.5q-21 -1 -37 -9l-24 -18l-17 -29zM504 0l129 948h239 l-116 -893h407l80 650q0 27 6 46t21 46q23 39 67 84q41 37 90 59q23 8 50.5 14.5t54.5 6.5q109 0 190.5 -46.5t157.5 -142.5q61 -86 94 -183t33 -198q0 -199 -76 -295q-74 -96 -223 -96h-1204zM1405 55h315q41 0 78 23.5t67.5 74t46 108.5t15.5 120q0 84 -20 154 q-18 76 -59.5 146.5t-95.5 110t-116 39.5q-33 0 -60.5 -12t-42.5 -29.5t-24 -39.5l-10 -45z" />
<glyph unicode="?" horiz-adv-x="1372" d="M416 1272q0 90 30.5 161.5t100.5 135.5q61 53 138 79.5t159 26.5q90 0 162 -35q76 -31 143.5 -99t101 -143t33.5 -151q0 -123 -31.5 -223t-99.5 -186q-25 -33 -93.5 -93.5t-154.5 -126.5q-70 -51 -104 -100q-35 -43 -41 -90h-80q0 25 8 52.5t23 58.5q25 55 73 125 l119 165l49 74q20 37 36 77t28 85t18 90t6 92q0 63 -14 114.5t-42 92.5t-64.5 67.5t-75.5 26.5l-90 -6q-18 -4 -35 -6t-39 -10l-70 -33q-31 -16 -69 -49l-25 -37l-16 -39l-11 -41l-2 -41q0 -33 5 -49l14 -41l24 -33q12 -12 33 -18q0 27 12.5 39t45.5 16l32 -6 q20 -6 32.5 -16.5t23.5 -26.5l8 -31q0 -20 -8 -39l-21 -32q-12 -16 -35 -25l-41 -8q-49 0 -84 16q-39 20 -61.5 53t-38.5 82q-12 47 -12 105zM563 147q0 43 11.5 71t36 49.5t53.5 33.5q14 4 27.5 7t37.5 3q37 0 66.5 -10t52.5 -33q25 -18 38 -53t13 -68q0 -31 -13.5 -58.5 t-40 -52t-57 -35.5t-42 -11h-17.5q-34 0 -61 10q-23 10 -54 37q-23 25 -39 51q-12 29 -12 59z" />
<glyph unicode="@" horiz-adv-x="2136" d="M41 889l18 59h553q35 113 91.5 199t134 145.5t184.5 93.5q57 16 109.5 24.5t119.5 8.5q156 0 289 -47t247 -145.5t171 -227.5q29 -68 43 -133t14 -147v-14q0 -154 -53 -281t-156.5 -229.5t-236.5 -153.5t-293 -51l-55 2q-33 0 -52 4q-27 0 -46 7t-31 17l12 48l26 -11 l39 -8q29 0 43 -4l39 -2q106 0 199.5 50t169.5 150.5t116 222.5t40 251q0 131 -37 238.5t-107.5 186.5t-165 121t-202.5 42h-23q-102 0 -190 -25t-162 -74q-59 -41 -115 -110q-41 -55 -78 -148h336q55 0 103 -22q47 -18 94 -62.5t70.5 -98.5t23.5 -118v-29q0 -45 -4 -77.5 t-19 -71.5q-18 -66 -61 -124t-111 -97q-66 -33 -141 -33q-86 0 -161.5 32t-133 95.5t-92.5 138.5q-29 76 -29 156l7 127l18 125h-555zM653 705q0 -72 12.5 -133.5t40 -108.5t78.5 -80q53 -27 113 -27q45 0 79 25t58 78q16 37 25 82l8 96q0 53 -19.5 95t-60.5 82t-85 57.5 t-91 17.5h-135q-13 -37 -19 -86z" />
<glyph unicode="A" horiz-adv-x="2791" d="M33 436q0 100 42 186.5t125 167t190.5 126t234.5 45.5q130 0 241 -37q111 -39 192 -109t124 -168t43 -219q0 -29 -2 -59.5t-9.5 -70.5t-28 -86t-46 -86t-56.5 -71h277l72 600q10 66 32.5 120t59.5 96t83 66t93 24q16 0 37.5 -1.5t59.5 -15.5t78 -49t66.5 -75t47.5 -93 q16 45 47.5 89t76 77t91.5 51q25 8 45 12.5t51 4.5q80 0 149.5 -37t119.5 -108t77 -174t27 -220v-41q0 -137 -51.5 -241.5t-155.5 -176.5q-86 -61 -199 -92q-59 -16 -115.5 -24.5t-128.5 -8.5l-1552 -2l-53 -2q-14 -4 -23.5 -7t-26 -11.5t-24.5 -23.5t-12 -46l6 -29 q6 -16 20 -30l21 -31l8 -27q0 -33 -8 -57.5t-28.5 -47t-42 -30.5t-32 -10t-36.5 -2q-41 0 -70 13t-47.5 38t-26.5 68l-8 90q0 49 16.5 82.5t55.5 66.5q10 6 29.5 16.5t56.5 24.5q49 12 110 13l1557 -3q111 0 207 37q96 33 165.5 96.5t106.5 153.5t37 203l2 72q0 80 -9 132 t-17.5 81.5t-20.5 58.5q-27 55 -59.5 80.5t-79.5 25.5q-35 0 -75 -23.5t-83 -72.5t-72 -110q-10 -27 -19 -58.5t-16 -74.5l-59 -484v-8h-246l80 588l2 20l2 19v22q0 41 -7 72t-20.5 58.5t-33 37.5t-45.5 14q-33 0 -58.5 -15t-45 -50t-31.5 -80l-15 -98l-71 -588h-660v55 q49 27 88 70q18 20 41 53q12 20 25 39q25 53 37 109q6 29 10 58.5t4 61.5q0 92 -22.5 164t-69.5 131q-49 68 -120 102t-153 34h-18q-92 0 -176 -37t-162 -111q-68 -66 -109 -143q-34 -72 -34 -146v-37q6 -23 8 -34t8 -34.5t17.5 -54t29 -58t33.5 -38.5l-6 31l-2 21v16v22 q0 45 2 64.5t15 63.5t48 96q35 43 82 67q51 23 113 23q55 0 94 -23q41 -18 74 -63q27 -39 47 -94q16 -53 16 -109q0 -70 -19.5 -126t-60.5 -97q-35 -41 -94 -66q-61 -20 -127 -20q-80 0 -144.5 31.5t-115.5 101.5t-74.5 147.5t-23.5 165.5zM276 289q1 -42 5 -62l18 -53 q12 -27 25.5 -38t31.5 -11t36 9t30 27.5t18 43.5l9 59l-7 72q-4 33 -14 55q-6 20 -25 33q-12 12 -34 12q-20 0 -35 -9t-29 -29.5t-22 -51.5z" />
<glyph unicode="B" horiz-adv-x="3020" d="M33 332q0 55 13 93t46 70.5t84 51.5q25 8 52.5 12t68.5 4h43l47 385h838l-25 -59h-244l-41 -326h146q12 16 34.5 35.5t45.5 36.5q45 31 102 57q14 6 49 16.5t62 18.5q55 12 110 12q41 0 77 -6t73 -22q68 -23 131 -77t95 -126t32 -152v-10v-37q-6 -29 -10 -55.5 t-20.5 -70.5t-41.5 -81q-16 -29 -45 -47h524l37 269q-70 12 -133 36q-55 25 -104 66t-76 106.5t-27 135.5q0 66 24.5 120t70 89.5t101.5 54t120 18.5q59 0 117.5 -18.5t102.5 -52t67.5 -85t23.5 -112.5l-2 -35l-29 -227l76 39q37 23 72 53l65 63l60 72h80l-80 -647h-328 l-70 -545h-239l63 545h-782v43q68 35 103.5 110.5t35.5 190.5q0 23 -3 45.5t-19 54.5q-18 49 -60.5 92.5t-88.5 65t-95 21.5q-41 0 -74 -17q-33 -12 -63 -43q35 0 78 -26q37 -18 77.5 -61.5t62 -90.5t21.5 -96q0 -61 -18.5 -113.5t-55 -93.5t-85.5 -64q-49 -18 -111 -18h-31 q-51 0 -88 23.5t-63 70.5q-8 16 -17.5 38t-16.5 52.5t-9 50t-2 58.5q0 63 12 115.5t37 99.5h-109l-18 -152q-12 -86 -49 -156.5t-103 -123.5q-51 -39 -119 -66q-68 -20 -135 -20q-109 0 -191.5 19.5t-139.5 66.5q-55 41 -91 106q-28 66 -28 145v5zM113 332q0 -55 18.5 -98.5 t63.5 -81.5q37 -31 84 -46q25 -6 51 -10t57 -4q45 0 85 17.5t78 54.5t61.5 86t31.5 106l21 152h-392q-37 0 -63.5 -9.5t-48 -28.5t-37.5 -58q-6 -18 -8 -34t-2 -46zM428 563h244l41 326h-242zM1049 299l6 -61l18 -54q12 -27 25.5 -38t34.5 -11q18 0 32 8q18 10 31 29l21 45 l8 59l-6 72q-2 31 -12.5 52.5t-26 35t-39.5 13.5q-18 0 -33.5 -10.5t-30 -31t-22.5 -51.5zM2056 655q0 -55 20.5 -101t59.5 -81q12 -10 34.5 -23.5t55.5 -26.5t98 -24l31 248l2 25q0 35 -9 58.5t-30.5 43t-44 26.5t-61.5 11q-33 0 -58.5 -9t-50.5 -32q-25 -18 -36 -49 t-11 -66zM2523 55h246l59 477q-20 -29 -28 -37.5t-31 -31.5q-14 -14 -30.5 -28.5t-35.5 -26.5q-29 -23 -69 -46l-74 -30z" />
<glyph unicode="C" horiz-adv-x="2959" d="M37 147q0 39 20.5 66t69.5 49q31 12 70 19l79 8h189q82 0 151.5 20.5t128 64.5t91 100t32.5 126q0 78 -26.5 140.5t-76.5 110.5t-112.5 72.5t-132.5 24.5q-27 0 -43 -4l-45 -14q-25 -6 -43 -19q-18 -8 -29 -22q43 -6 79 -25.5t67 -56.5t46 -77t15 -83q0 -51 -19.5 -95 t-58.5 -73q-27 -20 -75 -41q-23 -6 -43.5 -10t-46.5 -4q-51 0 -91 13.5t-76 43t-56.5 73.5t-20.5 101q0 94 42 166t126 123q68 41 151.5 62.5t180.5 21.5q53 0 98 -6t94 -23q90 -29 171 -86t125 -136t44 -171v-18q0 -84 -29 -148q-25 -61 -79 -110q-31 -25 -67 -43.5 t-87 -34.5q-90 -25 -213 -25h-313l-45 -6l-41 -14q-18 -10 -27.5 -22.5t-13.5 -41.5q0 -20 9 -34.5t38 -32.5l39 -17l41 -4h2043h377l-24 -55h-2044h-408q-51 0 -83.5 7t-45 11.5t-39 20.5t-47.5 43q-16 29 -16 65zM160 655q0 -29 4 -45l16 -39q10 -18 27 -30l37 -9h10 q23 0 37 6.5t28.5 25t20.5 36.5l6 45q0 27 -8 49l-19 41q-12 18 -32.5 27.5t-42.5 9.5q-16 0 -33 -10l-27 -31q-12 -20 -18 -41zM1260 553q0 80 34.5 146.5t106.5 134.5q70 61 160 94t188 33q70 0 130 -14.5t108 -41.5q51 -25 94 -67q43 -37 76 -90l30 200h670l-21 -59h-188 l-68 -649h-233l82 649h-172l-80 -649h-233l57 397q0 59 -19.5 101t-62.5 77q-33 23 -82 39q-23 6 -46.5 10t-53.5 4q-43 0 -73 -4t-84 -21.5t-116.5 -63.5t-91.5 -103.5t-29 -122.5q1 -33 5 -51l14 -56q10 -35 22 -49l27 -28q0 14 -4 22l-2 21l-2 16v16q0 53 10 86t37 72 q27 33 62.5 49.5t82.5 16.5q41 0 79 -16.5t73 -50.5t53 -75q8 -18 12.5 -35.5t4.5 -41.5q0 -53 -15.5 -91.5t-48.5 -69t-84 -46t-104 -15.5q-59 0 -116.5 24.5t-100.5 74t-68 106.5q-8 25 -14 57.5t-6 63.5zM1464 444q0 -31 4 -47l15 -39q10 -18 22 -26l27 -8q14 0 27.5 7 t21.5 27l14 39l4 49q0 27 -4 41l-12 35q-4 12 -18 23l-25 8q-12 0 -26.5 -7t-26.5 -24.5t-19 -36.5z" />
<glyph unicode="D" horiz-adv-x="2580" d="M16 436q0 98 44 187.5t138.5 171.5t211.5 125q59 20 119.5 30.5t134.5 10.5q33 0 63.5 -2.5t60.5 -8.5q57 -6 113 -24q35 -10 51.5 -16.5t49 -23t51 -26.5t43.5 -29l90 56l84 41q41 16 86 24l96 9q94 0 172 -33q76 -29 145 -92q78 -74 118 -187.5t40 -257.5 q0 -35 -2 -69.5t-8 -69.5q-4 -43 -8 -63.5t-20.5 -70.5t-41 -104.5t-63.5 -107.5l352 -2l127 1044h242l-129 -1100h-635q-74 -90 -176 -161q-92 -66 -219 -118t-269.5 -78t-283.5 -26q-182 0 -313.5 16.5t-234 52.5t-159.5 93.5t-57 130.5q0 43 18.5 75t52 46.5t60.5 20.5 l63 6l1317 -2q12 20 31 51q8 14 28 55l46 115q6 23 11 42t17 81q8 61 9 89t1 44q0 119 -21.5 207t-68.5 164q-39 63 -84 92q-45 33 -94 33q-43 0 -76 -11q-33 -6 -71 -24l-47 -29l-45 -37q39 -39 75 -92q29 -39 60 -100q25 -51 37 -102.5t12 -100.5q0 -43 -4 -72.5 t-19 -68.5q-23 -72 -65.5 -131.5t-96 -89t-114.5 -29.5q-53 0 -98 23.5t-79 80t-53 123.5q-8 35 -12 68.5t-4 83.5v34q0 51 8 82t16.5 52.5t19.5 42t22.5 39t29 42t27.5 35t35 35.5q-31 35 -66 60.5t-78 44t-82.5 26.5t-54 10t-47.5 2q-96 0 -188 -29.5t-178 -93 t-136 -145.5q-43 -78 -43 -170v-8l6 -66q2 -16 8.5 -35.5t14.5 -39.5l31 -68q14 -23 33 -35l-7 31l-2 21v16v22q0 45 2 64.5t15.5 63.5t48.5 96q35 43 82 67q51 23 112 23q55 0 95 -23q41 -18 73 -63q27 -39 47 -94q16 -53 17 -109q0 -68 -19.5 -126t-60.5 -99 q-37 -43 -94.5 -63.5t-124.5 -20.5q-80 0 -144.5 32.5t-117 101.5t-76.5 144q-23 80 -23 168zM109 -229q0 -63 55 -111q53 -41 170 -72q35 -8 103.5 -17t90.5 -11q47 0 141.5 -5.5t123.5 -5.5h24q49 0 86 4.5t88 16.5q102 18 191 57q51 20 88 41t82 56q82 59 141 126 l-1278 -2l-39 -2l-35 -12q-14 -10 -24 -24zM260 289l6 -60l19 -53q12 -25 25.5 -38t29.5 -13q18 0 35.5 9t30 27.5t18.5 43.5l8 59l-6 72q-4 33 -14 55q-6 20 -25 33q-12 12 -35 12q-20 0 -34.5 -9t-29 -29.5t-22.5 -51.5zM897 347q0 -19 3 -41.5t6 -39t12.5 -43t25.5 -47.5 q16 -12 43 -16q33 0 55.5 16.5t40 52t25.5 78.5l8 96l-6 70l-18 68l-29 63q-12 33 -35 60l-55 -64q-14 -18 -25.5 -38.5t-15.5 -29.5q-18 -33 -27 -71l-8 -70v-44z" />
<glyph unicode="E" horiz-adv-x="1775" d="M-129 -242q0 33 12.5 58.5t39 47t59.5 34.5l69 8l750 -2q53 96 80 200q26 109 26 212v8q0 53 -10 86q-6 37 -25.5 68.5t-40 45t-51.5 17.5l-32 -4q-16 -4 -33 -15l-17 -10l-16 -8l-14 -12l-13 -9l-59 -483h-244l117 889h-246l-114 -889h-80l114 948h834l-21 -59h-243 l-45 -326l43 37l45 25l47 14l53 6q63 0 111.5 -22.5t93.5 -65.5t68.5 -98.5t23.5 -118.5v-8q0 -27 -2 -55.5t-8 -57.5q-6 -55 -24.5 -110.5t-43 -107.5t-51.5 -95l299 -2l129 1044h244l-127 -1100h-588q-53 -72 -131 -133q-31 -25 -73 -51t-87 -51q-82 -41 -184 -64 q-43 -10 -93.5 -16t-105.5 -6q-76 0 -104.5 3t-90 15.5t-120.5 46.5q-55 29 -88 72t-33 94zM-51 -256q6 -27 30.5 -49.5t73.5 -44t111 -33.5q39 -6 62.5 -8t70.5 -2q55 0 76.5 3t73 15.5t114 46t109.5 78.5q45 39 90 100l-672 -2q-67 0 -102 -20q-35 -23 -35 -68z" />
<glyph unicode="F" horiz-adv-x="1835" d="M41 201q0 76 3 104.5t13 79.5q18 86 56 166q16 35 38.5 69.5t45.5 59.5q45 45 110 72l29 6l26 -6q14 -4 25 -15l16 -22l7 -25l-7 -22l-16 -21q-64 -29 -121 -92q-47 -55 -84 -145q-25 -61 -37 -136t-12 -157l2 -66q0 -29 8 -51q25 -102 87.5 -183t168.5 -147 q90 -53 200 -81.5t226 -28.5h60q137 0 244.5 50t201.5 157q78 90 118 189t40 204q0 90 -14 153q-12 70 -41 112t-80 68.5t-121 26.5h-41l-16 -151q-12 -88 -49 -159t-97.5 -119t-124.5 -71q-68 -20 -137 -20q-106 0 -189 21.5t-139.5 63.5t-91.5 108q-29 68 -29 151 q0 55 13.5 93t46.5 71t84 51q25 8 52.5 12t68.5 4h45l47 386h831l-18 -62h-246l-43 -324h80q102 0 183 -22.5t143.5 -71.5t91.5 -127q31 -74 31 -174v-20q0 -133 -68 -259t-199 -229.5t-273 -155t-292 -51.5l-20 -2q-143 0 -274.5 38t-246 110t-189.5 170t-104 219l-10 49 l-6 53q0 33 -4 52zM399 344q0 -55 19.5 -99t64.5 -81q35 -29 86 -45q27 -6 51.5 -10.5t55.5 -4.5q43 0 85 18.5t79 54.5t60.5 85t31.5 107l20 151h-393q-37 0 -63.5 -9t-48 -28.5t-37.5 -58.5q-6 -18 -8.5 -33.5t-2.5 -46.5zM717 575h244l38 324h-243z" />
<glyph unicode="G" horiz-adv-x="2156" d="M31 178q0 76 3 104.5t13 79.5q18 86 55 174.5t85.5 141.5t105.5 74l31 6l28 -6l23 -17l16 -22l6 -25l-6 -22l-14 -19q-63 -29 -121 -92q-49 -55 -86 -143q-6 -16 -16.5 -48t-24.5 -92q-12 -72 -12 -149l2 -70q2 -29 12 -53q31 -104 109.5 -195.5t200.5 -169t257 -116.5 q70 -20 135.5 -30.5t143.5 -10.5q92 0 177 19.5t173 57t133 85.5q47 43 47 94q0 25 -4 39l-12 32l-18 23l-23 8q-12 0 -25.5 -7t-27.5 -28l-8 -100l-240 -4l31 303h239l-14 -125l25 29l28 16l31 8l43 2q31 0 56.5 -12t49.5 -39q18 -25 31 -61q6 -25 8 -39.5t2 -44.5 q0 -78 -53 -141.5t-164 -108.5q-92 -37 -214 -55.5t-271 -18.5q-166 0 -310.5 40t-279.5 122t-217 189.5t-119 238.5l-16 82zM524 0l127 948h246l-117 -893h404l80 650q0 47 25.5 89t70.5 87q39 37 92 59q23 8 50.5 14.5t53.5 6.5q102 0 187.5 -46.5t157.5 -142.5 q61 -86 94 -183t33 -198q0 -199 -75 -295t-224 -96h-1205zM1427 55h314q47 0 82 22.5t65.5 73t44.5 107.5q6 29 10.5 58.5t4.5 64.5q0 80 -19.5 154.5t-61.5 146.5t-94.5 110.5t-111.5 38.5q-33 0 -62 -12q-27 -12 -45 -35l-20 -34l-14 -45z" />
<glyph unicode="H" horiz-adv-x="1624" d="M-49 -221q6 16 10 31.5t16.5 36t32.5 36.5q12 6 41 11l221 -3v-55h-159q-37 0 -60 -20q-20 -27 -20 -70t16 -74q8 -12 22.5 -27.5t32.5 -31.5q37 -25 76 -37q23 -6 41.5 -10t42.5 -4q63 0 105.5 40t68 121.5t92 121.5t170.5 40q-18 18 -34 54q-6 18 -11 61h244l-2 -12 l4 -25l17 -35l20 -24l18 -10l244 -3l-24 -55h-256q-76 0 -124 -20.5t-73 -67.5l-43 -88l-41 -90q-43 -45 -127 -70q-37 -10 -89 -16t-116 -6q-72 0 -128 15t-112.5 52t-86 87.5t-29.5 113.5v33zM8 0l127 948h242l-113 -893h404l80 650q0 27 6 46t20 46q23 39 68 84 q41 37 90 59q23 8 50.5 14.5t53.5 6.5q109 0 191 -46.5t157 -142.5q61 -86 94 -183t33 -198v-5q0 -195 -75 -290q-74 -96 -224 -96h-1204zM911 55h314q41 0 77.5 23.5t67.5 74t46.5 108.5t15.5 120q0 84 -21 154q-18 76 -59 146.5t-95.5 110t-115.5 39.5q-33 0 -60.5 -13 t-44.5 -34l-18 -32l-14 -47z" />
<glyph unicode="I" horiz-adv-x="1943" d="M-74 -254q0 78 19.5 140.5t56.5 117.5q47 66 113.5 98.5t144.5 32.5h983q66 0 125 25.5t113.5 83t82 114t27.5 113.5v27q0 72 -19.5 126t-58.5 93q-33 37 -85 58.5t-105 21.5t-105.5 -18.5t-101.5 -55.5q-41 -35 -72 -84q-23 -43 -32 -107l-35 -323h-229l32 323l2 23 q0 51 -22 94q-16 39 -62 84q-45 41 -110 64q-29 10 -65 16t-79 6q-53 0 -93 -7t-73.5 -23.5t-62.5 -45.5q-18 -20 -35 -63l41 6q23 0 33 4l29 2l28 2q57 0 106.5 -12t86.5 -36.5t58.5 -71t21.5 -103.5q0 -53 -24.5 -99t-74.5 -83q-37 -27 -98 -47q-29 -6 -55.5 -10.5 t-59.5 -4.5q-18 0 -38.5 1t-58.5 15.5t-73.5 49.5t-54 85t-18.5 118q0 106 36.5 190t103.5 143.5t156 89t191 29.5q55 0 76.5 -3t60.5 -13q68 -12 123 -45q66 -33 115 -88q47 -47 78 -119q33 61 80 110.5t108 88.5q57 33 126 51t144 18q43 0 79 -6t73 -22q68 -29 128 -86.5 t93 -146.5t33 -191v-25q0 -43 -6 -79t-23 -73q-29 -70 -84 -116q-68 -61 -174 -92t-254 -31h-823q-63 0 -117.5 -25.5t-103.5 -77.5q-41 -49 -70 -110q-22 -55 -22 -116v-5q0 -55 17 -104.5t53 -96.5t88.5 -72.5t109.5 -25.5q59 0 108 29q45 23 91 80q31 39 51 92t26 110 l25 217h231l-24 -305q0 -29 18.5 -63.5t59.5 -70.5t97 -57.5t114 -21.5q57 0 105 24.5t81 68.5t48 99.5t15 114.5v23q0 14 -4 39l-12 57q-6 27 -20.5 53.5t-28.5 40.5l244 -2q12 -10 28 -38l23 -58l14 -61l6 -47q0 -94 -34.5 -170t-108.5 -133q-63 -53 -160.5 -83 t-208.5 -30q-51 0 -89 11t-55 18.5t-44 25.5q-43 25 -86 68q-37 33 -82 92q-29 -53 -82 -96q-43 -39 -106 -72q-63 -29 -127 -43q-33 -6 -67 -10t-71 -4q-100 0 -180 25.5t-147 74.5q-68 53 -107 129t-39 172zM109 471q-1 -74 30 -111q30 -36 94 -36h3q33 0 51 7t30 25 l17 45l6 70q0 27 -10 47q-6 23 -22.5 36t-41.5 24l-41 8q-27 0 -46 -7.5t-36 -23.5q-16 -12 -26 -37z" />
<glyph unicode="J" horiz-adv-x="2007" d="M-45 -217q0 29 10 49.5t29 38.5q12 16 37 27l49 8l948 -2q20 33 31 65l22 64l15 71l4 80q0 37 -2 72t-9.5 80t-28 87t-53 63.5t-71.5 21.5h-37l-18 -152q-12 -86 -49 -156.5t-103 -123.5q-51 -39 -119 -66q-68 -20 -135 -20q-109 0 -191.5 19.5t-140.5 66.5 q-55 41 -90 106q-28 66 -28 145v5q0 55 13 93t46 70.5t84 51.5q25 8 52.5 12t68.5 4h43l49 385h836l-25 -59h-244l-41 -326h88q82 0 150 -31q68 -27 112 -88q41 -49 62 -118q8 -31 14 -71t6 -79q0 -59 -3 -80.5t-15 -74t-49 -115.5l301 -2l127 1044h244l-127 -1100h-580 q-59 -82 -135 -150.5t-160 -113.5q-98 -53 -220 -79.5t-247 -26.5q-92 0 -174 21.5t-170 69.5t-132 102.5t-44 111.5zM37 -207v-12q0 -33 39 -78q33 -35 99.5 -69.5t135 -53t135.5 -18.5l19 -2q109 0 188 22q86 18 150 58q49 31 98 86q49 47 94 124l-835 -2h-47l-39 -10 q-18 -6 -29 -16zM104 332q1 -56 21 -103q16 -39 61 -77q35 -29 86 -46q25 -6 51.5 -10t57.5 -4q43 0 85 18.5t79 54.5t60.5 85t31.5 106l18 152h-387q-41 0 -67.5 -9.5t-48 -28.5t-37.5 -58q-6 -18 -8.5 -34t-2.5 -46zM420 563h244l41 326h-240z" />
<glyph unicode="K" horiz-adv-x="2156" d="M35 168q0 70 2 101.5t17.5 108.5t49 160t79.5 136t110 78l31 6l28 -6l23 -17l16 -22l6 -25l-6 -22l-14 -19q-63 -29 -121 -92q-49 -59 -86 -143q-23 -57 -39 -138q-12 -74 -12 -153v-33l2 -29v-16q2 -10 4 -12l2 -17l4 -14q25 -96 80 -178q51 -82 132 -149.5t171 -101.5 t186 -34h10q88 0 171 35q82 33 157 104q68 63 107 144.5t39 167.5v12h243q0 -123 -57 -222.5t-176 -178.5q-102 -70 -229 -106t-265 -36q-121 0 -224 40t-202 126q-82 76 -145 174q-29 47 -46 93.5t-32 109.5l-12 82zM524 0l127 948h246l-117 -893h404l80 650q0 47 25.5 89 t70.5 87q39 37 92 59q23 8 50.5 14.5t53.5 6.5q103 -1 189 -48q84 -45 156 -141q61 -86 94 -183t33 -198q0 -199 -75 -295t-224 -96h-1205zM1427 55h314q47 0 82 22.5t65.5 73t44.5 107.5q6 29 10.5 58.5t4.5 64.5q-1 80 -21 154q-18 76 -60 147.5t-94.5 110t-111.5 38.5 q-33 0 -60.5 -12t-46.5 -35l-20 -34l-14 -45z" />
<glyph unicode="L" horiz-adv-x="1988" d="M33 428q0 215 74.5 406.5t230.5 363.5q143 160 307 244q84 41 164 61.5t172 20.5q238 0 414 -50.5t299 -148.5q102 -84 154.5 -189.5t52.5 -230.5v-16v-19l-3 -20l-2 -19l-61 -403h-80l62 436l2 29q0 84 -50.5 155.5t-159 135t-270 98.5t-358.5 35q-178 0 -328.5 -66.5 t-280.5 -202t-196 -290.5q-31 -78 -47 -159t-16 -171q0 -152 49 -295t149 -274q111 -147 250 -222t299 -75l29 -2q109 0 209 47t190 141q78 84 117 168t39 164l2 92q0 41 -2 77t-8 67.5t-11.5 51t-17.5 38.5q-18 31 -51 48t-72 17l-24 2q-35 0 -69 -11t-61 -34l-32 -39 l-15 -45l-43 -344h-243l127 948h243l-59 -452q18 25 47 47t66 37l69 24l74 8q88 0 155.5 -33.5t119 -101t79 -161t27.5 -191.5q0 -152 -72 -270q-66 -119 -209 -226q-129 -90 -276 -135q-72 -23 -149.5 -35t-161.5 -12q-186 0 -341 78t-276 231q-109 137 -170 312 q-29 86 -43 172t-14 188z" />
<glyph unicode="M" horiz-adv-x="2768" d="M25 125q0 41 11 72.5t35.5 55t59.5 36.5q33 8 50.5 9t27.5 1h1298l4 20l11 31l4 37l2 49q0 90 -23 160q-20 70 -65 136.5t-98.5 99t-110.5 32.5h-14q29 -12 49 -36.5t39 -65.5q12 -33 18 -66l8 -59q0 -53 -19.5 -100.5t-57 -85t-86 -60t-93.5 -22.5q-53 0 -99 18.5 t-79 57t-51 87.5q-6 23 -10.5 49.5t-4.5 55.5q0 63 32 119.5t98 103.5q33 23 64.5 39t76.5 33q75 24 159 24h7q109 0 196.5 -36.5t165.5 -118.5q68 -74 103.5 -164t35.5 -195v-28q0 -16 -3 -41t-5 -38t-10 -36h205l80 578h243l-92 -650q6 8 16.5 18.5t30.5 24.5l54 33l57 21 l63 8q57 0 103 -23q45 -18 80 -61t53 -94.5t18 -112.5l-2 -41q0 -104 -55 -198.5t-164.5 -179.5t-243 -130t-288.5 -45q-98 0 -163 9t-103.5 17.5t-71.5 20.5q-92 31 -137 88q-20 25 -32.5 57.5t-12.5 69.5q0 35 12 60.5t33.5 48t44 32t61.5 13.5l252 -2l-20 -74h-244h-10 l-9 -4l-12 -8l-8 -13l-16 -24l-5 -29q0 -49 29 -80.5t88.5 -54.5t142 -35t181.5 -12q92 0 174 35q82 31 166 102.5t128 157.5t44 178q0 45 -7.5 79t-18.5 60.5t-28.5 40t-42.5 17.5l-40 -7l-41 -14q-20 -6 -37 -20l-29 -25l-61 -375h-240l68 484h-203q-37 -123 -124 -216.5 t-226 -160.5q-121 -57 -268.5 -87t-313.5 -30q-131 0 -262 25.5t-244 70.5q-141 57 -209.5 127t-68.5 156zM104 125q0 -66 55.5 -120t168.5 -99q92 -37 221 -60q53 -8 122.5 -14t137.5 -6q115 0 215 26.5t199.5 83t162.5 132.5q66 72 107 172h-1274q-57 0 -86 -29t-29 -86z M913 621q0 -25 5 -39l12 -35l22 -25l31 -14l21 -4q20 0 37.5 11t33.5 38l21 51l8 58q0 27 -4 40l-13 35q-6 16 -20 25l-27 10l-16 2q-23 0 -47 -12q-16 -12 -35 -35l-22 -51z" />
<glyph unicode="N" horiz-adv-x="2304" d="M20 276v89q6 37 9 55q0 31 7 67.5t18.5 74.5t22.5 71t25 61q29 53 70 103l27 20l30 8l33 -6l29 -16l18 -25l6 -26l-4 -19l-12 -16q-43 -43 -80 -94.5t-61 -106.5q-4 -8 -15.5 -37.5t-25.5 -77.5q-12 -55 -13 -112v-13q0 -166 72 -294.5t221 -237.5q131 -92 300 -143.5 t368 -51.5q209 0 374 41t296 121q106 66 161.5 139.5t55.5 149.5q0 25 -2 49.5t-8 44.5q-6 45 -26 74t-40.5 40t-34.5 15t-37 4q-33 0 -58.5 -18.5t-49.5 -61.5l-21 -147h-243l71 508h-270l-21 -152q-10 -92 -47 -160.5t-100 -119.5q-51 -41 -121 -66q-68 -20 -135 -20 q-109 0 -191 20q-86 18 -143 66q-55 41 -90 106q-29 68 -29 150q0 55 15.5 94t47.5 70.5t85 50.5q25 8 52.5 12t68.5 4h43l49 385h831l-24 -59h-240l-45 -326h864l-22 -55h-336l-29 -240q11 17 27 31l45 29l47 20l37 8l26 2q63 0 117 -24q51 -20 94 -68.5t64 -107.5 q10 -27 16 -61t6 -70v-27q0 -129 -71.5 -226.5t-218.5 -170.5q-135 -66 -350.5 -102t-479.5 -36q-213 0 -397 54.5t-342 169t-237 261t-79 326.5zM436 332q1 -54 19 -103q18 -43 57 -73.5t92 -49.5q27 -6 53.5 -10t59.5 -4q43 0 85 18.5t79 54.5t60.5 85t31.5 106l14 152 h-387q-37 0 -64.5 -9.5t-52.5 -31.5q-25 -18 -34 -46t-11 -43.5t-2 -45.5zM756 563h239l45 326h-243z" />
<glyph unicode="O" horiz-adv-x="1796" d="M20 0l127 948h240l-115 -893h1436l-25 -55h-1663zM492 463v20q0 84 28.5 146.5t86 113t137 76t167.5 25.5q61 0 117.5 -18.5t108 -55.5t76 -85t24.5 -110q0 -18 -1 -38.5t-15.5 -59.5t-47 -78t-75.5 -57t-94 -18q-37 0 -68 14t-56.5 44t-43.5 69q-14 39 -15 73 q0 31 11.5 53.5t31.5 47.5h-14q-43 0 -81 -19.5t-69.5 -58.5t-50.5 -90q-8 -25 -12 -47.5t-4 -53.5q0 -51 13 -99t40 -89t70 -74q39 -25 96 -39h-117q-57 29 -98 70q-39 39 -78 100q-31 53 -51 115q-16 61 -16 123zM909 520q0 -23 4 -35l15 -30l22 -21l31 -6l29 6l22 19 l12 28l5 39q0 25 -4.5 41.5t-14.5 30.5q-6 16 -20 24l-29 9q-16 0 -28.5 -7.5t-24.5 -23.5l-15 -33z" />
<glyph unicode="P" horiz-adv-x="30" d="M-659 1163q-1 6 -1 16t1 24q2 28 2 44q0 80 26.5 143.5t85 114.5t136 77t167.5 26q43 0 63.5 -2t64.5 -15.5t94.5 -49.5t74.5 -87q6 -14 16.5 -45t10.5 -70q0 -41 -2 -58t-16.5 -56t-44 -71t-74.5 -54q-43 -16 -95 -17q-39 0 -67.5 13.5t-54 41t-40 61.5t-14.5 71l2 30 q0 12 9 29l14 25l22 22l-26 2q-43 0 -74 -10q-35 -6 -70 -27q-27 -14 -53 -43q-16 -18 -28 -51l-9 -35l-2 -41q0 -39 7.5 -63.5t12.5 -37.5t19 -28q25 -16 41 -32l45 -25l54 -22l61 -25l-6 -41q-2 4 -35 4q-41 0 -66 4l-79 23q-10 4 -25.5 14t-28 15.5t-33 27t-30.5 35.5 t-19 29q-10 27 -16 38zM-201 1278q0 -25 4 -37l13 -29q10 -14 22 -18l31 -6q18 0 30.5 7t24.5 24l15 32l6 39l-6 37q-4 18 -12.5 31.5t-24.5 21.5l-33 9q-13 -1 -29 -11q-10 -4 -22 -24l-15 -35z" />
<glyph unicode="Q" horiz-adv-x="3231" d="M33 -217q0 23 12 48.5t41 41.5l53 25l54 8l1951 -2q25 27 47 55q8 10 43 57q31 47 66 119q25 53 41 125q6 33 10 63.5t4 67.5v43q0 111 -19.5 200t-50 142t-65.5 76q-31 25 -72 25q-43 0 -75 -11q-33 -6 -72 -24l-51 -31l-41 -35q39 -39 76 -92q29 -39 59 -100 q6 -14 16.5 -43t20.5 -69t10 -91q0 -43 -4 -72.5t-19 -68.5q-18 -66 -62 -126.5t-100.5 -92t-117.5 -31.5q-53 0 -100 24q-41 25 -74 79t-51 122q-16 72 -17 147l2 41q0 20 2 43t8.5 43.5t14.5 45t20 47.5l21 36l26 39l29 37l35 37q-27 31 -61.5 57.5t-72.5 43t-70 23.5 t-44 9t-39 2q-70 0 -123 -21.5t-106 -68.5q41 -41 78 -90q29 -39 59 -100q8 -20 16.5 -44t19.5 -67t11 -94q0 -43 -4 -72.5t-18 -68.5q-18 -66 -62.5 -126.5t-99.5 -92t-117 -31.5q-53 0 -96 23.5t-82 80.5q-31 51 -51 121q-8 35 -12.5 68.5t-4.5 81.5l2 38q0 20 2 43 t10.5 53.5t34.5 82.5l21 36l25 39l28 37l35 37q-31 35 -66.5 61.5t-75.5 43t-85 24.5t-56 10h-41q-98 0 -190 -29.5t-178 -93t-135 -145.5q-43 -80 -43 -172v-33q6 -23 8 -35t8 -31.5t14 -39.5l31 -70q16 -25 31 -37l-6 29l-2 20v17v22q0 45 2 64.5t17 64.5t48 92.5t84 71 t113 23.5q53 0 92 -23q41 -18 72.5 -62t49 -96.5t17.5 -107.5q0 -70 -19.5 -126t-60.5 -97q-35 -41 -96 -66q-61 -20 -129 -20q-78 0 -142.5 30.5t-115.5 100t-73.5 149.5t-22.5 166q0 102 44 190.5t137 169.5t212 124q59 20 119.5 30.5t134.5 10.5q33 0 63.5 -2.5 t61.5 -8.5q57 -6 113 -24q35 -10 51 -16.5t49 -23t51 -26.5t43 -29q80 57 169 88t185 31q92 0 184.5 -29.5t178.5 -89.5l88 58q41 27 65 37q43 16 85 24t53 11h41q113 0 197.5 -38t140.5 -116q47 -66 74.5 -172.5t27.5 -231.5q0 -68 -9 -120t-17.5 -84.5t-20.5 -63.5 q-27 -66 -58.5 -121t-78.5 -108l366 -2l129 1044h244l-127 -1100h-674q-102 -96 -244 -176q-131 -74 -308 -129t-369 -82q-80 -10 -193 -18t-205 -8q-170 0 -327.5 18.5t-302.5 54.5q-180 49 -276.5 117t-96.5 158zM113 -229q0 -57 83 -107.5t248 -87.5q68 -16 133.5 -26.5 t147.5 -18.5q154 -16 299 -16l37 -2q158 0 304 22.5t279.5 67.5t245 108.5t195.5 138.5l-1858 -2l-45 -2l-37 -16q-14 -10 -24 -25zM272 289l7 -60l18 -53q12 -25 25.5 -38t33.5 -13q19 0 33 8q18 10 31 29l20 43l9 59l-7 70q-4 33 -13 54.5t-24.5 34.5t-35.5 13t-37 -10 t-31 -33l-22 -47zM911 347q0 -19 3.5 -41.5t6.5 -39t12 -44t28 -46.5q16 -12 43 -16q31 0 53 16.5t39.5 52t27 80.5t9.5 94l-7 70l-18 68l-29 63q-12 33 -35 60l-55 -64q-25 -31 -43 -65.5t-26 -73.5l-9 -70v-44zM1628 347q0 -19 4 -46l19 -76q10 -33 26 -49q16 -12 43 -16 q31 0 53.5 16.5t40 52t25.5 78.5l8 96l-6 70l-18 68l-29 65q-12 33 -35 58l-57 -64q-23 -27 -40 -61.5t-26 -73.5l-8 -74v-44z" />
<glyph unicode="R" horiz-adv-x="1687" d="M37 332q0 55 13 93t46 70.5t84 51.5q25 8 52.5 12t66.5 4h45l47 385h838l-25 -59h-243l-46 -326h680l-22 -55h-221l-68 -508h-244l72 508h-201l-18 -152q-12 -87 -49 -161q-37 -68 -103 -119q-51 -41 -120 -66q-68 -20 -138 -20q-106 0 -188 19.5t-139.5 63.5t-89.5 107 q-29 68 -29 152zM117 332q0 -56 20 -103q16 -39 62 -77q37 -31 84 -46q25 -6 51 -10t57 -4q45 0 85 17.5t78 54.5t61.5 86t31.5 106l21 152h-392q-37 0 -63.5 -9.5t-48 -28.5t-37.5 -58q-6 -18 -8 -34t-2 -46zM432 563h244l41 326h-242z" />
<glyph unicode="S" horiz-adv-x="2535" d="M20 311v15l7 110q6 70 8 78q10 37 14 64.5t10.5 54t19.5 64.5t34 63q12 20 26.5 29.5t40.5 13.5q14 -2 19 -4l18 -13l10 -18l4 -23l-4 -28l-39 -66l-38 -98q-25 -68 -37 -121l-11 -96l2 -25q0 -166 89.5 -303t269.5 -248q164 -98 358.5 -148t403.5 -50q184 0 350 43 t313.5 129t221 183t73.5 208l2 39q0 55 -12 108q-8 49 -30.5 86t-41 51.5t-45.5 18.5q-31 0 -47 -4l-39 -10l-35 -19l-26 -26l-49 -369h-244l117 889h-240l-117 -889h-243l75 588q-12 74 -47 123q-31 51 -82 88q-20 14 -46.5 27.5t-59.5 25.5q-55 18 -123 18 q-92 0 -176 -28.5t-162 -90t-117 -143.5t-39 -172l6 -65q2 -14 8.5 -36t14.5 -42l31 -72q16 -27 33 -37l-7 84q0 45 2 66.5t17.5 66.5t48.5 92.5t83 71t112 23.5q55 0 94 -23q41 -18 73 -63q27 -39 48 -94q16 -53 16 -109q0 -68 -19.5 -126t-60.5 -99q-37 -43 -94 -63.5 t-125 -20.5q-80 0 -144.5 32.5t-116.5 101.5t-77 144q-23 80 -23 168q0 121 48.5 215t144.5 170q84 66 192.5 100.5t225.5 34.5q59 0 80.5 -3t62.5 -13q70 -12 134.5 -42t119.5 -73t96 -100l29 223h836l-25 -59h-244l-55 -428q12 12 25.5 23.5t27.5 19.5l56 28l59 15l63 6 q55 0 105.5 -25.5t90.5 -76t60.5 -129t20.5 -166.5v-31q0 -133 -79 -247t-241.5 -209t-388.5 -144q-106 -23 -231 -35t-264 -12q-231 0 -432 57t-387 174q-193 123 -289.5 272.5t-96.5 329.5zM520 289q0 -41 4 -62l19 -53q12 -27 25.5 -38t31.5 -11q19 0 35 8 q18 10 30.5 28.5t18.5 43.5l8 59l-6 70q-4 33 -13 54.5t-24.5 34.5t-36.5 13q-20 0 -34.5 -9t-28.5 -29.5t-23 -51.5z" />
<glyph unicode="T" horiz-adv-x="2516" d="M33 344q0 51 15 92t47 73t83 50q25 8 52.5 12t68.5 4h45l47 386h834l-25 -62h-239l-46 -324h113q106 0 175 -29.5t106 -92.5q25 33 53 59q14 10 30.5 22.5t34.5 20.5q35 16 73 24.5t46 10.5h33q39 0 64.5 -4t60.5 -19q59 -18 111.5 -59t78.5 -98q6 -14 16.5 -47t10.5 -74 q0 -23 -8 -49l-25 -64q-12 -37 -30 -61q-12 -23 -29 -35h600l-25 -80h-831v68l39 43l30 55l19 63l8 66q0 37 -8 60.5t-13.5 33.5t-18.5 26.5t-45 31t-73 14.5q-55 0 -104 -31q-45 -33 -80 -90l-4 -45l-6 -55l-33 -240h-244l35 264l6 55l2 54q0 47 -10 76q-6 29 -21.5 44 t-37 21t-53.5 6h-54l-18 -151q-10 -90 -47 -159t-103 -122q-57 -45 -121 -68q-68 -20 -135 -20q-109 0 -191.5 21.5t-139 63.5t-91.5 108q-28 66 -28 145v6zM113 344q0 -53 18.5 -99t57 -77t92.5 -49q27 -6 53 -10.5t57 -4.5q45 1 88 19q37 16 75 53t61.5 86t31.5 107 l17 151h-388q-37 0 -64.5 -9t-51.5 -32q-25 -18 -34 -45.5t-11 -43t-2 -46.5zM432 575h240l45 324h-246z" />
<glyph unicode="U" horiz-adv-x="1796" d="M29 180q0 76 3 104.5t13 80.5q20 96 54 177t82 135t108 75l28 6l27 -6q14 -4 25 -15l16 -22l6 -25l-6 -24l-16 -19q-70 -31 -117 -86t-86 -145q-6 -16 -16.5 -48t-24.5 -92q-12 -72 -12 -149v-18l2 -33l2 -35q0 -14 4 -21q18 -96 82.5 -174.5t177.5 -146.5 q98 -57 214 -87t236 -30q100 0 185 35q90 31 172 98q70 55 125 131q49 68 88 154q18 51 31 106q8 55 9 82t1 41q0 63 -12 119q-8 51 -32 95t-63 71t-88 27l-33 -6l-34 -15l-33 -18l-23 -19l-59 -483h-246l117 889h-244l-117 -889h-79l116 948h832l-25 -59h-239l-43 -326 q18 20 43.5 37.5t58.5 26.5l61 14l64 6q80 0 135 -35q57 -31 100 -100q33 -53 51.5 -130t18.5 -167v-68q-6 -31 -10 -64.5t-6 -41.5q-10 -29 -13 -41q-31 -113 -104.5 -203t-189 -158.5t-241.5 -102.5t-261 -34q-147 0 -276.5 36t-245 109.5t-186 172t-95.5 221.5l-10 68z " />
<glyph unicode="V" horiz-adv-x="1687" d="M33 436q0 98 42 183.5t130 166t193.5 121.5t226.5 41h1003l-20 -59h-244l-109 -834q-80 -23 -161.5 -61.5t-149.5 -93.5q-51 -41 -115 -103l-124 -143l-58 53q31 66 62.5 116t73.5 101t104 109l137 127l96 729h-495q-90 0 -179.5 -36t-170 -105.5t-123.5 -149.5 q-18 -39 -28.5 -79t-10.5 -83v-33q6 -23 8 -34t8 -34.5t17.5 -54t29 -58t33.5 -38.5l-6 31l-2 21v16v22q0 45 2 64.5t15 63.5t48 96q35 43 82 67q51 23 113 23q55 0 94 -23q41 -18 74 -63q27 -39 47 -94q16 -53 16 -109q0 -70 -19.5 -126t-60.5 -97q-35 -41 -94 -66 q-61 -20 -127 -20q-80 0 -144.5 31.5t-115.5 101.5t-74.5 147.5t-23.5 165.5zM276 289q0 -41 5 -62l18 -53q12 -27 25.5 -38t31.5 -11t36 9t30 27.5t18 43.5l9 59l-7 72q-4 33 -14 55q-6 20 -25 33q-12 12 -34 12q-20 0 -35 -9t-29 -29.5t-22 -51.5z" />
<glyph unicode="W" horiz-adv-x="1964" d="M-49 -211q0 33 9 53.5t32 36.5l45 21q25 6 59 6l881 -2q55 104 85 226t30 251v25q0 43 -2.5 81.5t-8.5 81.5t-11 69t-17 60q-23 68 -61 100.5t-85 32.5q-39 0 -76.5 -21.5t-81.5 -70.5t-73 -110q-10 -27 -19.5 -58.5t-15.5 -74.5l-57 -496h-244l80 588l4 55q0 43 -8 74 q-6 39 -23 61q-12 25 -31.5 37t-46.5 16q-33 0 -58.5 -16t-43.5 -50t-30.5 -78t-18.5 -99l-68 -588h-80l80 655q4 43 8.5 63.5t20.5 55.5q25 57 63.5 98t83.5 65t93 24q53 0 93 -15.5t81 -50.5q35 -29 65 -76q10 -14 23.5 -39.5t23.5 -52.5q16 45 48 89t77 77t92 51 q25 8 45.5 12.5t51.5 4.5q88 0 153.5 -38t116.5 -115t75.5 -183.5t24.5 -243.5q0 -72 -8 -129q-6 -59 -24 -125q-16 -70 -39 -115t-29 -56t-31 -50l303 -2l129 1044h244l-129 -1100h-588q-59 -82 -137 -147q-70 -63 -172 -115q-84 -43 -197.5 -69.5t-236.5 -26.5 q-98 0 -173 16.5t-141 51.5q-80 41 -117.5 100t-37.5 131zM29 -217q0 -57 32.5 -100t102.5 -74q25 -10 43 -15.5t70.5 -13.5t77 -9t53.5 -1q14 -1 29 -1q71 0 134 21q74 18 144.5 56.5t124 86.5t100.5 117l-831 -2l-37 -2l-25 -16l-14 -20z" />
<glyph unicode="X" d="M41 410l2 39q0 100 61.5 191t183.5 166t271 116q72 18 146.5 28.5t158.5 10.5q186 0 331.5 -39t262.5 -120t177.5 -183.5t60.5 -227.5v-26q0 -98 -28 -168t-87 -119q-43 -35 -108 -60q-59 -18 -134 -18q-55 0 -98 19.5t-77 59.5t-56 91q-8 25 -12 47.5t-4 50.5l4 43 q-27 0 -46.5 -10t-36 -28.5t-24.5 -45.5l-8 -55q0 -27 2 -52.5t8 -49.5q14 -47 37 -79t69 -64.5t115 -63.5l357 -2l-21 -62h-323l-58 -6q-25 -6 -47 -22l-33 -33q-8 -14 -16 -39q-12 -72 -49 -131q-29 -55 -85 -101.5t-141 -70t-188 -23.5q-76 0 -144.5 19.5t-123.5 59.5 t-94 104q-31 55 -31 131q0 43 12.5 77.5t40.5 57.5q29 27 61.5 37t69.5 10q45 0 73 -10.5t60 -36.5q25 -18 40.5 -56t15.5 -79q0 -31 -10 -54q-6 -23 -27 -47l-43 -43l-59 -41l24 -16l16 -10l43 -15l56 -4q6 -1 11 -1q35 0 69 22q41 18 80.5 57t59 74t28 75t26 67.5 t51.5 49.5q18 12 37 18.5t31 10.5l80 8q-41 29 -76 74q-27 33 -53 82l-33 86q-10 51 -10 92q0 76 30.5 132t88.5 97q47 33 109.5 51.5t137.5 18.5l-26 -43l-19 -47l-12 -51l-2 -54q0 -33 7 -58t24.5 -46.5t42.5 -36.5q18 -6 57 -10q33 0 57.5 14.5t39 44t24.5 86.5l8 121 q0 100 -39 184q-35 82 -117.5 159t-194.5 116t-241 39q-133 0 -247.5 -32t-220 -93.5t-174 -140t-97.5 -174.5l-6 -39v-25.5t8 -36.5q2 -14 8 -30.5t15 -34.5l32 -56l33 -30l-4 20l-2 21l-2 20v23q0 45 2 66.5t17.5 66.5t48 92t84 70.5t112.5 23.5q53 0 92 -22 q41 -18 74 -64q27 -39 47 -94q16 -53 16 -109q0 -68 -19 -126t-60 -99q-35 -41 -95 -66q-61 -20 -127 -20q-78 0 -138 28.5t-118 92.5q-45 55 -77 131q-25 74 -25 158zM285 299l6 -61l18 -54q12 -27 25.5 -38t34.5 -11q18 0 32 8q18 10 31 29l21 45l8 59l-6 72 q-2 31 -12.5 52.5t-26 35t-39.5 13.5q-18 0 -33.5 -10.5t-30 -31t-22.5 -51.5zM291 -322q0 -29 4 -43l16 -38q10 -16 21.5 -23.5t36.5 -11.5q20 0 32 10q12 6 25 25l16 38l7 43l-7 39q-2 18 -14 35l-27 23l-32 8l-35 -8q-14 -8 -25 -23l-14 -35z" />
<glyph unicode="Y" horiz-adv-x="2347" d="M29 449q0 100 42 186t125 167t190.5 126t234.5 45q98 0 178 -27q84 -25 153.5 -79t104.5 -120.5t35 -146.5l-5 -43l-14 -117l-6 -63l-2 -51q0 -57 9 -97.5t28.5 -70t58.5 -49.5q18 -8 40 -12.5t54 -4.5q70 0 132.5 34t117 101.5t83 143t28.5 149.5v21q0 84 -23 141 q-18 59 -61 98q-10 8 -33.5 22.5t-46.5 24.5q-49 23 -117 37q-12 0 -28 8l-27 21l-18 27q-6 12 -7 28v13q0 12 9 26l24 21l15 8l16 6l12 4l17 2q88 0 153.5 -38t112.5 -118q41 -68 61.5 -164t20.5 -200q0 -55 -16.5 -107.5t-24.5 -72t-31 -62.5q-35 -66 -92 -127 q-29 -33 -51.5 -51t-61.5 -41l-20 -18l-15 -17l-10 -18l-8 -17l-6 -34q0 -25 -4 -37l536 -2l127 1044h244l-127 -1100h-793q-41 -80 -102 -143q-57 -68 -137 -119q-94 -61 -217 -96q-63 -16 -121.5 -24.5t-132.5 -8.5q-102 0 -200.5 19.5t-176.5 52.5q-94 39 -143.5 94 t-49.5 123q0 20 2.5 30.5t13.5 35t37.5 46t67.5 38.5q37 8 45 10h31l848 -2v18q0 31 -8 48.5t-29 29.5q-57 10 -102 35q-43 25 -73 67.5t-48 106.5q-16 70 -17 153v48.5t5 58.5l16 119l2 28q0 55 -20 99q-18 47 -57.5 89t-84.5 62q-41 23 -84 23q-98 0 -184 -37 q-84 -33 -164 -107q-72 -66 -111.5 -142.5t-39.5 -153.5v-33q6 -23 8 -34t8 -34.5t17.5 -54.5t28.5 -58.5t34 -37.5l-6 43l-2 47q0 45 2 64.5t15 63.5t48 95q35 43 82 68q49 22 108 22h5q55 0 94 -22q41 -18 74 -64q27 -39 47 -94q16 -53 16 -109q0 -68 -19.5 -126 t-60.5 -99q-35 -41 -94 -66q-61 -20 -127 -20q-80 0 -144.5 31.5t-114.5 99.5t-74.5 146.5t-24.5 171.5zM143 -254q0 -47 33 -82q35 -39 102.5 -67.5t153.5 -42.5q45 -8 87 -12.5t102 -4.5q78 0 146.5 21.5t142 66.5t120.5 105q49 55 70 120l-840 -2q-31 0 -48 -5t-34.5 -18 t-25.5 -34zM272 299q0 -40 4 -63l19 -54q10 -25 24 -37q8 -6 33 -10q18 0 33.5 9.5t30.5 29.5l20 43l8 59l-6 72q-4 33 -14 55q-6 20 -25 33q-12 12 -34 13q-18 0 -34 -10.5t-30 -31t-22 -51.5z" />
<glyph unicode="Z" horiz-adv-x="3043" d="M14 389v80q6 37 8.5 56.5t7.5 53t19 80.5q16 72 39 124.5t55 93.5q14 16 27.5 23t36.5 11q27 0 42 -13t15 -36q0 -14 -4 -22l-12 -21q-10 -12 -26.5 -35.5t-33.5 -50.5q-27 -55 -49 -115l-33 -131q-8 -61 -9 -89.5t-1 -47.5v-18q0 -139 60.5 -257t187.5 -222 q100 -80 243.5 -147.5t321.5 -113.5q141 -35 303 -57q66 -8 151 -14t157 -6q229 0 433 68.5t381 204.5t266 293t89 335q0 104 -14 178q-12 82 -41 146.5t-71 100.5t-95 36h-17q-37 0 -65.5 -8.5t-67.5 -26.5l-49 -31l-41 -35q39 -39 76 -92q29 -39 59 -100 q25 -51 37.5 -102.5t12.5 -100.5q0 -43 -4.5 -72.5t-18.5 -68.5q-18 -66 -62 -126.5t-100.5 -92t-120.5 -31.5q-53 0 -100 24q-41 25 -73.5 79t-51.5 122q-16 72 -16 147l2 41q0 20 2 43t8 43.5t14.5 45t20.5 47.5l20 36l27 39l29 37l34 37l-63 57q-33 27 -70 43l-73 25 q-37 8 -45 10h-33q-66 0 -120 -21.5t-112 -68.5q41 -41 78 -90q29 -39 60 -100q8 -20 16 -44t19.5 -67t11.5 -94q0 -43 -4.5 -72.5t-18.5 -68.5q-23 -72 -65.5 -131.5t-96 -89t-114.5 -29.5q-53 0 -96.5 23.5t-82.5 80.5q-31 51 -51 121q-8 35 -12 68.5t-4 81.5l2 38 q0 20 2 43t10 53.5t35 82.5l21 36l24 39l29 37l35 37q-31 35 -67 61.5t-76 43t-85 24.5t-55 10h-41q-98 0 -190.5 -29.5t-178.5 -93t-135 -145.5q-45 -84 -45 -172v-33q6 -23 8 -35t8.5 -31.5t14.5 -39.5l31 -70q16 -25 30 -37l-6 29l-2 20v17v22q0 45 2 64.5t17.5 64.5 t48 92.5t84 71t112.5 23.5q53 0 92 -23q41 -18 73 -62t49.5 -96.5t17.5 -107.5q0 -70 -19.5 -126t-60.5 -97q-35 -41 -96 -66q-61 -20 -127 -20q-80 0 -144.5 33.5t-118.5 103.5q-23 33 -39 64.5t-32 76.5q-23 80 -23 168q0 102 44 190.5t137.5 169.5t211.5 124 q59 20 120 30.5t134 10.5q33 0 64 -2.5t61 -8.5q55 -6 115 -24q37 -10 53.5 -16.5t46.5 -24.5q31 -14 49.5 -24.5t43.5 -29.5l88 52q41 25 90 39q14 4 38.5 10t53.5 12l92 8q94 0 183 -30.5t171 -90.5l88 58q39 25 76 39t78 22t59.5 9.5t30.5 1.5q106 0 188 -37t148 -119 q57 -72 87 -171t30 -218q0 -215 -111.5 -394.5t-335.5 -322.5q-203 -131 -448 -199q-121 -33 -247 -49t-271 -16q-295 0 -550 55t-470 166q-242 125 -363 293t-121 383zM592 289l6 -62l18 -53q12 -27 25.5 -38t34.5 -11q18 0 34.5 9t28.5 28l21 43l8 59l-6 70 q-4 33 -13.5 54.5t-24.5 34.5t-36 13q-16 0 -32.5 -10t-34.5 -35l-23 -47zM1233 346q0 -20 4 -47q6 -35 7 -44t10.5 -35.5t25.5 -43.5q16 -12 43 -16q33 0 55.5 16.5t40 51t25.5 77.5l8 98l-6 70l-19 68l-28 63q-12 33 -35 60l-57 -64q-23 -27 -40.5 -61.5t-25.5 -73.5 l-8 -74v-45zM1948 347q0 -19 4 -46l18 -76q10 -33 27 -49q16 -12 43 -16q31 0 53.5 16.5t39.5 52t26.5 80.5t9.5 94l-6 70l-19 68l-28 63q-12 31 -35 60l-56 -64q-25 -31 -43 -65.5t-26 -73.5l-8 -70v-44z" />
<glyph unicode="[" horiz-adv-x="20" d="M-520 -500l98 738h238l-92 -738h-244z" />
<glyph unicode="\" horiz-adv-x="2387" d="M20 436q0 100 42 186.5t125 167t190.5 126t234.5 45.5q131 0 242 -38t191.5 -108t123.5 -168t43 -219q0 -29 -2 -59.5t-10 -72.5t-28.5 -90t-43 -84t-53.5 -67h553l37 269q-68 0 -129 18t-107.5 59t-76.5 101q-25 59 -25 135q0 70 22.5 124t67.5 101t101.5 73t121.5 26 q66 0 120.5 -19.5t100.5 -56.5t69.5 -82t23.5 -98l-2 -25l-29 -248q61 20 64 23q25 12 40 20t32.5 17.5t41.5 27.5q43 29 67.5 56.5t39.5 60.5h80l-68 -637h-348l-55 -537h-256l59 537h-860v55q49 31 90 72q33 37 65 94q23 49 39 109q6 31 10.5 57.5t4.5 61.5 q0 90 -22.5 161.5t-69.5 130.5q-49 68 -120 102t-157 34h-18q-92 0 -175 -36t-161 -112q-66 -66 -107 -143q-35 -74 -35 -150l7 -65q2 -14 8 -38t14 -42l31 -70q16 -27 33 -37l-7 31l-2 21v16v22q0 45 2.5 64.5t15.5 63.5t48 96q35 43 82 67q51 23 113 23q55 0 94 -23 q41 -18 73 -63q27 -39 48 -94q16 -53 16 -109q0 -68 -19.5 -126t-60.5 -99q-37 -43 -94 -63.5t-125 -20.5q-80 0 -144.5 32.5t-116.5 101.5t-77 144q-23 80 -23 168zM264 289q0 -41 4 -62l19 -53q12 -27 25.5 -38t31.5 -11t35.5 9t30 27.5t18.5 43.5l8 59l-6 72 q-4 33 -14 55q-6 20 -25 33q-12 12 -35 12q-21 0 -37 -10q-12 -8 -26 -28.5t-23 -51.5zM1409 637q1 -57 21 -100q16 -39 61 -78q12 -10 34.5 -23.5t45.5 -23.5q43 -18 100 -25l29 238l2 37q0 80 -35 118.5t-106 38.5q-33 0 -60.5 -14t-49 -41t-30 -54.5t-10.5 -37.5t-2 -35z M1880 55h264l51 453l-71 -49l-66 -39l-76 -37l-65 -27z" />
<glyph unicode="]" horiz-adv-x="501" d="M-152 889v59h740l-23 -59h-157l-119 -1041h-244l119 1041h-244h-72z" />
<glyph unicode="^" horiz-adv-x="2091" d="M29 436q0 221 74.5 413.5t230.5 360.5q143 160 307 244q84 41 164 61.5t172 20.5q180 0 342 -45q84 -23 154.5 -53.5t150.5 -79.5q158 -98 249 -229.5t112 -297.5v-22l4 -33l2 -37l2 -32q0 -23 -1 -47.5t-7.5 -68.5t-24.5 -81q-18 -45 -52 -69.5t-75 -24.5 q-39 0 -69.5 17.5t-49.5 49.5l-22 62l-9 80q0 49 9.5 81.5t31.5 65.5q16 23 43 43l66 41q-25 111 -95.5 198t-185 150.5t-238.5 94t-265 30.5l-72 -2q-178 0 -328.5 -66.5t-280.5 -201.5t-196 -293q-31 -78 -47 -159t-16 -171q0 -152 49 -295t149 -274q111 -147 250 -222 t303 -75l25 -2q109 0 207 47t192 143q78 84 117 170t39 164l2 92q0 41 -2 77t-10.5 79t-26 72.5t-48 47t-75.5 23.5l-25 2q-35 0 -69.5 -11t-57.5 -34l-32 -41q-8 -14 -17 -43l-43 -348h-243l127 953h243l-59 -453q18 25 47 47.5t66 36.5l69 24l74 9q88 0 155.5 -34 t119 -101.5t79 -160.5t27.5 -194q0 -145 -68.5 -266t-212.5 -227q-127 -90 -278 -138q-70 -23 -148 -35t-162 -12q-186 0 -340.5 78t-275.5 232q-106 137 -170 309q-29 86 -43 172t-14 188zM1763 625l2 -41l7 -47q2 -23 18 -41q16 -12 43 -13q20 0 36.5 12.5t24.5 36.5l4 27 l7 53l2 47q0 29 -4.5 48.5t-10.5 34t-20 22.5l-29 8q-25 0 -42 -13.5t-29 -41.5l-7 -35z" />
<glyph unicode="_" horiz-adv-x="2111" d="M29 209q-1 157 24 280t76 203q35 59 85 93t105 34q35 0 58.5 -9t50.5 -29.5t39 -46t12 -54.5q0 -41 -10 -73t-31.5 -52t-58.5 -37q-35 -10 -72 -10l-55 6l-39 18l-29 27l-12 33l-29 -62l-24 -84l-17 -100l-4 -104l2 -45q0 -82 8.5 -142.5t30.5 -130.5q37 -121 116 -209 t186.5 -133t234.5 -45l16 -2q94 0 174 35t153 103.5t108.5 149.5t35.5 165v12h242q0 -123 -57.5 -222.5t-176.5 -178.5q-102 -70 -230 -106t-265 -36q-141 0 -261 56.5t-209 166t-133 240.5t-44 289zM225 666l4 -29l15 -27q10 -14 22 -18l31 -4h10l27 6q12 6 20 20l15 27 l4 31q0 18 -4 28l-15 27q-6 12 -18 18.5t-29 6.5q-21 -1 -37 -9l-24 -18l-17 -29zM504 0l129 948h239l-116 -893h407l80 650q0 27 6 46t21 46q23 39 67 84q41 37 90 59q23 8 50.5 14.5t54.5 6.5q109 0 190.5 -46.5t157.5 -142.5q61 -86 94 -183t33 -198q0 -199 -76 -295 q-74 -96 -223 -96h-1204zM1405 55h315q41 0 78 23.5t67.5 74t46 108.5t15.5 120q0 84 -20 154q-18 76 -59.5 146.5t-95.5 110t-116 39.5q-33 0 -60.5 -12t-42.5 -29.5t-24 -39.5l-10 -45z" />
<glyph unicode="`" horiz-adv-x="991" d="M25 356q0 78 44 148.5t132 130.5l104 57l244 121q104 51 166.5 101.5t85.5 101.5l18 55l6 51q0 47 -19.5 84t-55.5 72q-35 29 -82 45q-23 8 -43.5 12t-46.5 4h-23q33 -6 58.5 -25.5t44 -45t26.5 -53t12 -70.5q0 -51 -20.5 -94t-58 -74t-85 -48.5t-100.5 -17.5 q-39 0 -57.5 2t-54 15.5t-67.5 46.5t-50 84q-14 53 -15 108q0 33 6.5 57.5t22.5 51.5q27 45 86 84q51 31 121 51.5t143 20.5q49 0 95.5 -6.5t91.5 -20.5q84 -25 151.5 -76t103 -132t35.5 -181q0 -86 -52 -162t-163 -139l-200 -99l-197 -94q-106 -55 -159.5 -124.5 t-53.5 -145.5q0 -37 28.5 -74t94.5 -76q49 -29 107 -45q31 -6 55 -10t51 -4q71 0 143 12q76 12 138 41q35 14 69.5 32.5t59.5 39.5q53 45 79 96l13 4l18 -2l19 -6q10 -4 14 -10l4 -10q-16 -31 -34.5 -54.5t-49.5 -50.5q-55 -45 -127 -80q-74 -31 -164 -48t-182 -17t-127 4 t-92 18q-96 25 -166 74t-111 121q-35 70 -34 149zM264 1153l6 -59q6 -25 19.5 -45.5t35 -32.5t48.5 -12q23 0 41 11t30.5 32.5t18.5 46.5l6 57q0 33 -8 57l-19 52q-12 20 -29.5 32.5t-39.5 12.5q-22 -1 -47 -13q-18 -8 -33 -32l-23 -50z" />
<glyph unicode="a" d="M29 160l102 788h246l-92 -708q0 -37 20.5 -58.5t59.5 -21.5q22 0 51 20q31 18 63.5 61.5t51 84.5t18.5 77l72 545h243l-116 -893h624l117 893h240l-125 -948h-1112l24 160q-33 -45 -70 -74q-16 -16 -33.5 -27.5t-38 -21.5t-32.5 -14.5t-53 -14.5l-109 -8 q-25 0 -50.5 13.5t-53 44t-35.5 50t-12 52.5z" />
<glyph unicode="b" horiz-adv-x="1648" d="M37 717v22q0 176 60.5 323.5t183 275.5t264.5 192q72 33 145.5 49t157.5 16q188 0 326.5 -47t226.5 -145q63 -74 100 -189.5t37 -261.5v-12v-12l-2 -17v-16l-2 -49l-6 -74l-80 -772h-80l80 809l2 37q0 55 -8 96t-33 90q-41 88 -124 164t-194.5 116t-242.5 40 q-141 0 -268 -45t-238 -136.5t-168 -205t-57 -238.5t32.5 -237.5t96 -201.5t143.5 -138q84 -45 174 -46h17q-55 55 -85 129t-30 158q0 66 18.5 127.5t60.5 108.5t102.5 73.5t129.5 26.5q63 0 111 -22q51 -20 102 -70q51 -45 74.5 -95.5t23.5 -111.5v-6q0 -98 -32 -176 q-31 -82 -97 -135q-59 -53 -145 -84q-86 -27 -184 -27q-143 0 -252 59.5t-197 184.5q-68 96 -105.5 219t-37.5 254zM520 377q0 -49 10.5 -83t29 -62.5t50.5 -49.5q33 -14 66 -14q43 0 78 20q33 18 57 62q18 33 27.5 79t9.5 99q0 29 -9.5 54.5t-17.5 41t-20 29.5 q-20 29 -45 42t-60 17q-35 0 -71 -18q-31 -18 -58 -53q-25 -39 -36 -79t-11 -85z" />
<glyph unicode="c" horiz-adv-x="1880" d="M29 147q0 33 13 56.5t44 43t81 31t105 11.5h185q82 0 150.5 20.5t132 65.5t94 100t30.5 125q0 76 -26.5 137.5t-83.5 116.5q-47 45 -108.5 69.5t-129.5 24.5l-41 -4l-47 -14l-45 -19q-20 -10 -31 -22q43 -6 81 -25.5t66.5 -51.5t43.5 -75q16 -39 16 -82v-8 q0 -49 -19.5 -89t-56.5 -77q-39 -33 -84 -49t-92 -16q-49 0 -88 17.5t-76 53.5q-31 37 -51 78q-8 23 -12 43.5t-4 46.5q0 94 42 166t126 123q68 41 151.5 62.5t175.5 21.5q53 0 98.5 -6t94.5 -23q92 -25 171 -83t124 -133.5t45 -170.5v-24q0 -82 -25.5 -145.5t-81 -111.5 t-151.5 -79q-90 -25 -213 -25h-314l-47 -6l-41 -14q-18 -10 -30 -27l-8 -37q0 -20 9 -34.5t38 -32.5l39 -17l40 -4h1473l-41 -55h-1491q-51 0 -84 7t-45 11.5t-38.5 20.5t-47.5 43q-16 29 -16 65zM156 655q0 -27 4 -43l16 -41q10 -18 25 -30l35 -9h8q20 0 37.5 9.5 t29.5 27.5l21 37l8 41v8q0 27 -7 44.5t-22 35.5l-30 21l-35 8q-20 0 -35.5 -7t-29 -20.5t-19.5 -36.5z" />
<glyph unicode="d" horiz-adv-x="2240" d="M43 436q0 102 44 190.5t137 169.5t212 123t256 42q33 0 63.5 -2.5t61.5 -8.5q57 -6 113 -24q35 -10 51 -16.5t49 -23t51.5 -26.5t42.5 -29q39 27 86 52l82 37l86 20l99 8h706l-22 -59h-244l-117 -889h-239l110 889h-207q-31 0 -43 -1t-37 -9q-37 -8 -79 -31l-60 -35 l-45 -37q41 -41 78 -90q29 -39 59 -100q8 -20 16.5 -44t19.5 -67t11 -94q0 -43 -4 -72.5t-18 -68.5q-18 -66 -62.5 -126.5t-99.5 -92t-117 -31.5q-53 0 -98 23.5t-79 80t-52 121.5q-16 72 -16 147l2 41q0 20 2 43t10 53.5t35 82.5l20 36l25 39l29 37l34 37q-29 35 -67 64 l-78 45l-88 24q-43 8 -53 10h-41q-96 0 -188.5 -30.5t-177.5 -93t-134 -144.5q-43 -78 -43 -170v-8l6 -66q2 -16 8 -35.5t16.5 -50t12.5 -33.5t15.5 -24.5t31.5 -34.5l-2 13l-4 20l-2 23v30q0 23 1 51.5t17.5 76.5t49 95.5t84 71t112.5 23.5q53 0 92 -23q41 -18 74 -63 q27 -39 47 -94q16 -53 16 -109q0 -70 -19 -126t-60 -97q-35 -41 -95 -66q-61 -20 -127 -20q-80 0 -143 31.5t-114.5 101.5t-75 147.5t-23.5 165.5zM285 289l6 -60l18 -53q12 -25 25.5 -38t34.5 -13q18 0 34.5 9t28.5 28l21 43l8 59l-6 72q-2 31 -12.5 52.5t-26 34.5 t-39.5 13q-21 0 -37 -10q-12 -8 -26.5 -28.5t-22.5 -51.5zM920 349q0 -19 4 -46l18 -76q12 -29 31 -51q16 -12 43 -16q30 0 53 16q25 18 40 53t24 78l8 96l-6 72q-4 27 -7.5 38t-11.5 38t-24 53q-12 33 -35 60l-58 -64q-25 -31 -41 -63.5t-30 -75.5l-8 -70v-42z" />
<glyph unicode="e" horiz-adv-x="1243" d="M-129 -313q-1 8 -1 17q0 38 19 73q18 39 56 76q37 31 82 49q49 16 108 16l393 -2q74 0 142 37q68 33 122 95.5t80 129.5q6 14 16.5 57.5t10.5 88.5q0 39 -11 75.5t-32.5 69.5t-45.5 47t-58 19q-25 0 -50.5 -12.5t-54.5 -39.5l-59 -483h-244l117 889h-246l-115 -889h-80 l115 948h834l-25 -59h-244l-41 -326q41 41 86.5 62.5t96.5 21.5q57 0 107 -22.5t97.5 -68.5t71 -103.5t23.5 -120.5q0 -117 -36 -208t-103.5 -146.5t-165 -85t-215.5 -29.5l-369 -2l-51 -6q-20 -6 -47 -25q-18 -16 -31 -37q-10 -25 -10 -47q0 -14 8 -31l31 -43l12 -20l4 -23 q0 -33 -10 -59q-6 -29 -25.5 -49.5t-48.5 -32.5q-16 -6 -26.5 -8t-37.5 -2q-39 0 -67.5 13t-46 40t-26.5 67t-9 89z" />
<glyph unicode="f" horiz-adv-x="1476" d="M33 332q0 51 15 92t47 72.5t85 50.5q25 8 52.5 12t66.5 4h45l47 385h834l-25 -59h-239l-46 -326h76q27 0 60.5 -1t81.5 -15q66 -14 119 -50t82.5 -93.5t29.5 -127.5q0 -57 -23 -108q-18 -49 -61 -92t-94 -64.5t-103 -21.5l-34 4l-39 6l-37 12q-14 6 -25 21v114 q37 1 72 13q31 12 51.5 36.5t32.5 57.5t12 70q0 35 -10 66.5t-32.5 60t-57.5 43t-68 14.5h-41l-18 -152q-10 -90 -47 -158.5t-103 -121.5q-51 -41 -121 -66q-68 -20 -135 -20q-109 0 -191.5 19.5t-139.5 66.5q-55 41 -91 106q-28 66 -28 145v5zM113 332q0 -53 18.5 -99.5 t57 -77t92.5 -49.5q27 -6 53 -10t57 -4q45 0 85 17.5t78 54.5t61.5 86t31.5 106l17 152h-388q-36 0 -65 -10q-27 -8 -51 -31q-25 -18 -34 -46t-11 -43.5t-2 -45.5zM432 563h240l45 326h-246z" />
<glyph unicode="g" horiz-adv-x="1564" d="M16 0l127 948h244l-115 -893h844l117 893h244l-129 -948h-1332z" />
<glyph unicode="h" horiz-adv-x="1036" d="M20 0l115 948h834l-25 -59h-244l-112 -889h-244l117 889h-246l-115 -889h-80z" />
<glyph unicode="i" horiz-adv-x="2111" d="M43 436q0 102 44 190.5t137 169.5t212 123t256 42q33 0 63.5 -2.5t61.5 -8.5q57 -6 113 -24q35 -10 51 -16.5t49 -23t51.5 -26.5t42.5 -29l88 56l82 41l80 24l82 9q111 0 201 -35q92 -31 172 -99.5t120 -155.5t40 -188q0 -84 -31 -170t-92.5 -165.5t-125 -117.5 t-130.5 -38q-23 0 -35 4l-27 4v80q37 12 72 47q18 18 30.5 35.5t38 64.5t40.5 109q8 31 12 59.5t4 65.5q0 98 -23 168q-20 70 -65 129t-99.5 89t-119.5 30q-29 0 -58 -11q-29 -6 -69 -24l-68 -33l-43 -33q41 -41 78 -90q29 -39 59 -100q8 -20 16.5 -44t19.5 -67t11 -94 q0 -43 -4 -72.5t-18 -68.5q-18 -66 -62.5 -126.5t-99.5 -92t-117 -31.5q-53 0 -98 23.5t-79 80t-52 121.5q-16 72 -16 147l2 41q0 20 2 43t10 53.5t35 82.5l20 36l25 39l29 37l34 37q-31 35 -66.5 61.5t-75.5 43t-85 24.5t-55 10h-41q-98 0 -193.5 -30.5t-178.5 -90 t-129 -140.5t-46 -173v-8l6 -66q2 -16 8 -35.5t16.5 -50t12.5 -33.5t15.5 -24.5t31.5 -34.5l-2 13l-4 20l-2 23v30q0 23 1 51.5t17.5 76.5t49 95.5t84 71t112.5 23.5q53 0 92 -23q41 -18 74 -63q27 -39 47 -94q16 -53 16 -109q0 -70 -19 -126t-60 -97q-35 -41 -95 -66 q-61 -20 -127 -20q-80 0 -143 31.5t-114.5 101.5t-75 147.5t-23.5 165.5zM285 289l6 -60l18 -53q12 -25 25.5 -38t34.5 -13q18 0 34.5 9t28.5 28l21 43l8 59l-6 72q-2 31 -12.5 52.5t-26 34.5t-39.5 13q-21 0 -37 -10q-12 -8 -26.5 -28.5t-22.5 -51.5zM920 349q0 -19 4 -46 l18 -76q12 -29 31 -51q16 -12 43 -16q31 0 54.5 17.5t38.5 52t24 77.5l8 96l-6 72q-4 27 -7.5 38t-11.5 38t-24 53q-12 33 -35 60l-58 -64q-25 -31 -41 -63.5t-30 -75.5l-8 -70v-42z" />
<glyph unicode="j" horiz-adv-x="1456" d="M-70 -313q0 47 18.5 89t51.5 77q39 33 88 49t105 16l591 -2q66 0 121 29q57 25 101.5 74t67 108t22.5 125q-1 65 -11 104q-8 45 -28.5 80t-50.5 53q-25 18 -62 19h-37l-18 -152q-12 -86 -49 -156.5t-103 -123.5q-51 -39 -119 -66q-68 -20 -135 -20q-109 0 -191.5 19.5 t-139.5 66.5q-55 41 -91 106q-28 66 -28 145v5q0 55 13 93t46 70.5t84 51.5q25 8 52.5 12t68.5 4h43l47 385h838l-25 -59h-244l-41 -326h76q68 0 126.5 -17.5t111.5 -57t81.5 -97t28.5 -125.5v-14q0 -72 -23.5 -139.5t-76.5 -127t-130 -91t-165 -31.5l-637 -2l-51 -6 q-20 -6 -47 -25q-18 -16 -31 -37q-6 -16 -10 -47l6 -31q8 -18 23 -30l22 -29l8 -27q0 -33 -10 -61.5t-27.5 -48t-50.5 -31.5q-16 -6 -26.5 -8t-36.5 -2q-43 0 -68.5 12t-43 40t-25.5 67zM113 332q0 -56 20 -103q16 -39 62 -77q37 -31 84 -46q25 -6 51 -10t57 -4 q45 0 85 17.5t78 54.5t61.5 86t31.5 106l21 152h-392q-37 0 -63.5 -9.5t-48 -28.5t-37.5 -58q-6 -18 -8 -34t-2 -46zM428 563h244l41 326h-242z" />
<glyph unicode="k" horiz-adv-x="1624" d="M29 0l127 948h239l-114 -893h407l80 650q0 45 24.5 89t69.5 89q39 37 90 57q23 8 50.5 14.5t54.5 6.5q109 0 190.5 -46.5t157.5 -142.5q61 -86 94 -183t33 -198q0 -199 -75 -295t-224 -96h-1204zM928 55h311q47 0 84 23q35 23 70 74q29 49 44 107t15 122q0 84 -20 154 q-18 76 -59.5 146.5t-97.5 110t-116 39.5q-29 0 -57.5 -12t-44 -29.5t-23.5 -39.5l-10 -45z" />
<glyph unicode="l" d="M41 0l127 948h244l-115 -893h1432l-21 -55h-1667z" />
<glyph unicode="m" horiz-adv-x="2387" d="M25 125q0 41 11 72.5t35.5 55t59.5 36.5q33 8 50.5 9t27.5 1h1298l4 20l11 31l4 37l2 49q0 90 -23 160q-20 70 -65 136.5t-98.5 99t-110.5 32.5h-14q29 -12 49 -36.5t39 -65.5q12 -33 18 -66l8 -59q0 -53 -19.5 -100.5t-57 -85t-86 -60t-93.5 -22.5q-53 0 -99 18.5 t-79 57t-51 87.5q-6 23 -10.5 49.5t-4.5 55.5q0 63 32 119.5t98 103.5q33 23 64.5 39t76.5 33q75 24 159 24h7q109 0 196.5 -36.5t165.5 -118.5q68 -74 103.5 -164t35.5 -195v-28q0 -16 -3 -41t-5 -38t-10 -36h205l80 578h243l-163 -1121h-240l68 484h-203 q-37 -123 -124 -216.5t-226 -160.5q-121 -57 -268.5 -87t-313.5 -30q-131 0 -262 25.5t-244 70.5q-141 57 -209.5 127t-68.5 156zM104 125q0 -66 55.5 -120t168.5 -99q92 -37 221 -60q53 -8 122.5 -14t137.5 -6q115 0 215 26.5t199.5 83t162.5 132.5q66 72 107 172h-1274 q-57 0 -86 -29t-29 -86zM913 621q0 -25 5 -39l12 -35l22 -25l31 -14l21 -2q20 0 36.5 11t30.5 36l16 39l13 45v20q0 27 -4 41l-11 35l-18 27q-10 10 -27 12l-16 2q-23 0 -47 -12q-16 -12 -35 -35l-22 -51z" />
<glyph unicode="n" horiz-adv-x="1540" d="M29 819q0 145 63.5 272.5t189.5 233t280.5 158.5t334.5 53q174 0 289 -29q125 -25 203 -82q70 -49 106.5 -122.5t36.5 -169.5q0 -55 -19.5 -100.5t-56.5 -88.5q-35 -35 -83 -57.5t-97 -22.5q-61 0 -111.5 23.5t-97.5 70.5q-43 47 -66.5 101.5t-23.5 111.5v9q0 41 12 80.5 t37 75.5t56.5 61.5t66.5 34.5q39 0 68 -11q33 -8 38 -10t33 -18q-23 -6 -43 -28t-37.5 -55.5t-27.5 -70.5l-9 -59v-9q0 -41 12.5 -79.5t33 -73.5t47 -52.5t59.5 -17.5q29 0 51.5 16.5t44.5 55.5l25 63l8 72q0 88 -47 148q-43 61 -135 98q-61 25 -164 41q-45 6 -98.5 10 t-110.5 4q-113 0 -215 -50t-204.5 -150.5t-156 -218t-53.5 -240.5q0 -68 6.5 -126.5t22.5 -121.5q31 -113 95.5 -224.5t162.5 -179t225 -90.5l72 -4h29h22q16 4 25 4l76 13q41 6 69 22q37 14 64 35q-55 12 -100.5 37.5t-78 62.5t-47 78t-14.5 78q0 74 18.5 130t53.5 89 t80 50.5t100 17.5q63 0 111 -21q45 -16 90 -61q37 -39 57 -90q8 -23 14 -50.5t6 -56.5v-8q0 -88 -31.5 -152.5t-105 -117t-205 -82t-305.5 -29.5t-310 56.5t-235.5 171t-154.5 266.5q-23 70 -37 155.5t-14 169.5zM1137 381l6 -64l18 -57q12 -23 31 -39q18 -12 41 -12 q31 0 49 10q23 14 36 32.5t23 53.5l9 62q0 37 -11 65q-6 29 -23.5 56.5t-41.5 37.5q-25 14 -53 15q-20 0 -37 -10.5t-27 -28.5l-16 -49z" />
<glyph unicode="o" horiz-adv-x="1796" d="M20 0l127 948h240l-115 -893h1436l-25 -55h-1663zM528 403q0 90 23.5 158t68 113t107.5 74q59 24 131 24h6q70 0 123 -22q53 -18 107 -62q43 -37 69.5 -92t26.5 -121l-2 -39l-127 -948h-246l117 893l4 51q0 49 -10 82q-6 35 -24.5 66.5t-49.5 49t-68 17.5q-43 0 -77 -22 q-27 -16 -54 -62q-14 -31 -24 -74l-8 -86q0 -76 13 -138t45 -112.5t77 -74.5q49 -23 108 -23h-184q-29 20 -59 60q-27 39 -50 88l-32 102q-10 55 -11 98z" />
<glyph unicode="p" horiz-adv-x="92" d="M-616 1247q0 72 30.5 136.5t88 108.5t130 67.5t148.5 23.5q41 0 77 -6t72 -23q70 -29 119 -83t77 -134t28 -168l-7 -94l-79 -672h-80l80 662l2 35q0 61 -21 104q-18 49 -59 80q-35 33 -90.5 50.5t-118.5 17.5q-47 0 -93 -17.5t-90 -50.5t-65 -74q-8 -16 -14 -36.5 t-6 -40.5l6 -62l18 -55q14 -27 34.5 -42.5t55.5 -25.5l68 -16l-21 -39q-2 2 -22.5 2h-34.5q-20 0 -32.5 2t-33 11.5t-38 17.5t-31.5 21.5t-29 27.5q-33 45 -41 57t-12 36t-8 46l-6 55z" />
<glyph unicode="q" horiz-adv-x="2748" d="M31 477q0 90 14 154q12 70 45 117q23 35 55 65q27 23 70 35l35 4q29 0 53.5 -7t47 -21.5t36.5 -35.5l21 -40l6 -52q0 -63 -34 -102t-108 -53l-39 -4q-43 0 -69.5 13t-38.5 46l-12 -55l-2 -82l6 -146q2 -31 8 -63.5t14 -61.5q49 -178 164 -311t295 -221 q141 -70 323.5 -105.5t387.5 -35.5q209 0 402.5 48t361.5 142t251.5 201.5t83.5 218.5l2 37q0 55 -12 107.5t-32.5 89t-40 51t-46.5 18.5q-31 0 -47 -4l-41 -10l-34 -19l-25 -26l-47 -369h-246l117 889h-244l-117 -889h-243l80 588q-16 72 -52 125q-29 49 -86 90 q-45 33 -103 49t-122 16q-98 0 -180 -28.5t-156 -89t-113.5 -141.5t-39.5 -173l6 -65q2 -14 8 -38t14 -42l31 -70q16 -27 33 -37l-6 29l-2 20v17v22q0 25 1 53.5t15 69.5q14 51 49 103q35 43 82 67q51 23 113 23q55 0 94 -23q41 -18 74 -63q27 -39 47 -94q16 -53 16 -109 q0 -68 -19.5 -126t-57.5 -100t-97 -62.5t-125 -20.5q-80 0 -142.5 31.5t-117.5 101.5q-49 68 -74.5 146.5t-25.5 166.5q0 121 47 214t147 171q88 68 195.5 101.5t226.5 33.5q82 0 146.5 -13t134.5 -44q35 -14 61.5 -30.5t54.5 -41.5q47 -41 90 -102l33 223h832l-25 -59h-239 l-56 -428q12 12 20.5 19t28 20.5t34 19.5t24.5 10l57 17l64 6q57 0 106 -25.5t88 -75t60 -122.5q10 -35 16 -77t6 -91v-37q0 -135 -88 -256t-274.5 -223.5t-429 -156.5t-535.5 -54h-33q-106 0 -227 16q-129 16 -259 52t-247 98q-109 53 -207 135q-104 88 -178 203 q-33 55 -57.5 113.5t-44.5 131.5l-19 80l-10 76l-6 70zM158 698l2 -18q6 -31 24 -49q23 -14 49 -15q18 0 29 5l25 16l16 22q6 12 6 33l-2 21q0 16 -10 26l-16 19l-21 12l-22 4l-31 -6l-27 -16q-12 -8 -18 -25zM739 289l6 -60l19 -53q12 -25 25.5 -38t29.5 -13q20 0 37.5 9 t30.5 28l20 43l8 59l-6 74q-2 31 -14 53q-6 20 -23.5 32.5t-40.5 12.5q-16 0 -33.5 -11t-30.5 -30.5t-22 -50.5z" />
<glyph unicode="r" horiz-adv-x="1292" d="M33 332q0 55 13 93t46 70.5t84 51.5q25 8 52.5 12t68.5 4h43l47 385h838l-25 -59h-244l-41 -326h285l-24 -55h-269l-18 -152q-12 -86 -49 -156.5t-103 -123.5q-51 -39 -119 -66q-68 -20 -135 -20q-109 0 -191.5 19.5t-139.5 66.5q-55 41 -91 106q-28 66 -28 145v5z M113 332q0 -55 18.5 -98.5t63.5 -81.5q37 -31 84 -46q25 -6 51 -10t57 -4q45 0 85 17.5t78 54.5t61.5 86t31.5 106l21 152h-392q-36 0 -63 -10q-27 -8 -48.5 -27.5t-37.5 -58.5q-6 -18 -8 -34t-2 -46zM428 563h244l41 326h-242z" />
<glyph unicode="s" horiz-adv-x="2072" d="M37 436q0 121 48 215t144 170q84 66 192.5 100.5t225.5 34.5q59 0 81 -3t63 -13q70 -12 134 -42t119.5 -73t96.5 -100l30 223h834l-25 -59h-243l-117 -889h-240l115 889h-244l-114 -889h-244l80 588q-16 72 -47 119q-27 51 -70 89t-108 60q-25 8 -61 14.5t-71 6.5h-18 q-92 0 -176 -37t-162 -111q-68 -66 -108 -143q-35 -74 -35 -150v-33q6 -23 8 -34t8 -34.5t17.5 -54t29 -58t33.5 -38.5l-6 31l-2 21v16v22q0 45 2 64.5t15.5 63.5t47.5 96q35 43 82 67q51 23 113 23q55 0 94 -23q41 -18 74 -63q27 -39 47 -94q16 -53 16 -109 q0 -70 -19.5 -126t-60.5 -97q-35 -41 -94 -66q-61 -20 -127 -20q-80 0 -144.5 31.5t-115.5 101.5t-74.5 147.5t-23.5 165.5zM281 289q0 -42 4 -62l18 -53q12 -27 25.5 -38t31.5 -11t36 9t30 27.5t18 43.5l9 59l-7 72q-4 33 -14 55q-6 20 -24 33q-12 12 -35 12 q-20 0 -34.5 -9t-29 -29.5t-22.5 -51.5z" />
<glyph unicode="t" horiz-adv-x="1988" d="M20 436q0 100 42 186.5t125 167t190.5 126t234.5 45.5q131 0 242 -38t191.5 -108t123.5 -168t43 -219q0 -29 -2 -59.5t-10 -72.5t-28.5 -90t-43 -84t-53.5 -67h473l117 893h244l-129 -948h-1020v55q49 31 90 72q33 37 65 94q23 49 39 109q6 31 10.5 57.5t4.5 61.5 q0 90 -22.5 161.5t-69.5 130.5q-49 68 -120 102t-157 34h-18q-92 0 -175 -36t-161 -112q-66 -66 -107 -143q-35 -74 -35 -150l7 -65q2 -14 8 -38t14 -42l31 -70q16 -27 33 -37l-7 31l-2 21v16v22q0 45 2.5 64.5t15.5 63.5t48 96q35 43 82 67q51 23 113 23q55 0 94 -23 q41 -18 73 -63q27 -39 48 -94q16 -53 16 -109q0 -68 -19.5 -126t-60.5 -99q-37 -43 -94 -63.5t-125 -20.5q-80 0 -144.5 32.5t-116.5 101.5t-77 144q-23 80 -23 168zM264 289q0 -41 4 -62l19 -53q12 -27 25.5 -38t31.5 -11t35.5 9t30 27.5t18.5 43.5l8 59l-6 72 q-4 33 -14 55q-6 20 -25 33q-12 12 -35 12q-20 0 -34.5 -9t-28.5 -29.5t-23 -51.5z" />
<glyph unicode="u" horiz-adv-x="1036" d="M-16 -293q31 66 62.5 116t73.5 101t103 109l142 127l96 729h-246l-115 -889h-80l115 948h834l-25 -59h-244l-108 -834q-80 -23 -164 -61q-72 -37 -145 -94q-29 -23 -56.5 -48.5t-58.5 -56.5l-125 -141z" />
<glyph unicode="v" horiz-adv-x="1687" d="M33 436q0 98 42 183.5t130 166t193.5 121.5t226.5 41h1003l-20 -59h-244l-117 -889h-243l116 889h-495q-90 0 -179.5 -36t-170 -105.5t-123.5 -149.5q-18 -39 -28.5 -79t-10.5 -83v-33q6 -23 8 -34t8 -34.5t17.5 -54t29 -58t33.5 -38.5l-6 31l-2 21v16v22q0 45 2 64.5 t15 63.5t48 96q35 43 82 67q51 23 113 23q55 0 94 -23q41 -18 74 -63q27 -39 47 -94q16 -53 16 -109q0 -70 -19.5 -126t-60.5 -97q-35 -41 -94 -66q-61 -20 -127 -20q-80 0 -144.5 31.5t-115.5 101.5t-74.5 147.5t-23.5 165.5zM276 289q1 -42 5 -62l18 -53q12 -27 25.5 -38 t31.5 -11t36 9t30 27.5t18 43.5l9 59l-7 72q-4 33 -14 55q-6 20 -25 33q-12 12 -34 12q-20 0 -35 -9t-29 -29.5t-22 -51.5z" />
<glyph unicode="w" horiz-adv-x="1456" d="M-18 -313q0 47 17 89t54 77q37 31 86 49q53 16 109 16l311 -2q119 0 211 33q94 27 168 86t114 149t40 197l2 78q0 80 -9.5 133t-17.5 81.5t-20 55.5q-25 49 -59 75.5t-81 26.5q-39 0 -76.5 -21.5t-81.5 -70.5t-73 -110q-10 -27 -19.5 -58.5t-15.5 -74.5l-57 -488v-8h-244 l80 588l4 55q0 43 -8 74q-6 39 -23 61q-12 25 -31.5 37t-46.5 16q-33 0 -58.5 -16t-43.5 -50t-30.5 -78t-18.5 -99l-68 -588h-80l80 655q4 43 8.5 63.5t20.5 55.5q25 57 63.5 98t83.5 65t93 24q53 0 93 -15.5t81 -50.5q35 -29 65 -76q10 -14 23.5 -39.5t23.5 -52.5 q16 45 48 89t77 77t92 51q25 8 45.5 12.5t51.5 4.5q80 0 149.5 -35t119.5 -108t75.5 -175t25.5 -221v-41q0 -70 -12 -128t-41 -112q-49 -98 -154 -166q-80 -51 -195.5 -81.5t-244.5 -30.5l-323 -2l-54 -6q-20 -6 -47 -25q-18 -16 -31 -37q-6 -16 -10 -47l2 -16l4 -17l9 -14 l14 -16l20 -29l9 -25q0 -35 -11 -57q-10 -31 -28.5 -50.5t-45 -31.5t-65.5 -12q-41 0 -70.5 13t-46.5 42l-22 66q-10 41 -10 88z" />
<glyph unicode="x" d="M41 410l2 39q0 100 61.5 191t183.5 166t271 116q72 18 146.5 28.5t158.5 10.5q186 0 331.5 -39t262.5 -120t177.5 -183.5t60.5 -227.5v-26q0 -98 -28 -168t-87 -119q-43 -35 -108 -60q-59 -18 -134 -18q-55 0 -98 19.5t-77 59.5t-56 91q-8 25 -12 47.5t-4 50.5l4 43 q-27 0 -46.5 -10t-36 -28.5t-24.5 -45.5l-8 -55q0 -27 2 -52.5t8 -49.5q14 -47 37 -79t69 -64.5t115 -63.5l357 -2l-21 -62h-323l-58 -6q-25 -6 -47 -22l-33 -33q-8 -14 -16 -39q-12 -72 -49 -131q-29 -55 -85 -101.5t-141 -70t-188 -23.5q-84 0 -150.5 18.5t-129.5 57.5 q-57 39 -86 90q-6 14 -16.5 45t-10.5 70l2 39q0 20 4 31l8 26l11 21l79 -15l-8 -22l-10 -33l-4 -16v-17v-16q0 -18 6 -33.5t23.5 -43.5t59.5 -57.5t91 -43.5q27 -8 51.5 -12.5t59.5 -4.5q41 0 81 19.5t79.5 58.5t59 74t28 75t26 67.5t51.5 49.5q18 12 37 18.5t31 10.5l80 8 q-41 29 -76 74q-27 33 -53 82l-33 86q-10 51 -10 92q0 76 30.5 132t88.5 97q47 33 109.5 51.5t137.5 18.5l-26 -43l-19 -47l-12 -51l-2 -54q0 -33 7 -58t24.5 -46.5t42.5 -36.5q18 -6 57 -10q33 0 57.5 14.5t39 44t24.5 86.5l8 121q0 100 -39 184q-35 82 -117.5 159 t-194.5 116t-241 39q-133 0 -247.5 -32t-220 -93.5t-174 -140t-97.5 -174.5l-6 -39v-25.5t8 -36.5q2 -14 8 -30.5t15 -34.5l32 -56l33 -30l-4 20l-2 21l-2 20v23q0 45 2 66.5t17.5 66.5t48 92t84 70.5t112.5 23.5q53 0 92 -22q41 -18 74 -64q27 -39 47 -94q16 -53 16 -109 q0 -68 -19 -126t-60 -99q-35 -41 -95 -66q-61 -20 -127 -20q-78 0 -138 28.5t-118 92.5q-45 55 -77 131q-25 74 -25 158zM285 299l6 -61l18 -54q12 -27 25.5 -38t34.5 -11q18 0 34.5 9.5t28.5 27.5l21 45l8 59l-6 72q-2 31 -12.5 52.5t-26 35t-39.5 13.5q-18 0 -33.5 -10.5 t-30 -31t-22.5 -51.5z" />
<glyph unicode="y" d="M33 449q0 100 40 185t124 167t190.5 127t233.5 45q49 0 92 -6t90 -21q84 -25 153 -80q68 -49 104 -118.5t36 -147.5l-13 -80l-8 -76l-6 -69l-2 -56q0 -55 9 -94t29.5 -67.5t57.5 -48.5q39 -16 92 -17q74 0 135.5 35t120.5 106q49 61 78 138q27 80 27 149v21q0 82 -23 139 q-18 59 -61 100q-10 8 -33.5 22.5t-46.5 24.5q-47 23 -113 37q-25 0 -36 4l-25 19l-14 24l-4 33q0 20 4 31l18 26q14 14 29 19l37 8q88 0 153.5 -38t112.5 -118q41 -68 61.5 -164t20.5 -200q0 -84 -33 -168q-14 -39 -39 -80t-57 -82q-76 -94 -170 -141t-209 -47 q-92 0 -151.5 17.5t-102.5 53.5q-49 43 -74.5 120t-25.5 188v45t4 55l14 119l2 33q0 49 -19.5 95t-62.5 89q-37 41 -82 61q-41 23 -82 23q-94 0 -182 -37t-164 -106.5t-112.5 -144.5t-36.5 -152l6 -66q2 -14 8 -35.5t14 -42.5l31 -72q16 -27 33 -36l-6 28l-2 21v16v23 q0 45 2 64.5t17 64.5t48 92t84 70.5t113 23.5q53 0 92 -22q41 -18 72.5 -62.5t49 -96.5t17.5 -108q0 -68 -19.5 -126t-60.5 -99q-35 -41 -96 -66q-61 -20 -129 -20q-80 0 -142.5 31.5t-113.5 98.5t-76 146q-22 80 -22 166v7zM272 299l7 -61l18 -54q12 -27 25.5 -38t33.5 -11 q18 0 35 9.5t29 27.5l20 45l9 59l-7 70q-4 33 -13 54.5t-24.5 35t-35.5 13.5q-18 0 -36 -11.5t-32 -34.5l-22 -49z" />
<glyph unicode="z" horiz-adv-x="2936" d="M29 436q0 98 44 187.5t138 171.5t211 125q59 20 119.5 30.5t134.5 10.5q33 0 63.5 -2.5t61.5 -8.5q57 -6 112 -24q35 -10 51.5 -16.5t49.5 -23t51 -26.5t43 -29q82 57 173 88t185 31t184.5 -28.5t178.5 -90.5q43 31 84 52l82 37l86 20l98 8h709l-25 -59h-244l-114 -889 h-242l113 889h-207q-31 0 -43 -1t-37 -9q-37 -8 -80 -31l-59 -35l-45 -37q41 -41 77 -90q29 -39 60 -100q8 -20 16 -44t19.5 -67t11.5 -94q0 -43 -4 -72.5t-19 -68.5q-18 -66 -62 -126.5t-99.5 -92t-116.5 -31.5q-53 0 -98 23.5t-79 80t-52 121.5q-16 72 -17 147l2 41 q0 20 2 43t10.5 53.5t34.5 82.5l21 36l24 39l29 37l35 37q-20 27 -53 53l-70 47q-35 20 -75 33t-75 13q-28 -1 -57 -11q-29 -6 -70 -24l-67 -33q-27 -14 -45 -33q39 -39 76 -92q29 -39 59 -100q25 -51 37 -102.5t12 -100.5q0 -43 -4 -72.5t-18 -68.5q-18 -66 -62.5 -126.5 t-99.5 -92t-117 -31.5q-53 0 -98 23.5t-79 80t-52 121.5q-16 72 -17 147l2 41q0 20 2 43t8.5 43.5t14.5 45t18.5 45t20.5 38.5q4 6 25.5 36t31.5 41.5t35 35.5q-31 35 -66.5 61.5t-76.5 43.5l-88 24q-31 6 -45.5 8t-47.5 2q-104 0 -197 -30.5t-176 -90t-130 -141.5t-47 -172 v-33q6 -23 8 -34t8 -34.5t17.5 -54t28.5 -58t34 -38.5l-6 31l-2 21v16v22q0 45 2 64.5t15 63.5t48 96q35 43 82 67q51 23 113 23q55 0 94 -23q41 -18 74 -63q27 -39 47 -94q16 -53 16 -109q0 -70 -19.5 -126t-60.5 -97q-35 -41 -94 -66q-61 -20 -127 -20q-80 0 -144.5 31.5 t-115.5 101.5t-74.5 147.5t-23.5 165.5zM272 289q0 -41 4 -62l19 -53q12 -27 25.5 -38t31.5 -11t36 9t30 27.5t18 43.5l8 59l-6 72q-4 33 -14 55q-6 20 -25 33q-12 12 -34 12q-20 0 -35 -9t-29 -29.5t-22 -51.5zM907 347q0 -19 4 -46l19 -76q10 -33 26 -49q16 -12 43 -16 q31 0 53.5 16.5t40 52t26.5 80.5t9 94l-6 70l-18 68l-29 63q-12 33 -35 60l-57 -66q-23 -27 -40 -60.5t-28 -74.5l-8 -72v-44zM1624 349q0 -19 4 -46l19 -76q12 -29 30 -51q16 -12 43 -16q31 0 54.5 17.5t37 47t23.5 80.5l8 98q0 78 -22 138q-18 66 -62 123l-57 -64 q-25 -31 -42.5 -63.5t-27.5 -73.5l-8 -72v-42z" />
<glyph unicode="{" horiz-adv-x="456" d="M-1454 -266q0 33 11 58.5t36 49.5l49 33q16 6 55 10l588 -2l-35 -59h-532q-25 0 -39 -5t-27.5 -18.5t-19.5 -31.5l-6 -35q0 -43 35.5 -79t100 -60.5t140.5 -38.5l180 -27l144 -10l164 -4q119 0 229.5 30.5t206.5 89.5q113 70 168 159t55 196q0 27 -10 52.5t-32.5 48 t-46 31.5t-58.5 13q-37 0 -61.5 -16.5t-45.5 -55.5l-45 -378h-244l82 626l238 13l-19 -156q39 45 89.5 67.5t105.5 22.5q57 0 104.5 -19.5t93.5 -57.5t69.5 -88t23.5 -103v-17q0 -111 -55.5 -201.5t-177 -171.5t-290.5 -123t-380 -42l-41 -2q-139 0 -273.5 17.5t-244.5 51.5 q-143 41 -214 99.5t-71 132.5z" />
<glyph unicode="|" horiz-adv-x="2428" d="M0 -217q0 27 7 47t26.5 39.5t42.5 28.5l49 8l1343 -2l21 45l18 41l15 41l14 43q12 45 18 90l7 100q0 78 -11 125q-6 53 -22.5 85t-35.5 47.5t-48 19.5q-29 0 -43 -4l-37 -13q-18 -6 -31 -18l-20 -23l-66 -483h-243l116 889h-495q-90 0 -179.5 -36t-170 -105.5 t-123.5 -149.5q-18 -39 -28.5 -79t-10.5 -83v-33q6 -23 8 -34t8 -34.5t17.5 -54t29 -58t33.5 -38.5l-6 31l-2 21v16v22q0 45 2 64.5t15 63.5t48 96q35 43 82 67q51 23 113 23q55 0 94 -23q41 -18 74 -63q27 -39 47 -94q16 -53 16 -109q0 -70 -19.5 -126t-60.5 -97 q-35 -41 -94 -66q-61 -20 -127 -20q-80 0 -144.5 31.5t-115.5 101.5t-74.5 147.5t-23.5 165.5q0 98 42 183.5t130 166t193.5 121.5t226.5 41h1003l-20 -59h-244l-43 -326q10 18 29 31l45 27q25 12 55 18l61 8q66 0 117 -25.5t93 -80t62.5 -124t20.5 -141.5q0 -53 -8 -100 l-18 -96l-31 -90q-14 -43 -39 -84l281 -2l127 1044h243l-127 -1100h-561q-61 -94 -153.5 -166.5t-219.5 -132.5q-111 -47 -240.5 -74.5t-248.5 -27.5q-158 0 -285 23q-66 8 -128 23t-128 40q-135 49 -201.5 110.5t-66.5 139.5zM80 -217q0 -51 47 -96q47 -41 141 -76t219 -53 q59 -8 119 -12.5t137 -4.5l58 -2q94 0 176 23q84 18 168 55q92 45 161.5 101.5t125.5 131.5l-1223 -2h-47l-43 -12q-20 -6 -31 -20zM276 289q0 -41 5 -62l18 -53q12 -27 25.5 -38t31.5 -11q19 0 35 8q18 10 30.5 28.5t18.5 43.5l9 59l-7 72q-4 33 -14 55q-6 20 -25 33 q-12 12 -34 12q-20 0 -35 -9t-29 -29.5t-22 -51.5z" />
<glyph unicode="}" horiz-adv-x="20" d="M-1313 1354q0 37 10 63q8 31 31 56q18 25 50 38t65 13q39 0 68.5 -13.5t51 -38t33 -54t11.5 -62.5q0 -37 -9.5 -64.5t-33.5 -54.5q-18 -25 -50 -37t-71 -12q-41 0 -68 10q-29 12 -49 38t-31 52z" />
<glyph unicode="~" horiz-adv-x="2007" d="M33 317v15q0 74 26 133q12 31 31 55.5t47 48.5q43 35 104.5 56.5t127.5 21.5q59 0 117.5 -24.5t102.5 -71.5t67.5 -105.5t23.5 -121.5q0 -39 -4.5 -65.5t-18.5 -59.5q-23 -57 -66.5 -102.5t-103.5 -73.5q-55 -23 -118 -23h-13q-39 0 -65.5 4t-59.5 19q-57 25 -104 69 q-43 45 -72 103q-23 57 -22 122zM113 332q0 -41 11 -73t14 -37t21.5 -31.5t47.5 -49.5q20 -12 57 -16q39 0 68 14q33 16 56.5 47t35.5 65t12 73q0 53 -14 90q-10 35 -35 56.5t-58.5 35.5t-76.5 14q-27 0 -49.5 -14t-46.5 -47l-33 -62q-4 -12 -7 -26.5t-3 -38.5zM637 1032v21 q0 72 24.5 130t77.5 103q43 35 105 57q25 8 60.5 14.5t68.5 6.5q60 0 119 -25q57 -25 101 -71.5t67.5 -105t23.5 -122.5q0 -39 -4 -65.5t-18 -59.5q-23 -57 -67 -102t-103 -74q-57 -23 -119 -22h-12q-70 0 -125.5 23.5t-104.5 69.5t-71.5 102.5t-22.5 119.5zM715 1001 q6 -23 11 -42t25.5 -50.5t49.5 -50.5q33 -14 63 -14q41 0 72 14q31 12 53.5 40t34.5 63.5t12 74.5t-12 75t-35.5 65.5t-56.5 45t-76 15.5q-31 0 -56.5 -13.5t-47.5 -43.5q-14 -20 -29 -62l-8 -71v-46zM1247 317v15q0 74 24.5 133t78.5 104q43 35 104 58q25 8 60.5 14t68.5 6 q59 0 115.5 -24.5t102.5 -72.5t70.5 -104.5t24.5 -121.5q0 -39 -4 -65.5t-18 -59.5q-23 -57 -67 -102.5t-103 -73.5q-57 -23 -121 -23h-12q-70 0 -126 24.5t-104.5 70.5t-71 102.5t-22.5 119.5zM1327 332q0 -39 11.5 -70t35.5 -69q25 -31 51 -52q20 -12 56 -16 q35 0 66.5 13.5t54.5 41.5q27 29 39 62.5t12 66.5v15q-1 53 -15 90q-10 35 -34.5 56.5t-58.5 35.5t-77 14q-27 0 -49 -14t-47 -47q-6 -8 -16 -25.5t-17.5 -38t-11.5 -63.5z" />
<glyph horiz-adv-x="501" />
<glyph horiz-adv-x="2516" />
<glyph horiz-adv-x="567" d="M0 1491h143l424 -1516h-143z" />
<glyph horiz-adv-x="567" d="M0 -25l424 1516h143l-424 -1516h-143z" />
<glyph horiz-adv-x="503" d="M29 948q33 10 45 17q22 12 30 16q39 23 70 53l31 31l24 31l19 28l12 31q-41 0 -67.5 11.5t-47 35t-32.5 51.5l-9 64q0 39 9.5 62.5t30 50t50 39t66.5 12.5q31 0 58.5 -13.5t53 -38t37 -51t15.5 -61.5q0 -31 -6 -63.5t-23 -67.5q-31 -70 -86 -137.5t-116 -108.5 q-59 -35 -130 -51z" />
<glyph horiz-adv-x="972" d="M549 147q0 31 12 62t39 58.5t52.5 39.5t60.5 17q30 -1 59 -15q29 -12 57 -43q27 -25 39.5 -54.5t16.5 -64.5q0 -37 -13.5 -64.5t-37 -48t-54.5 -30.5l-63 -8h-37q-18 6 -38.5 10t-43.5 27q-25 18 -37 48t-12 66zM643 1264q0 66 7 108.5t25.5 72.5t51.5 50q33 16 78 16 t82 -12t55.5 -33.5t29.5 -56.5t11 -76q0 -45 -14 -108l-37 -148l-27 -82l-24 -82l-27 -84l-25 -81q-25 -82 -37 -151t-12 -126h-80l5 90v68q-6 55 -9 86q0 49 -2 68.5t-20 146.5l-23 205z" />
<glyph horiz-adv-x="2387" d="M20 436q0 100 42 186.5t125 167t190.5 126t234.5 45.5q131 0 242 -38t191.5 -108t123.5 -168t43 -219q0 -29 -2 -59.5t-10 -72.5t-28.5 -90t-43 -84t-53.5 -67h553l37 269q-68 0 -129 18t-107.5 59t-76.5 101q-25 59 -25 135q0 70 22.5 124t67.5 101t101.5 73t121.5 26 q66 0 120.5 -19.5t100.5 -56.5t69.5 -82t23.5 -98l-2 -25l-29 -248q61 20 64 23q25 12 40 20t32.5 17.5t41.5 27.5q43 29 67.5 56.5t39.5 60.5h80l-68 -637h-348l-55 -537h-256l59 537h-860v55q49 31 90 72q33 37 65 94q23 49 39 109q6 31 10.5 57.5t4.5 61.5 q0 90 -22.5 161.5t-69.5 130.5q-49 68 -120 102t-157 34h-18q-92 0 -175 -36t-161 -112q-66 -66 -107 -143q-35 -74 -35 -150l7 -65q2 -14 8 -38t14 -42l31 -70q16 -27 33 -37l-7 31l-2 21v16v22q0 45 2.5 64.5t15.5 63.5t48 96q35 43 82 67q51 23 113 23q55 0 94 -23 q41 -18 73 -63q27 -39 48 -94q16 -53 16 -109q0 -68 -19.5 -126t-60.5 -99q-37 -43 -94 -63.5t-125 -20.5q-80 0 -144.5 32.5t-116.5 101.5t-77 144q-23 80 -23 168zM264 289q0 -41 4 -62l19 -53q12 -27 25.5 -38t31.5 -11t35.5 9t30 27.5t18.5 43.5l8 59l-6 72 q-4 33 -14 55q-6 20 -25 33q-12 12 -35 12q-21 0 -37 -10q-12 -8 -26 -28.5t-23 -51.5zM1055 1370q0 37 10 65.5t31.5 53t52.5 38t63 13.5q39 0 69 -13.5t51.5 -38t32.5 -54t11 -62.5q0 -37 -9 -64.5t-34 -54.5q-18 -25 -50 -37t-71 -12q-36 1 -67 13q-27 12 -48.5 37.5 t-29.5 49t-12 66.5zM1409 637q1 -57 21 -100q16 -39 61 -78q12 -10 34.5 -23.5t45.5 -23.5q43 -18 100 -25l29 238l2 37q0 80 -35 118.5t-106 38.5q-33 0 -60.5 -14t-49 -41t-30 -54.5t-10.5 -37.5t-2 -35zM1880 55h264l51 453l-71 -49l-66 -39l-76 -37l-65 -27z" />
<glyph horiz-adv-x="1964" d="M-74 -254q0 74 19.5 136.5t56.5 117.5q45 66 110.5 100.5t147.5 34.5h983q66 0 125 25.5t113.5 83t82 114t27.5 113.5v27q0 72 -19.5 126t-58.5 93q-33 37 -85 58.5t-105 21.5t-105.5 -18.5t-101.5 -55.5q-41 -35 -72 -84q-23 -43 -32 -107l-35 -323h-229l32 323l2 23 q0 51 -22 94q-16 39 -62 84q-45 41 -110 64q-29 10 -65 16t-79 6q-53 0 -93 -7t-73.5 -23.5t-62.5 -45.5q-18 -20 -35 -63l41 6q23 0 33 4l29 2l28 2q57 0 106.5 -12t86.5 -36.5t58.5 -71t21.5 -103.5q0 -53 -24.5 -99t-74.5 -83q-37 -27 -98 -47q-29 -6 -55.5 -10.5 t-59.5 -4.5q-18 0 -38.5 1t-58.5 15.5t-73.5 49.5t-54 85t-18.5 118q0 106 36.5 190t103.5 143.5t156 89t191 29.5q55 0 76.5 -3t60.5 -13q68 -12 123 -45q66 -33 115 -88q47 -47 78 -119q33 61 80 110.5t108 88.5q57 33 126 51t144 18q43 0 79 -6t73 -22q68 -29 128 -86.5 t93 -146.5t33 -191v-25q0 -43 -6 -79t-23 -73q-29 -70 -84 -116q-68 -61 -174 -92t-254 -31h-823q-63 0 -117.5 -25.5t-103.5 -70.5q-41 -47 -70 -105q-23 -57 -22 -121q0 -51 15 -84.5t50 -72.5q10 -10 27.5 -22.5t53.5 -27t85 -14.5l12 -2q90 0 175 33t161 90l133 115 l136 110q88 57 195.5 87t227.5 30q45 0 64.5 -2t63.5 -16.5t87 -51.5q43 -33 65 -84t22 -112q0 -66 -26 -120t-76 -100t-107.5 -69t-122.5 -23l-19 -2q-55 0 -104 25q-47 18 -93 62t-68.5 88.5t-22.5 93.5l2 39l12 34l20 33l29 31l43 -27l-22 -41l-7 -51q0 -37 8.5 -62.5 t11.5 -31.5t20.5 -28.5t39 -33t53.5 -14.5q41 0 72 15.5t58 52.5q20 29 30 64.5t11.5 53t1.5 27.5q0 41 -10.5 72t-28 53.5t-50.5 42.5q-25 12 -61 12q-88 0 -172 -31.5t-168 -99.5l-143 -123l-142 -122q-92 -66 -194.5 -99t-206.5 -33q-76 0 -140.5 26t-119.5 76t-83 107.5 t-28 114.5zM109 465q0 -29 7 -51.5t25 -48.5q16 -18 39 -31q16 -6 56 -10q33 0 51 7t30 25l17 45l6 70q0 28 -8 51q-6 23 -25 37l-39 21l-45 8q-31 0 -51 -10q-14 -4 -35 -25l-22 -41q-6 -18 -6 -47zM868 1354q0 37 10.5 65.5t30 53t51 38t64.5 13.5q39 0 68.5 -13.5t51 -38 t33 -54t11.5 -62.5q0 -37 -9.5 -64.5t-33.5 -54.5q-18 -25 -50 -37t-71 -12q-41 0 -68 10q-27 12 -48 38t-31 52z" />
<glyph unicode="&#xa1;" horiz-adv-x="1476" d="M33 332q0 51 15 92t47 72.5t85 50.5q25 8 52.5 12t66.5 4h45l47 385h834l-25 -59h-239l-46 -326h76q27 0 60.5 -1t81.5 -15q66 -14 119 -50t82.5 -93.5t29.5 -127.5q0 -57 -23 -108q-18 -49 -61 -92t-94 -64.5t-103 -21.5l-34 4l-39 6l-37 12q-14 6 -25 21v114 q37 1 72 13q31 12 51.5 36.5t32.5 57.5t12 70q0 35 -10 66.5t-32.5 60t-57.5 43t-68 14.5h-41l-18 -152q-10 -90 -47 -158.5t-103 -121.5q-51 -41 -121 -66q-68 -20 -135 -20q-109 0 -191.5 19.5t-139.5 66.5q-55 41 -91 106q-29 68 -28 150zM113 332q0 -53 18.5 -99.5 t57 -77t92.5 -49.5q27 -6 53 -10t57 -4q45 1 88 19q37 16 75 53t61.5 86t31.5 106l17 152h-388q-37 0 -64.5 -9.5t-51.5 -31.5q-25 -18 -34 -46t-11 -43.5t-2 -45.5zM432 563h240l45 326h-246zM653 1354q0 37 10.5 65.5t30 53t51 38t64.5 13.5q39 0 68.5 -13.5t51 -38 t33 -54t11.5 -62.5q0 -37 -9.5 -64.5t-33.5 -54.5q-18 -25 -50 -37t-71 -12q-41 0 -68 10q-27 12 -48 38t-31 52z" />
<glyph unicode="&#xa2;" horiz-adv-x="1292" d="M33 332q0 55 13 93t46 70.5t84 51.5q25 8 52.5 12t68.5 4h43l47 385h838l-25 -59h-244l-41 -326h285l-24 -55h-269l-18 -152q-12 -86 -49 -156.5t-103 -123.5q-51 -39 -119 -66q-68 -20 -135 -20q-109 0 -191.5 19.5t-139.5 66.5q-55 41 -91 106q-29 68 -28 150zM113 332 q0 -55 18.5 -98.5t63.5 -81.5q37 -31 84 -46q25 -6 51 -10t57 -4q45 1 88 19q37 16 75 53t61.5 86t31.5 106l21 152h-392q-37 0 -63.5 -9.5t-48 -28.5t-37.5 -58q-6 -18 -8 -34t-2 -46zM428 563h244l41 326h-242zM633 1352q0 34 12 69q12 29 37 50.5t48.5 30.5t66.5 14 q37 0 67.5 -10.5t53.5 -32.5q25 -18 38 -53.5t13 -67.5q0 -39 -13.5 -67t-37.5 -50q-25 -18 -56 -29.5t-63 -11.5q-37 0 -63.5 9t-53.5 29.5t-38 51.5t-11 68z" />
<glyph unicode="&#xa3;" d="M20 0l127 948h240l-115 -893h1436l-25 -55h-1663zM801 1354q0 37 10 65.5t29.5 53t51.5 38t64 13.5q39 0 69 -13.5t51.5 -38t32.5 -54t11 -62.5q0 -37 -9 -64.5t-34 -54.5q-18 -25 -50 -37t-71 -12q-40 0 -67 10q-27 12 -48.5 38t-31.5 52z" />
<glyph unicode="&#xa4;" horiz-adv-x="1456" d="M-70 -313q0 47 18.5 89t51.5 77q39 33 88 49t105 16l591 -2q66 0 121 29q57 25 101.5 74t67 108t22.5 125t-11 104q-8 45 -28.5 80t-50.5 53q-25 18 -62 19h-37l-18 -152q-12 -85 -49 -159q-37 -68 -103 -121q-51 -39 -119 -66q-68 -20 -135 -20q-109 0 -191.5 19.5 t-139.5 66.5q-55 41 -91 106q-29 68 -28 150q0 55 13 93t46 70.5t84 51.5q25 8 52.5 12t68.5 4h43l47 385h838l-25 -59h-244l-41 -326h76q68 0 126.5 -17.5t111.5 -57t81.5 -97t28.5 -125.5v-14q0 -72 -23.5 -139.5t-76.5 -127t-130 -91t-165 -31.5l-637 -2l-51 -6 q-20 -6 -47 -25q-18 -16 -31 -37q-6 -16 -10 -47l6 -31q8 -18 23 -30l22 -29l8 -27q0 -33 -10 -61.5t-27.5 -48t-50.5 -31.5q-16 -6 -26.5 -8t-36.5 -2q-43 0 -68.5 12t-43 40t-25.5 67zM113 332q0 -55 18.5 -98.5t63.5 -81.5q37 -31 84 -46q25 -6 51 -10t57 -4 q45 0 85 17.5t78 54.5t61.5 86t31.5 106l21 152h-392q-37 0 -63.5 -9.5t-48 -28.5t-37.5 -58q-6 -18 -8 -34t-2 -46zM428 563h244l41 326h-242zM633 1352q0 34 12 69q12 29 37 50.5t48.5 30.5t66.5 14q37 0 67.5 -10.5t53.5 -32.5q25 -18 38 -53.5t13 -67.5q0 -39 -13.5 -67 t-37.5 -50q-25 -18 -56 -29.5t-63 -11.5q-37 0 -63.5 9t-53.5 29.5t-38 51.5t-11 68z" />
<glyph unicode="&#xa5;" horiz-adv-x="1564" d="M16 0l127 948h244l-115 -893h844l117 893h244l-129 -948h-1332zM717 1354q0 37 10 65.5t29.5 53t51.5 38t64 13.5q20 0 30.5 -2t38.5 -13.5t52 -40.5q25 -23 41 -57q10 -25 15 -59q0 -31 -12.5 -55.5t-45.5 -57.5q-23 -23 -55.5 -37t-63.5 -14q-40 0 -67 10 q-27 12 -48.5 38t-31.5 52z" />
<glyph unicode="&#xa7;" horiz-adv-x="1775" d="M20 0l115 948h834l-25 -59h-244l-53 -393l37 45q18 18 45 32l51 19l56 8q55 0 105 -19.5t97 -57.5t71 -88t24 -103q0 -39 -9.5 -70t-29 -69.5t-52.5 -73.5l-61 -64h346l117 893h252l-135 -948h-1045l25 55h67q29 0 43.5 3t25.5 6.5t25 11.5l46 24q25 12 47 35 q45 39 69.5 87t24.5 102q0 29 -12.5 57.5t-34.5 52.5q-10 8 -31 23q-8 6 -20 12q-25 12 -54 12l-30 -4l-27 -14q-14 -6 -25 -23l-18 -28l-29 -197h-239l92 674h-246l-115 -889h-80zM797 1352q0 28 12 59q12 29 35.5 55.5t52.5 42.5q25 10 59 15q31 0 61 -13.5t58 -42.5 q29 -25 41 -53.5t17 -62.5q0 -37 -13.5 -64.5t-38.5 -52.5q-25 -18 -55.5 -29.5t-62.5 -11.5q-37 0 -64 9t-53.5 29.5t-37.5 51.5t-11 68z" />
<glyph unicode="&#xa9;" horiz-adv-x="2936" d="M29 436q0 98 44 187.5t138 171.5t211 125q59 20 119.5 30.5t134.5 10.5q33 0 63.5 -2.5t61.5 -8.5q57 -6 112 -24q35 -10 51.5 -16.5t49.5 -23t51 -26.5t43 -29q82 57 173 88t185 31t184.5 -28.5t178.5 -90.5q43 31 84 52l82 37l86 20l98 8h709l-25 -59h-244l-114 -889 h-242l113 889h-207q-31 0 -43 -1t-37 -9q-37 -8 -80 -31l-59 -35l-45 -37q41 -41 77 -90q29 -39 60 -100q8 -20 16 -44t19.5 -67t11.5 -94q0 -43 -4 -72.5t-19 -68.5q-18 -66 -62 -126.5t-99.5 -92t-116.5 -31.5q-53 0 -98 23.5t-79 80t-52 121.5q-16 72 -17 147l2 41 q0 20 2 43t10.5 53.5t34.5 82.5l21 36l24 39l29 37l35 37q-20 27 -53 53l-70 47q-35 20 -75 33t-75 13q-28 -1 -57 -11q-29 -6 -70 -24l-67 -33q-27 -14 -45 -33q39 -39 76 -92q29 -39 59 -100q25 -51 37 -102.5t12 -100.5q0 -43 -4 -72.5t-18 -68.5q-18 -66 -62.5 -126.5 t-99.5 -92t-117 -31.5q-53 0 -98 23.5t-79 80t-52 121.5q-16 72 -17 147l2 41q0 20 2 43t8.5 43.5t14.5 45t18.5 45t20.5 38.5q4 6 25.5 36t31.5 41.5t35 35.5q-31 35 -66.5 61.5t-76.5 43.5l-88 24q-31 6 -45.5 8t-47.5 2q-104 0 -197 -30.5t-176 -90t-130 -141.5t-47 -172 v-33q6 -23 8 -34t8 -34.5t17.5 -54t28.5 -58t34 -38.5l-6 31l-2 21v16v22q0 45 2 64.5t15 63.5t48 96q35 43 82 67q51 23 113 23q55 0 94 -23q41 -18 74 -63q27 -39 47 -94q16 -53 16 -109q0 -70 -19.5 -126t-60.5 -97q-35 -41 -94 -66q-61 -20 -127 -20q-80 0 -144.5 31.5 t-115.5 101.5t-74.5 147.5t-23.5 165.5zM272 289q0 -41 4 -62l19 -53q12 -27 25.5 -38t31.5 -11t36 9t30 27.5t18 43.5l8 59l-6 72q-4 33 -14 55q-6 20 -25 33q-12 12 -34 12q-21 0 -37 -10q-12 -8 -26.5 -28.5t-22.5 -51.5zM907 347q0 -19 4 -46l19 -76q10 -33 26 -49 q16 -12 43 -16q31 0 53.5 16.5t40 52t26.5 80.5t9 94l-6 70l-18 68l-29 63q-12 33 -35 60l-57 -66q-23 -27 -40 -60.5t-28 -74.5l-8 -72v-44zM1389 1354q0 37 10 65.5t29.5 53t51 38t64.5 13.5q39 -1 70 -15q29 -12 50.5 -36.5t32.5 -54t11 -62.5q0 -37 -9 -64.5t-34 -54.5 q-18 -25 -50 -37t-71 -12q-41 0 -67.5 11t-48 37t-31.5 52zM1624 349q0 -19 4 -46l19 -76q12 -29 30 -51q16 -12 43 -16q31 0 54 16q25 18 38 48t23 81l8 98q0 78 -22 138q-18 66 -62 123l-57 -64q-25 -31 -42.5 -63.5t-27.5 -73.5l-8 -72v-42z" />
<glyph unicode="&#xaa;" horiz-adv-x="1267" d="M-129 -313q0 47 18.5 88t55.5 78q37 31 82 49q49 16 108 16l393 -2q74 0 142 37q68 33 122 95.5t80 129.5q6 14 16.5 57.5t10.5 88.5q0 39 -11 75.5t-32.5 69.5t-45.5 47t-58 19q-25 0 -50.5 -12.5t-54.5 -39.5l-59 -483h-244l117 889h-246l-115 -889h-80l115 948h834 l-25 -59h-244l-41 -326q41 41 86.5 62.5t96.5 21.5q57 0 107 -22.5t97.5 -68.5t71 -103.5t23.5 -120.5q0 -117 -36 -208t-103.5 -146.5t-165 -85t-215.5 -29.5l-369 -2l-51 -6q-20 -6 -47 -25q-18 -16 -31 -37q-10 -25 -10 -47q0 -14 8 -31l31 -43l12 -20l4 -23 q0 -33 -10 -59q-6 -29 -25.5 -49.5t-48.5 -32.5q-16 -6 -26.5 -8t-37.5 -2q-39 0 -67.5 13t-46 40t-26.5 67t-9 89zM535 1354q0 37 10 65.5t31.5 53t52 38t63.5 13.5q39 -1 70 -15q29 -12 50.5 -36.5t32.5 -54t11 -62.5q0 -37 -9 -64.5t-34 -54.5q-18 -25 -50 -37t-71 -12 q-37 0 -65.5 12t-50 38t-29.5 49.5t-12 66.5z" />
<glyph unicode="&#xab;" horiz-adv-x="1667" d="M29 0l127 948h239l-114 -893h407l80 650q0 45 24.5 89t69.5 89q39 37 90 57q23 8 50.5 14.5t54.5 6.5q109 0 190.5 -46.5t157.5 -142.5q61 -86 94 -183t33 -198q0 -199 -75 -295t-224 -96h-1204zM739 1354q0 37 10.5 65.5t32 53t52 38t63.5 13.5q39 -1 70 -15 q29 -12 50 -36.5t32.5 -54t11.5 -62.5q0 -37 -9.5 -64.5t-33.5 -54.5q-18 -25 -50 -37t-71 -12q-37 0 -65.5 12t-50 38t-30 49.5t-12.5 66.5zM928 55h311q47 0 84 23q35 23 70 74q29 49 44 107t15 122q0 84 -20 154q-18 76 -59.5 146.5t-97.5 110t-116 39.5q-29 0 -57.5 -12 t-44 -29.5t-23.5 -39.5l-10 -45z" />
<glyph unicode="&#xad;" horiz-adv-x="1396" d="M51 436v164h1204v-164h-1204z" />
<glyph unicode="&#xae;" horiz-adv-x="1036" d="M20 0l115 948h834l-25 -59h-244l-112 -889h-244l117 889h-246l-115 -889h-80zM377 1352q0 43 11 70.5t36 49t53 33.5q14 4 27.5 7.5t38.5 3.5q37 0 66.5 -10.5t52.5 -32.5q25 -18 38 -53.5t13 -67.5q-1 -37 -15 -66q-12 -27 -36 -51q-27 -20 -55.5 -30.5t-61.5 -10.5 q-37 0 -63.5 9t-53.5 29.5t-39 50.5t-12 69z" />
<glyph unicode="&#xb0;" horiz-adv-x="2387" d="M25 440q0 121 48 215.5t144 169.5q84 66 192.5 101t225.5 35q27 0 58.5 -1.5t86.5 -15.5q70 -12 134.5 -42t120 -75t93.5 -100q19 51 50 94t73.5 73t98.5 50q55 16 110 17q49 0 87 -19.5t66.5 -59.5t43 -94.5t14.5 -113.5l-4 -74l-4 -45l-14 -119l-7 -65l-2 -54 q0 -57 9.5 -98t30 -72.5t59.5 -50.5q18 -8 39.5 -12t54.5 -4q66 0 129 37t121 112q27 35 44 66t34 76q27 80 26 149v29q0 82 -22 135q-16 53 -62 96q-33 29 -78 49q-10 4 -42.5 14.5t-69.5 20.5q-25 0 -37 4l-25 19l-14 24l-4 31q0 20 4 31l18 28q14 14 29 19l39 8 q86 0 151.5 -38t112.5 -118q20 -33 33.5 -69.5t24 -83.5t16.5 -101.5t6 -109.5q0 -84 -33 -168q-14 -39 -38.5 -80t-57.5 -82q-76 -94 -170 -141t-209 -47q-92 0 -151.5 17.5t-102.5 53.5q-49 43 -74.5 120t-25.5 188v45t4 55l14 119l13 63l4 54q0 57 -23 86q-18 29 -61 28 q-25 0 -49.5 -13t-46.5 -42q-14 -18 -35 -64l-21 -75l-80 -625h-243l80 592q-18 74 -54 125q-29 49 -86 90q-45 33 -103.5 49t-121.5 16q-98 0 -179 -28.5t-156 -89t-113.5 -142.5t-38.5 -172l6 -65q2 -14 8 -38t14 -42l31 -70q16 -27 33 -37l-6 31l-2 21v16v23q0 45 2 64 t15 63.5t48 95.5q35 43 82 67q51 23 113 23q55 0 94 -23q41 -18 74 -63q27 -39 47 -94q16 -53 16 -109q0 -68 -19.5 -126t-60.5 -99q-37 -43 -94 -63.5t-125 -20.5q-80 0 -144.5 32.5t-116.5 101.5t-77 144q-23 80 -22 168zM268 293q0 -41 4 -62l19 -53q12 -27 25.5 -38 t31.5 -11t35.5 9t30 27.5t18.5 43.5l8 59l-6 72q-4 33 -14 55q-6 20 -25 33q-12 12 -35 12q-20 0 -36 -10q-12 -8 -26.5 -28.5t-23.5 -51.5zM1112 1352q0 34 12 69q12 29 37 50.5t48.5 30.5t66.5 14q37 0 67.5 -10.5t53.5 -32.5q25 -18 38 -53.5t13 -67.5q0 -39 -13.5 -67 t-37.5 -50q-25 -18 -55.5 -29.5t-63.5 -11.5q-37 0 -63.5 9t-53 29.5t-38 51.5t-11.5 68z" />
<glyph unicode="&#xb1;" horiz-adv-x="1787" d="M41 260q0 344 238 524q123 92 253 141.5t271 49.5l20 2h25l113 -6l114 -19q221 -43 403.5 -186t182.5 -410q0 -147 -110.5 -269t-258.5 -122q-135 0 -243.5 49t-108.5 211v29q0 20 4 31q-25 -49 -34 -84t-11 -47.5t-2 -36.5q0 -70 41 -109q41 -35 90 -49l66 -12l51 -4 l219 -2v-101h-219q-25 0 -46.5 -1t-38 -12t-18.5 -38l5 -27l8 -32l2 -4l6 -29l4 -27q0 -195 -118 -288t-265 -113l-43 -4l-41 -2q-158 0 -295 104.5t-137 284.5l2 49l10 53l88 -2l-6 -47l-2 -45q0 -63 14 -106q12 -47 41 -84l113 -2v225v10l2 6q6 25 43 49q37 20 80 21 q41 0 71.5 -11.5t57.5 -37.5q47 -53 63 -125v-17l3 -18q0 -82 -33 -127t-78 -45l-256 -2l8 -4l10 -6q37 -18 88 -29l113 -6q123 0 162 82q23 43 34 83t11 89v8l-2 39l-2 33l-2 16v16q0 63 37 119q39 49 135 78q-60 27 -101 86q-35 53 -45 119l-4 20v21q0 115 92.5 211 t204.5 96h25.5t36.5 -8q31 -6 57 -27q10 -4 12 -10l4 -14v-11q-2 -10 -14 -22l-22 -17l-9 -4h-8h-4l-6 2l-29 17l-28 10l-15 2l-14 2q-35 0 -60.5 -19.5t-25.5 -60.5q0 -76 38 -135t134 -59q74 0 99.5 66.5t25.5 176.5q0 215 -150 316q-74 49 -156.5 76.5t-168.5 27.5h-11 h-8q-299 0 -455.5 -51t-211.5 -268q33 39 76.5 58.5t91.5 19.5h12l14 -3q47 0 94.5 -21.5t94.5 -64.5q86 -78 86 -186l-2 -29l-5 -26q-23 -100 -108.5 -181t-175.5 -81h-6q-147 0 -217 85t-70 232zM131 209q0 -35 19 -57q20 -16 55 -17q75 0 98 29q25 31 25 72 q0 47 -15.5 71.5t-56.5 24.5q-74 0 -99.5 -33t-25.5 -90zM424 -111q0 39 22.5 56.5t53.5 19.5h6q27 0 50.5 -19.5t23.5 -56.5q0 -33 -25 -51q-20 -12 -53 -16q-29 0 -53.5 16.5t-24.5 50.5zM553 -371v-161h84q33 0 51 30q8 12 12.5 26.5t4.5 37.5v10v10q-6 41 -30 82t-63 41 q-31 0 -45 -17.5t-14 -58.5z" />
<glyph unicode="&#xb2;" horiz-adv-x="1738" d="M139 348q0 203 153.5 347.5t369.5 144.5q215 0 364.5 -137.5t149.5 -333.5l-2 -52q0 -27 -7.5 -50t-15.5 -52t-21 -53q-23 -51 -57 -101h662l-11 -61h-970l10 61q82 49 131 130t49 178q0 152 -94 260t-229 108q-168 0 -284 -112.5t-116 -276.5q0 -55 12.5 -105t38.5 -79 l-10 41v82q0 78 65.5 131t159.5 53q98 0 166 -74q70 -70 70 -172q0 -98 -74 -172q-68 -72 -172 -71q-135 -3 -239 108q-98 104 -99 258zM334 215q0 -49 25.5 -86t66.5 -37q34 0 57 35q25 37 25 88q0 59 -22.5 96t-59.5 37q-41 0 -66.5 -37t-25.5 -96z" />
<glyph unicode="&#xb3;" horiz-adv-x="2664" d="M225 553q0 172 51 313.5t162 266.5q217 242 518 241q201 0 372 -141t241 -373h51q125 0 211 -126t86 -304q0 -100 -26.5 -189t-78.5 -159h418q-70 66 -104.5 153t-34.5 175q0 186 93 318t220 132q66 0 114 -57.5t48 -132.5l-2 -29l-4 -27l-86 -532h190l-16 -82h-192 l-70 -410h-156l78 410h-723q90 59 141.5 182t51.5 269q0 102 -53.5 184t-139.5 102l14 -78l5 -106q0 -225 -97.5 -389t-234.5 -164q-72 0 -123 85t-51 202q0 190 86 339.5t227 192.5q-49 176 -187.5 283.5t-301.5 107.5q-258 0 -442.5 -192.5t-184.5 -464.5q0 -170 78 -302 t200 -159q-16 41 -30.5 103.5t-14.5 132.5q0 133 74 230t178 97q86 0 148.5 -90t62.5 -217q0 -152 -107.5 -259t-256.5 -107q-164 0 -283 165.5t-119 405.5zM608 328q1 -65 13 -131q12 -63 41 -115q80 12 135 87t55 179q0 66 -30.5 115t-76.5 49q-57 0 -97 -54.5t-40 -129.5 zM1167 287q0 -68 31 -117q31 -47 74 -47q80 0 135 125q29 66 43 138.5t14 166.5l-4 63q0 16 -4 42t-10 59q-119 -25 -199 -145.5t-80 -284.5zM2161 410q0 -95 41 -183q39 -86 114 -145l88 532l2 13v10q0 41 -19.5 70.5t-51.5 29.5q-70 0 -122 -97t-52 -230z" />
<glyph unicode="&#xb4;" horiz-adv-x="2672" d="M211 348q0 397 313 641q319 242 842 242q391 0 666.5 -204t275.5 -495v-22q0 -14 -4 -43l-10 -68l-10 -65l-5 -68l-6 -28l-2 -27q0 -51 24.5 -90t65.5 -39q86 0 148.5 132t62.5 318q0 66 -29.5 115t-70.5 49q-35 0 -59 23q-25 18 -25 49q0 27 29 43q25 18 65 18 q68 0 117 -87t49 -210q0 -223 -89 -377.5t-216 -154.5q-66 0 -113 78q-45 84 -45 192q0 41 4 64l11 63l4 21l2 20l6 41l2 43q0 246 -258 426t-627 180q-465 0 -744.5 -213t-279.5 -567q0 -301 254 -518t615 -217q328 0 559 173t231 419q0 66 -23.5 115t-58.5 49 q-31 0 -51.5 -15.5t-30.5 -46.5l-65 -307h-158l152 768h-164l-154 -768h-463q88 82 137.5 188.5t49.5 221.5q0 135 -87 231t-208 96q-135 0 -233.5 -113.5t-98.5 -275.5q0 -86 24.5 -151.5t65.5 -94.5l-16 35l-11 37l-8 35l-2 37q0 94 62.5 159.5t150.5 65.5q70 0 123 -60.5 t53 -144.5q0 -111 -73.5 -188.5t-176.5 -77.5q-119 0 -202.5 102.5t-83.5 245.5q0 203 127 347.5t307 144.5q188 0 321.5 -125t133.5 -305v-17v-14q0 -68 -35 -156q-25 -76 -76 -141h156l149 737h201h315l-20 -51h-101l-73 -358l12 10l12 10l49 31l45 10q80 0 137.5 -79 t57.5 -187q0 -274 -280.5 -474t-677.5 -200q-399 0 -681 238.5t-282 578.5zM655 246l2 -37q0 -16 9 -35q4 -25 10 -37l16 -35q37 0 63.5 50.5t26.5 113.5q0 29 -2 40t-14 32q-12 31 -37 31q-29 0 -53 -37q-20 -37 -21 -86z" />
<glyph unicode="&#xb5;" horiz-adv-x="1863" d="M186 0l164 819h164l-143 -737h430l102 532q15 83 78 140q59 53 149 65q-35 39 -54 83t-25 93l-2 15v16q0 111 74.5 194t181.5 83q47 0 84.5 -9.5t76.5 -31.5q33 31 90.5 51t124.5 20q59 0 118 -35.5t97 -97.5l13 10l12 13q53 47 104 73q10 6 41 16.5t56 10.5l-21 -82 q-27 0 -54.5 -14.5t-61.5 -44.5l-23 -25l-25 -29l31 -61q6 -20 10 -63q0 -51 -29.5 -87t-72.5 -36q-37 0 -66 34q-27 41 -26 89q0 37 12 72.5t39 62.5q-12 47 -58 79.5t-106 32.5l-22 -2q-14 0 -23 -4l-35 -14l-32 -21q49 -31 76.5 -82t27.5 -102q0 -74 -54.5 -125 t-129.5 -51q-74 0 -129.5 50t-55.5 126v12l2 15q2 14 8.5 30.5t15.5 34t20.5 32.5t25.5 30l-37 6l-24 4q-70 0 -122.5 -48t-52.5 -116v-10v-10q6 -57 43 -114.5t101 -103.5q100 -37 162.5 -157.5t62.5 -282.5q0 -143 -78 -245.5t-188 -102.5h-1047zM965 82h268q78 0 131 78 t53 188q0 80 -14 140.5t-51 119.5q-66 109 -160 109q-39 0 -76 -31q-33 -23 -47 -72zM1386 1047q0 -31 23 -54q16 -16 49 -20q25 0 43.5 24.5t18.5 59.5t-19.5 62.5t-52.5 29.5q-25 -12 -43.5 -40t-18.5 -62zM1858 1004q0 -25 4 -37q6 -12 16 -15q12 8 14 15l6 37l-6 40 q-2 14 -14 23l-14 -27z" />
<glyph unicode="&#xb6;" horiz-adv-x="927" d="M-10 981q0 59 10 98q6 47 29 80q25 45 64.5 83t87.5 61.5t114 39.5q61 12 139 13h496v-56h-133v-1740h-72v1740h-186v-1740h-74v1040q-88 0 -166 16q-31 6 -63.5 14.5t-55.5 20.5q-47 18 -85 52t-59.5 75t-35.5 96q-6 35 -8 51.5t-2 55.5z" />
<glyph unicode="&#xba;" horiz-adv-x="3020" d="M33 332q0 55 13 93t46 70.5t84 51.5q25 8 52.5 12t68.5 4h43l47 385h838l-25 -59h-244l-41 -326h146q12 16 34.5 35.5t45.5 36.5q45 31 102 57q14 6 49 16.5t62 18.5q55 12 110 12q41 0 77 -6t73 -22q68 -23 131 -77t95 -126t32 -152v-10v-37q-6 -29 -10 -55.5 t-20.5 -70.5t-41.5 -81q-16 -29 -45 -47h524l37 269q-70 12 -133 36q-55 25 -104 66t-76 106.5t-27 135.5q0 66 24.5 120t70 89.5t101.5 54t120 18.5q59 0 117.5 -18.5t102.5 -52t67.5 -85t23.5 -112.5l-2 -35l-29 -227l76 39q37 23 72 53l65 63l60 72h80l-80 -647h-328 l-70 -545h-239l63 545h-782v43q31 14 58.5 44t44 66.5t24.5 74.5t9 57.5t1 29.5q0 66 -16 115q-12 55 -45 98q-29 43 -76 70t-105 27q-27 0 -43 -4l-45 -15q-27 -6 -43 -20l-28 -23q35 0 78 -26q37 -18 77.5 -61.5t62 -90.5t21.5 -96q0 -61 -18.5 -113.5t-55 -93.5 t-85.5 -64q-49 -18 -111 -18h-31q-51 0 -88 23.5t-63 70.5q-8 16 -17.5 38t-16.5 52.5t-9 50t-2 58.5q0 63 12 115.5t37 99.5h-109l-18 -152q-12 -86 -49 -156.5t-103 -123.5q-51 -39 -119 -66q-68 -20 -135 -20q-109 0 -191.5 19.5t-139.5 66.5q-55 41 -91 106 q-29 68 -28 150zM113 332q0 -56 20 -103q16 -39 62 -77q37 -31 84 -46q25 -6 51 -10t57 -4q45 0 85 17.5t78 54.5t61.5 86t31.5 106l21 152h-392q-37 0 -63.5 -9.5t-48 -28.5t-37.5 -58q-6 -18 -8 -34t-2 -46zM428 563h244l41 326h-242zM1049 299l6 -61l18 -54 q12 -27 25.5 -38t34.5 -11q18 0 32 8q18 10 31 29l21 45l8 59l-6 72q-2 31 -12.5 52.5t-26 35t-39.5 13.5q-18 0 -33.5 -10.5t-30 -31t-22.5 -51.5zM1456 1352q0 41 11.5 69.5t36 50t48 30.5t66.5 14q37 0 66.5 -10.5t52.5 -32.5q25 -18 38 -53.5t13 -67.5q0 -37 -12 -68 q-12 -27 -38 -48.5t-54.5 -31.5t-61.5 -10q-37 0 -63.5 9t-53 29.5t-38 51.5t-11.5 68zM2056 655q0 -55 20.5 -101t59.5 -81q12 -10 34.5 -23.5t55.5 -26.5t98 -24l31 248l2 25q0 35 -9 58.5t-30.5 43t-44 26.5t-61.5 11q-33 0 -58.5 -9t-50.5 -32q-25 -18 -36 -49t-11 -66z M2523 55h246l59 477q-20 -29 -28.5 -38t-30.5 -31q-14 -14 -30.5 -28.5t-35.5 -26.5q-29 -23 -69 -46l-74 -30z" />
<glyph unicode="&#xbb;" horiz-adv-x="1564" d="M12 332q0 55 13.5 93t46 70.5t84.5 51.5q25 8 52.5 12t67.5 4h48l49 385h831l-24 -59h-244l-39 -326h76q51 0 74.5 -2t72.5 -15.5t106.5 -49t87 -93t29.5 -127.5q0 -59 -21.5 -106t-68.5 -94t-98 -69.5t-102 -22.5q-35 0 -66 11t-63 38v114q36 1 71 13q33 12 54.5 37.5 t34 58.5t12.5 70q0 41 -10.5 69.5t-34 56t-58.5 42t-69 14.5h-35l-21 -152q-12 -88 -49 -158.5t-100 -121.5q-51 -39 -119 -66q-68 -20 -135 -20q-109 0 -191 20q-86 18 -143 66q-55 41 -90 106q-29 68 -29 150zM92 332q1 -54 19 -103q18 -43 57 -73.5t92 -49.5 q27 -6 53.5 -10t59.5 -4q41 0 81 17.5t77.5 54.5t61 86t32.5 106l18 152h-387q-41 0 -67.5 -9.5t-48 -28.5t-38.5 -58q-6 -18 -8 -34t-2 -46zM408 563h243l45 326h-243zM705 1247q0 72 30.5 136.5t93.5 111.5q27 20 56.5 35.5t66.5 30.5q72 23 148 22q43 0 78.5 -6t72.5 -23 q66 -27 117 -83t79 -136t28 -172l-7 -88l-67 -555h-80l68 545l2 35q0 55 -19.5 102t-62.5 80q-35 33 -88.5 51.5t-120.5 18.5q-18 0 -38.5 -1.5t-55.5 -15.5q-43 -16 -86 -48t-66 -74t-23 -80l7 -60q6 -31 19 -54.5t38 -45.5q23 -16 53 -25h-129q-35 35 -61.5 78t-38.5 86 l-12 57z" />
<glyph unicode="&#xbc;" horiz-adv-x="1775" d="M20 0l115 948h834l-25 -59h-244l-53 -393l37 45q18 18 45 32l51 19l56 8q55 0 105 -19.5t97 -57.5t71 -88t24 -103q0 -39 -9.5 -70t-29 -69.5t-52.5 -73.5l-61 -64h346l121 893h244l-197 -1444h-244l70 496h-805l25 55h67q29 0 43.5 3t25.5 6.5t25 11.5l46 24 q25 12 47 35q45 39 69.5 87t24.5 102q0 29 -12.5 57.5t-34.5 52.5q-10 8 -31 23q-8 6 -20 12q-25 12 -54 12l-30 -4l-27 -14q-14 -6 -25 -23l-18 -28l-29 -197h-239l92 674h-246l-115 -889h-80z" />
<glyph unicode="&#xbd;" horiz-adv-x="2156" d="M20 0l115 948h834l-25 -59h-244l-53 -393l37 45q18 18 45 32l51 19l56 8q55 0 105 -19.5t97 -57.5t71 -88t24 -103q0 -39 -9.5 -70t-29 -69.5t-52.5 -73.5l-61 -64h350l117 889h240l-101 -772q35 41 85 63.5t106 22.5q57 0 104 -19.5t93 -57.5t69.5 -88t23.5 -103v-17 q0 -113 -59 -206t-182 -170.5t-312.5 -119.5t-431.5 -42q-135 0 -185 3t-135 12t-150.5 19.5t-137.5 28.5q-168 39 -254 97.5t-86 138.5q0 33 11.5 58.5t35.5 49.5l49 33q18 6 54 10l592 -2l-37 -59h-533q-25 0 -39 -5t-27.5 -18.5t-19.5 -31.5l-6 -35q0 -47 45 -86 q39 -33 139.5 -66t281.5 -50t402 -17q150 0 279 30q68 16 123 37t110 53q115 68 172.5 157t57.5 198q0 27 -10.5 52.5t-33 48t-46 31.5t-58.5 13q-37 0 -61.5 -16.5t-42.5 -50.5l-49 -383h-244l43 315h-807l25 55h67q29 0 43.5 3t25.5 6.5t25 11.5l46 24q25 12 47 35 q45 39 69.5 87t24.5 102q0 29 -12.5 57.5t-34.5 52.5q-10 8 -31 23q-8 6 -20 12q-25 12 -54 12l-30 -4l-27 -14q-14 -6 -25 -23l-18 -28l-29 -197h-239l92 674h-246l-115 -889h-80z" />
<glyph unicode="&#xbf;" horiz-adv-x="1775" d="M-18 -313q0 47 17 89t54 77q37 31 86 49q53 16 109 16l311 -2q119 0 211 33q94 27 168 86t114 149t40 197l2 78q0 80 -9.5 133t-17.5 81.5t-20 55.5q-25 49 -59 75.5t-81 26.5q-39 0 -76.5 -21.5t-81.5 -70.5t-73 -110q-10 -27 -19.5 -58.5t-15.5 -74.5l-57 -488v-8h-244 l80 588l4 55q0 43 -8 74q-6 39 -23 61q-12 25 -31.5 37t-46.5 16q-33 0 -58.5 -16t-43.5 -50t-30.5 -78t-18.5 -99l-68 -588h-80l80 655q4 43 8.5 63.5t20.5 55.5q25 57 63.5 98t83.5 65t93 24q53 0 93 -15.5t81 -50.5q35 -29 65 -76q10 -14 23.5 -39.5t23.5 -52.5 q16 45 48 89t77 77t92 51q25 8 45.5 12.5t51.5 4.5q80 0 149.5 -35t119.5 -108t75.5 -175t25.5 -221v-41q0 -70 -12 -128t-41 -112q-49 -98 -154 -166q-80 -51 -195.5 -81.5t-244.5 -30.5l-323 -2l-54 -6q-20 -6 -47 -25q-18 -16 -31 -37q-6 -16 -10 -47l2 -16l4 -17l9 -14 l14 -16l20 -29l9 -25q0 -35 -11 -57q-10 -31 -28.5 -50.5t-45 -31.5t-65.5 -12q-41 0 -70.5 13t-46.5 42l-22 66q-10 41 -10 88zM915 1200q0 74 28 127t87 105q57 45 127 69q33 10 68 16.5t75 6.5q98 0 173 -31t129 -92q41 -53 64.5 -132t23.5 -179v-19l-2 -18v-25 q0 -33 -5 -51q0 -27 -4 -41l-67 -520h-80l67 495l3 25l2 18v25q0 74 -23 127q-18 53 -59 98t-97 66q-51 23 -112 22q-55 0 -104.5 -16t-94.5 -48t-67.5 -72t-22.5 -91l6 -37l19 -37l26 -37l29 -26l-33 14l-29 8l-14 2q-10 2 -12 4h-17q-10 2 -12 5l-37 51l-20 55l-12 61z " />
<glyph unicode="&#xc0;" horiz-adv-x="2091" d="M20 0l115 948h834l-25 -59h-244l-53 -393l37 45q18 18 45 32l51 19l56 8q55 0 105 -19.5t97 -57.5t71 -88t24 -103q0 -39 -9.5 -70t-29 -69.5t-52.5 -73.5l-61 -64h346l84 672h-12q-43 0 -81 19.5t-75 62.5q-16 20 -30.5 46t-28.5 58q-20 61 -21 127q0 113 34 201 t102.5 152.5t150.5 97.5q92 33 190 33q92 0 162 -35t121 -107q45 -61 70 -145q10 -37 16 -83t6 -97l-2 -58l-6 -51l-68 -520h-79l67 496l4 51q0 66 -22.5 122t-68.5 102t-103.5 69.5t-120.5 23.5q-59 0 -120.5 -18.5t-120 -56t-89.5 -89t-31 -112.5q0 -55 11.5 -93t37 -68 t52.5 -44q37 -14 67 -14l21 151h239l-122 -948h-1045l25 55h67q29 0 43.5 3t25.5 6.5t25 11.5l46 24q25 12 47 35q45 39 69.5 87t24.5 102q0 29 -12.5 57.5t-34.5 52.5q-10 8 -31 23q-8 6 -20 12q-25 12 -54 12l-30 -4l-27 -14q-14 -6 -25 -23l-18 -28l-29 -197h-239l92 674 h-246l-115 -889h-80z" />
<glyph unicode="&#xc1;" horiz-adv-x="2367" d="M43 344v62.5t8 89.5q0 39 6 71q0 4 17.5 73t48.5 125t70 99l18 19l18 12l9 4l10 4h8l8 2l29 -6l22 -18l17 -25l6 -27q0 -16 -4 -24l-15 -21q-47 -39 -81.5 -91t-59.5 -107q-14 -35 -24.5 -67t-16.5 -50q-12 -55 -12 -113v-12q0 -86 16.5 -155.5t55.5 -141.5 q74 -127 221 -235q131 -92 300 -143.5t365 -51.5q164 0 301.5 38t262.5 118q139 90 209.5 214t70.5 277q0 78 -8 125q-6 53 -22.5 85t-36 47.5t-48.5 19.5q-47 0 -78.5 -13.5t-54.5 -44.5l-63 -483h-244l117 889h-498q-90 0 -180 -36t-168 -108q-76 -63 -121 -147 q-18 -39 -28.5 -79t-10.5 -83l6 -65q2 -14 8.5 -38t14.5 -42l31 -70q16 -27 32 -37l-6 29l-2 20v17v22q0 25 1 53.5t16 69.5q14 51 49 103q35 43 82 67q51 23 112 23q55 0 95 -23q43 -18 75 -63q27 -39 47 -94q16 -53 17 -109q0 -70 -19.5 -126t-60.5 -97q-35 -41 -94 -66 q-61 -20 -127 -20q-80 0 -142.5 31.5t-117.5 101.5q-49 68 -75 146.5t-26 166.5q0 98 42 183.5t130 166t193.5 121.5t226.5 41h1006l-21 -59h-243l-45 -326l30 31l47 29q25 12 56 18l63 6q63 0 115 -29q53 -25 93 -79t60.5 -122.5t20.5 -140.5q0 -158 -78 -287.5 t-237 -240.5q-150 -102 -345.5 -156.5t-416.5 -54.5q-213 0 -400.5 55.5t-339 166t-232.5 259t-81 326.5zM643 289l6 -60l19 -53q12 -25 25.5 -38t31.5 -13t33.5 7t29 26.5t19.5 46.5l8 59v29q0 16 -3 46t-15 52q-6 20 -25 33q-12 12 -37 12q-17 0 -35 -12 q-16 -10 -29.5 -29.5t-21.5 -50.5zM1536 1247q0 72 30.5 135.5t92.5 112.5q27 20 56.5 35.5t66.5 30.5q72 23 145 22q90 0 153.5 -27.5t121.5 -87.5q49 -51 76.5 -133t27.5 -174l-6 -86l-72 -555h-80l68 545l2 41q0 57 -18.5 98t-58.5 77t-95 53.5t-119 17.5q-18 0 -38.5 -1 t-60.5 -16.5t-81 -49.5t-61.5 -74t-20.5 -78l6 -60l19 -55q12 -27 34 -45q23 -14 56 -25h-127q-25 25 -35 37q-20 29 -31 43q-25 41 -37 84l-12 57z" />
<glyph unicode="&#xc2;" horiz-adv-x="3231" d="M29 436q0 98 44 187.5t138 171.5t211 125q59 20 119.5 30.5t134.5 10.5q33 0 63.5 -2.5t61.5 -8.5q57 -6 112 -24q35 -10 51.5 -16.5t49.5 -23t51 -26.5t43 -29q82 57 173 88t185 31t184.5 -28.5t178.5 -90.5q43 31 84 52l82 37l86 20l98 8h709l-25 -59h-244l-114 -889 h-242l113 889h-207q-31 0 -43 -1t-37 -9q-37 -8 -80 -31l-59 -35l-45 -37q41 -41 77 -90q29 -39 60 -100q8 -20 16 -44t19.5 -67t11.5 -94q0 -43 -4 -72.5t-19 -68.5q-18 -66 -62 -126.5t-99.5 -92t-116.5 -31.5q-53 0 -98 23.5t-79 80t-52 121.5q-16 72 -17 147l2 41 q0 20 2 43t10.5 53.5t34.5 82.5l21 36l24 39l29 37l35 37q-20 27 -53 53l-70 47q-35 20 -75 33t-75 13q-28 -1 -57 -11q-29 -6 -70 -24l-67 -33q-27 -14 -45 -33q39 -39 76 -92q29 -39 59 -100q25 -51 37 -102.5t12 -100.5q0 -43 -4 -72.5t-18 -68.5q-18 -66 -62.5 -126.5 t-99.5 -92t-117 -31.5q-53 0 -98 23.5t-79 80t-52 121.5q-16 72 -17 147l2 41q0 20 2 43t8.5 43.5t14.5 45t18.5 45t20.5 38.5q4 6 25.5 36t31.5 41.5t35 35.5q-31 35 -66.5 61.5t-76.5 43.5l-88 24q-31 6 -45.5 8t-47.5 2q-104 0 -197 -30.5t-176 -90t-130 -141.5t-47 -172 v-33q6 -23 8 -34t8 -34.5t17.5 -54t28.5 -58t34 -38.5l-6 31l-2 21v16v22q0 45 2 64.5t15 63.5t48 96q35 43 82 67q51 23 113 23q55 0 94 -23q41 -18 74 -63q27 -39 47 -94q16 -53 16 -109q0 -70 -19.5 -126t-60.5 -97q-35 -41 -94 -66q-61 -20 -127 -20q-80 0 -144.5 31.5 t-115.5 101.5t-74.5 147.5t-23.5 165.5zM272 289q0 -42 4 -62l19 -53q12 -27 25.5 -38t31.5 -11t36 9t30 27.5t18 43.5l8 59l-6 72q-4 33 -14 55q-6 20 -25 33q-12 12 -34 12q-20 0 -35 -9t-29 -29.5t-22 -51.5zM907 347q0 -19 4 -46l19 -76q10 -33 26 -49q16 -12 43 -16 q31 0 53.5 16.5t40 52t26.5 80.5t9 94l-6 70l-18 68l-29 63q-12 33 -35 60l-57 -66q-23 -27 -40 -60.5t-28 -74.5l-8 -72v-44zM1624 349q0 -19 4 -46l19 -76q12 -29 30 -51q16 -12 43 -16q31 0 54.5 17.5t37 47t23.5 80.5l8 98q0 78 -22 138q-18 66 -62 123l-57 -64 q-25 -31 -42.5 -63.5t-27.5 -73.5l-8 -72v-42zM2388 1247q0 72 30.5 136.5t88 108.5t130.5 67.5t146 23.5q43 0 79 -6t73 -23q70 -29 119 -83t76.5 -134t27.5 -170l-6 -92l-80 -672h-80l80 662l2 35q0 55 -19.5 102t-62.5 80q-35 33 -88 51.5t-121 18.5q-18 0 -38.5 -1.5 t-57.5 -15.5q-45 -16 -86 -51q-43 -31 -63.5 -72t-20.5 -79l6 -62l19 -55q14 -27 35.5 -42.5t54.5 -25.5h-127q-25 25 -35 37q-20 29 -31 43q-25 41 -37 84l-12 57z" />
<glyph unicode="&#xc3;" horiz-adv-x="1372" d="M-129 -313q0 47 18.5 88t55.5 78q37 31 82 49q49 16 108 16l393 -2q74 0 142 37q68 33 122 95.5t80 129.5q6 14 16.5 57.5t10.5 88.5q0 38 -12 75q-10 37 -31.5 70t-45.5 47t-58 19q-25 0 -50.5 -12.5t-54.5 -39.5l-59 -483h-244l117 889h-246l-115 -889h-80l115 948h834 l-25 -59h-244l-41 -326q20 25 41 37l43 25l45 14l52 6q57 0 110.5 -23.5t98.5 -70.5q45 -43 68.5 -100.5t23.5 -118.5q0 -117 -36 -208t-103.5 -146.5t-165 -85t-215.5 -29.5l-369 -2l-51 -6q-20 -6 -47 -25q-18 -16 -31 -37q-10 -25 -10 -47q0 -14 8 -31l31 -43l12 -20 l4 -23q0 -33 -10 -59q-6 -29 -25.5 -49.5t-48.5 -32.5q-16 -6 -26.5 -8t-37.5 -2q-39 0 -67.5 13t-46 40t-26.5 67t-9 89zM528 1247q0 72 31 135.5t92 112.5q27 20 56.5 35.5t66.5 30.5q72 23 146 22q43 0 78.5 -6t72.5 -23q63 -27 118.5 -85t82 -136t26.5 -170l-6 -88 l-67 -555h-84l71 545l2 35q0 55 -19 102t-62 80q-35 33 -91.5 51.5t-121.5 18.5q-45 0 -90.5 -17.5t-89.5 -50.5t-64 -74q-8 -16 -14.5 -36.5t-6.5 -40.5l7 -60q6 -31 19 -54.5t38 -45.5q23 -16 53 -25h-129q-35 35 -61.5 78t-38.5 86l-13 57z" />
<glyph unicode="&#xc4;" horiz-adv-x="1880" d="M29 0l127 948h239l-114 -893h407l80 650q0 45 24.5 89t69.5 89q39 37 90 57q23 8 50.5 14.5t54.5 6.5q109 0 190.5 -46.5t157.5 -142.5q61 -86 94 -183t33 -198q0 -199 -76 -295q-74 -96 -223 -96h-1204zM928 55h311q47 0 83 22.5t71 74.5q29 49 44 107t15 122 q0 84 -20 154q-18 76 -59.5 146.5t-97.5 110t-116 39.5q-29 0 -57.5 -12t-44 -29.5t-23.5 -39.5l-10 -45zM1032 1200q0 74 27.5 127t87.5 105q57 45 125 69q33 10 67.5 16.5t75.5 6.5q104 0 177 -32t126 -99q43 -55 64 -140q10 -37 16 -83t6 -99v-16v-17l-2 -18v-19 q0 -25 -4 -36l-2 -29l-67 -520h-80l67 495l2 25l2 20v25q0 76 -19.5 131t-61.5 97t-96 62.5t-116 20.5q-55 0 -104 -16t-93 -47t-71 -72q-23 -41 -22 -92l6 -37l18 -39l27 -37l29 -28l-29 10l-27 10l-28 6l-29 6l-35 50l-20 61l-13 63z" />
<glyph unicode="&#xc5;" horiz-adv-x="2516" d="M20 436q0 98 44.5 187.5t138.5 171.5t211 125q59 20 119.5 30.5t134.5 10.5q33 0 63.5 -2.5t61.5 -8.5q57 -6 112 -24q35 -10 51.5 -16.5t49 -23t51 -26.5t43.5 -29l84 52l84 37l88 20l100 8h705l-21 -59h-244l-116 -889h-244l117 889h-209q-31 0 -43 -1t-37 -9 q-37 -8 -80 -31q-31 -12 -57 -33l-47 -39q39 -39 75 -92q29 -39 60 -100q25 -51 37 -102.5t12 -100.5q0 -43 -4 -72.5t-19 -68.5q-23 -72 -65.5 -131.5t-96 -89t-114.5 -29.5q-53 0 -98 23.5t-82 82.5q-31 55 -49 123q-8 35 -12.5 69t-4.5 81v34q0 51 8.5 82t16.5 52.5 t19 42t22.5 39t29 42t27.5 35t35 35.5q-31 35 -65.5 60.5t-77.5 44t-83 26.5t-54.5 10t-47.5 2q-96 0 -188 -29.5t-178 -93t-136 -145.5q-43 -78 -43 -170v-8l7 -66q2 -16 8 -35.5t14 -39.5l31 -68q14 -23 33 -35l-7 31l-2 21v16v22q0 45 2.5 64.5t15.5 63.5t48 96 q35 43 82 67q51 23 113 23q55 0 94 -23q41 -18 73 -63q27 -39 48 -94q16 -53 16 -109q0 -68 -19.5 -126t-60.5 -99q-37 -43 -94 -63.5t-125 -20.5q-80 0 -144.5 32.5t-116.5 101.5t-77 144q-23 80 -23 168zM264 289q0 -41 4 -62l19 -53q12 -27 25.5 -38t31.5 -11q19 0 35 8 q18 10 30.5 28.5t18.5 43.5l8 59l-6 72q-4 33 -14 55q-6 20 -25 33q-12 12 -35 12q-20 0 -34.5 -9t-28.5 -29.5t-23 -51.5zM899 347q0 -19 4 -46l19 -76q10 -33 26 -49q16 -12 43 -16q31 0 53.5 16.5t40 52t26.5 80.5t9 94l-6 70l-18 68l-29 63q-12 33 -35 60l-57 -66 q-23 -27 -40 -60.5t-28 -74.5l-8 -72v-44zM1665 1247q0 72 30.5 135.5t92.5 112.5q27 20 56.5 35.5t66.5 30.5q72 23 145 22q43 0 79 -6t73 -23q63 -27 118.5 -85t82 -136t26.5 -170l-6 -88l-82 -672h-84l84 662l2 35q0 61 -20 104q-18 49 -60 80q-35 33 -94 51 q-27 8 -54.5 12.5t-64.5 4.5q-18 0 -38.5 -1.5t-55.5 -15.5q-45 -16 -86 -51q-43 -31 -63.5 -72t-20.5 -79l6 -60q6 -31 19.5 -54.5t37.5 -45.5q23 -16 54 -25h-129q-35 35 -61.5 78t-39.5 86l-12 57z" />
<glyph unicode="&#xc6;" horiz-adv-x="2136" d="M29 160l102 788h246l-92 -708q0 -37 20.5 -58.5t59.5 -21.5q23 0 49 20q12 8 29.5 26.5t30.5 36t28.5 42t25.5 43.5q20 45 21 75l72 545h243l-116 -893h624l84 672h-12q-43 0 -82 19.5t-75 61.5t-60 103q-18 59 -19 129q0 113 32 200t99.5 152.5t156.5 98.5t187 33 q92 0 163 -35t122 -107q45 -61 70 -145q10 -37 16 -83t6 -97l-2 -33l-2 -29l-4 -26v-21l-67 -520h-80l67 496l4 49q0 68 -22.5 124t-68.5 102t-103.5 69.5t-120.5 23.5q-59 0 -120.5 -18.5t-120 -56t-89.5 -89t-31 -112.5q0 -55 11.5 -93t37 -68t52.5 -44q37 -14 67 -14 l21 151h240l-125 -948h-1112l24 160q-33 -45 -70 -74q-16 -16 -33.5 -27.5t-38 -21.5t-32.5 -14.5t-53 -14.5l-109 -8q-25 0 -50.5 13.5t-53 44t-35.5 50t-12 52.5z" />
<glyph unicode="&#xc7;" horiz-adv-x="1331" d="M20 0l115 948h834l-25 -59h-244l-112 -889h-244l117 889h-246l-115 -889h-80zM471 1247q0 72 30.5 135.5t92.5 112.5q27 20 56.5 35.5t66.5 30.5q72 23 147 22q43 0 79 -6t73 -23q63 -27 121 -86q49 -51 76.5 -135t27.5 -176v-16v-21l-2 -24l-2 -21l-84 -672h-82l82 662 l2 37q0 57 -20 100q-18 47 -62 80q-35 33 -88 51.5t-121 18.5q-47 -1 -96 -19q-43 -16 -87 -49t-65 -74q-8 -16 -14 -36.5t-6 -40.5l6 -60q6 -31 19.5 -54.5t37.5 -45.5q23 -16 54 -25h-125q-25 25 -35 37q-20 29 -31 43q-25 41 -37 84l-12 57z" />
<glyph unicode="&#xc8;" horiz-adv-x="2048" d="M20 449q0 100 42 186t125 167t190.5 126t234.5 45q98 0 179 -27q84 -25 153.5 -79t104 -120.5t34.5 -146.5l-12 -82l-8 -76l-6 -69l-2 -58q0 -55 9 -95t28.5 -68.5t60.5 -51.5q39 -16 90 -16q76 0 138.5 35t121.5 110q53 76 81 155t28 163v39q-6 25 -8 37l-19 67 q-12 31 -31.5 58.5t-50.5 48.5l-24 -29l-33 -23l-39 -14l-43 -4q-63 0 -117 21q-49 23 -92 67q-33 39 -59 98q-20 61 -21 127q0 111 33 199t101.5 156.5t157.5 104.5t192 36h18q84 0 152.5 -37t126 -111.5t85 -164.5t27.5 -191v-18v-21l-2 -24l-2 -21l-68 -567h-79l67 555 l2 31q0 63 -20 116q-10 31 -23.5 54.5t-36.5 50.5q-49 57 -113.5 87t-144.5 30q-78 0 -137 -23q-57 -18 -113.5 -61t-87 -105.5t-30.5 -134.5q0 -35 12 -65.5t43 -66.5t61 -52q29 -10 64 -15q23 0 44 12.5t40 36.5q-16 2 -29.5 5.5t-32.5 11.5q-16 2 -29.5 5t-31.5 11 q-35 8 -55.5 28.5t-20.5 49.5l2 19q0 12 8 26l25 21l14 8l17 6l12 4l16 2q88 0 154 -38t113 -118q41 -68 61.5 -164t20.5 -200q0 -84 -33 -168q-14 -39 -39 -80t-57 -82q-74 -92 -170.5 -140t-208.5 -48q-92 0 -152.5 16.5t-104.5 55t-75 116.5q-25 78 -25 187v48t4 56 l17 119l2 28q0 55 -21 99q-18 47 -57 89t-84 62q-41 23 -84 23q-98 0 -184 -36t-161 -105.5t-113 -145.5t-38 -153l7 -66q2 -14 8 -37.5t14 -42.5l31 -70q16 -27 33 -36l-7 43l-2 47q0 45 2.5 64.5t15.5 63.5t48 95q35 43 82 68q51 23 113 22q55 0 94 -22q41 -18 73 -64 q27 -39 48 -94q16 -53 16 -109q0 -70 -21 -129q-10 -31 -23 -54.5t-36 -49.5q-37 -43 -94 -68q-57 -20 -125 -20q-82 0 -145.5 33.5t-115.5 103.5t-77 149q-23 84 -23 173zM264 299q0 -40 4 -63l19 -54q10 -25 24 -37q8 -6 33 -10q18 0 33.5 9.5t30.5 29.5l20 43l8 59l-6 72 q-4 33 -14 55q-6 20 -25 33q-12 12 -35 13q-18 0 -33.5 -10.5t-29.5 -31t-23 -51.5z" />
<glyph unicode="&#xc9;" horiz-adv-x="2324" d="M20 436q0 100 42 186.5t125 167t190.5 126t234.5 45.5q131 0 242 -38t191.5 -108t123.5 -168t43 -219q0 -29 -2 -59.5t-10 -72.5t-28.5 -90t-43 -84t-53.5 -67h473l88 672h-12q-43 0 -82 19.5t-74.5 61.5t-60.5 103q-18 59 -18 129q0 113 31.5 200t99 152.5t155.5 98.5 t185 33q90 0 162.5 -36t123.5 -108q45 -59 68.5 -145t23.5 -186l-6 -101l-71 -520h-80l71 496l2 47q0 70 -22.5 126t-69.5 102t-105.5 69.5t-121.5 23.5q-61 0 -119.5 -18.5t-117 -56t-88 -90t-29.5 -111.5q0 -55 11 -95t33.5 -68t51.5 -42q37 -14 68 -14l20 151h244 l-129 -948h-1020v55q49 31 90 72q33 37 65 94q23 49 39 109q6 31 10.5 57.5t4.5 61.5q0 90 -22.5 161.5t-69.5 130.5q-49 68 -120 102t-157 34h-18q-92 0 -175 -36t-161 -112q-66 -66 -107 -143q-35 -74 -35 -150l7 -65q2 -14 8 -38t14 -42l31 -70q16 -27 33 -37l-7 31 l-2 21v16v22q0 45 2.5 64.5t15.5 63.5t48 96q35 43 82 67q51 23 113 23q55 0 94 -23q41 -18 73 -63q27 -39 48 -94q16 -53 16 -109q0 -68 -19.5 -126t-60.5 -99q-37 -43 -94 -63.5t-125 -20.5q-80 0 -144.5 32.5t-116.5 101.5t-77 144q-23 80 -23 168zM264 289q0 -42 4 -62 l19 -53q12 -27 25.5 -38t31.5 -11t35.5 9t30 27.5t18.5 43.5l8 59l-6 72q-4 33 -14 55q-6 20 -25 33q-12 12 -35 12q-20 0 -34.5 -9t-28.5 -29.5t-23 -51.5z" />
<glyph unicode="&#xca;" horiz-adv-x="1900" d="M-27 -254q0 27 9 53l18 49q10 18 31 35q14 6 45 11l221 -3v-55h-166q-37 0 -59 -20q-20 -27 -21 -70q0 -41 20.5 -74.5t57.5 -60.5t74 -38t82 -11q59 0 101 40t73 122q25 80 92 122q72 39 174 39q-25 18 -37 49t-12 66h244l-2 -12l4 -27l18 -33l18 -24l19 -10l244 -3 l-25 -55h-252q-80 0 -128 -20.5t-73 -67.5l-43 -88l-41 -90q-43 -45 -127 -70q-37 -10 -89 -16t-115 -6q-25 0 -54.5 1t-74.5 15q-57 14 -111.5 50t-84.5 87.5t-30 114.5zM29 0l127 948h243l-114 -893h403l80 650q0 47 25.5 89t70.5 87q39 37 92 59q23 8 50.5 14.5t54.5 6.5 q102 -1 188 -48q84 -45 156 -141q61 -86 94 -183t33 -198q0 -199 -75 -295t-224 -96h-1204zM932 55h311q47 0 84 23.5t66.5 72t44.5 105.5q6 29 10 58.5t4 66.5q0 84 -20 154q-18 76 -59.5 146.5t-95.5 110t-114 39.5q-29 0 -57.5 -12t-46.5 -35l-21 -34l-14 -45zM1036 1200 q0 74 27 129q29 59 85 103.5t124 68.5q33 10 67.5 16.5t75.5 6.5q104 0 177 -32t128 -95q41 -51 64.5 -136t23.5 -186v-18v-19l-2 -18v-19q0 -23 -4 -34l-2 -31l-71 -520h-80l71 495l4 62q0 76 -22 129q-18 55 -58 99t-96.5 67.5t-120.5 23.5q-55 0 -105 -16t-93 -48 t-65.5 -72t-22.5 -91l6 -37l18 -39l27 -37l29 -28l-35 14l-25 8l-10 2q-10 2 -12 4h-15l-16 4l-37 52l-20 57l-13 63z" />
<glyph unicode="&#xcb;" horiz-adv-x="2367" d="M37 436q0 121 48 215t144 170q84 66 192.5 100.5t225.5 34.5q59 0 81 -3t63 -13q70 -12 134 -42t119.5 -73t96.5 -100l30 223h834l-25 -59h-243l-117 -889h-240l115 889h-244l-114 -889h-244l80 588q-16 72 -47 119q-27 51 -70 89t-108 60q-25 8 -61 14.5t-71 6.5h-18 q-92 0 -176 -37t-162 -111q-68 -66 -108 -143q-35 -74 -35 -150v-33q6 -23 8 -34t8 -34.5t17.5 -54t29 -58t33.5 -38.5l-6 31l-2 21v16v22q0 45 2 64.5t15.5 63.5t47.5 96q35 43 82 67q51 23 113 23q55 0 94 -23q41 -18 74 -63q27 -39 47 -94q16 -53 16 -109 q0 -70 -19.5 -126t-60.5 -97q-35 -41 -94 -66q-61 -20 -127 -20q-80 0 -144.5 31.5t-115.5 101.5t-74.5 147.5t-23.5 165.5zM281 289q0 -42 4 -62l18 -53q12 -27 25.5 -38t31.5 -11t36 9t30 27.5t18 43.5l9 59l-7 72q-4 33 -14 55q-6 20 -24 33q-12 12 -35 12 q-20 0 -34.5 -9t-29 -29.5t-22.5 -51.5zM1516 1247q0 72 30.5 136.5t88 108.5t130 67.5t148.5 23.5q41 0 76.5 -6t72.5 -23q70 -29 119 -83t77 -134t28 -168l-7 -94l-79 -672h-80l80 662l2 35q0 61 -21 104q-18 49 -59 80q-35 33 -90.5 50.5t-118.5 17.5q-47 0 -93 -17.5 t-90 -50.5t-65 -74q-8 -16 -14 -36.5t-6 -40.5l6 -62l18 -55q14 -27 35.5 -42.5t54.5 -25.5h-127q-25 25 -35 37q-20 29 -30 43q-25 41 -37 84l-12 57z" />
<glyph unicode="&#xcc;" horiz-adv-x="2639" d="M25 440q0 121 48 215.5t144 169.5q84 66 192.5 101t225.5 35q27 0 58.5 -1.5t86.5 -15.5q70 -12 134.5 -42t120 -75t93.5 -100q18 51 49 94t74 73t99 50q55 16 110 17q49 0 87 -19.5t66.5 -59.5t43 -94.5t14.5 -113.5l-4 -74l-4 -45l-14 -119l-7 -65l-2 -54 q0 -57 9.5 -98t30 -72.5t59.5 -50.5q18 -8 39.5 -12t54.5 -4q65 0 131 37q61 37 119 112q27 35 44 66t34 76q27 80 26 149v17q0 47 -8 81l-18 74q-12 33 -33 60q-14 25 -39 45l-27 -29l-32 -23l-43 -14l-43 -4q-61 0 -115 21q-49 23 -92 67q-33 39 -60 98q-20 61 -20 127 q0 111 32.5 199t101.5 156.5t158 104.5t189 36h19q86 0 155.5 -37t127 -111.5t85 -164.5t27.5 -191v-18v-21l-2 -24l-2 -21l-68 -567h-84l72 555l2 29q0 63 -19.5 116.5t-63.5 108.5t-109.5 85t-145.5 30q-78 0 -137 -23q-61 -18 -116.5 -60t-90.5 -108q-29 -61 -29 -133 q0 -33 13.5 -64.5t44 -66.5t61.5 -51q16 -8 30.5 -12.5t35.5 -4.5q23 0 44 12.5t40 36.5l-33 11l-56 14q-55 12 -80.5 31.5t-27.5 52.5l2 21q0 14 7 25t24 22l14 8l16 6l13 4l16 2q86 0 151.5 -38t112.5 -118q20 -33 33.5 -69.5t24 -83.5t16.5 -101.5t6 -109.5 q0 -84 -33 -168q-14 -39 -38.5 -80t-57.5 -82q-76 -94 -170 -141t-209 -47q-92 0 -151.5 17.5t-102.5 53.5q-49 43 -74.5 120t-25.5 188v45t4 55l14 119l13 63l4 54q0 57 -23 86q-18 29 -61 28q-25 0 -49.5 -13t-46.5 -42q-14 -18 -35 -64l-21 -75l-80 -625h-243l80 592 q-18 74 -54 125q-29 49 -86 90q-45 33 -103.5 49t-121.5 16q-98 0 -179 -28.5t-156 -89t-113.5 -142.5t-38.5 -172l6 -65q2 -14 8 -38t14 -42l31 -70q16 -27 33 -37l-6 31l-2 21v16v23q0 45 2 64t15 63.5t48 95.5q35 43 82 67q51 23 113 23q55 0 94 -23q41 -18 74 -63 q27 -39 47 -94q16 -53 16 -109q0 -68 -19.5 -126t-60.5 -99q-37 -43 -94 -63.5t-125 -20.5q-80 0 -144.5 32.5t-116.5 101.5t-77 144q-23 80 -22 168zM268 293q0 -42 4 -62l19 -53q12 -27 25.5 -38t31.5 -11t35.5 9t30 27.5t18.5 43.5l8 59l-6 72q-4 33 -14 55q-6 20 -25 33 q-12 12 -35 12q-20 0 -34.5 -9t-28.5 -29.5t-23 -51.5z" />
<glyph unicode="&#xcd;" horiz-adv-x="2199" d="M-74 -254q0 74 19.5 136.5t56.5 117.5q45 66 110.5 100.5t147.5 34.5h983q66 0 125 25.5t113.5 83t82 114t27.5 113.5v27q0 72 -19.5 126t-58.5 93q-33 37 -85 58.5t-105 21.5t-105.5 -18.5t-101.5 -55.5q-41 -35 -72 -84q-23 -43 -32 -107l-35 -323h-229l32 323l2 23 q0 51 -22 94q-16 39 -62 84q-45 41 -110 64q-29 10 -65 16t-79 6q-53 0 -93 -7t-73.5 -23.5t-62.5 -45.5q-18 -20 -35 -63l41 6q23 0 33 4l29 2l28 2q57 0 106.5 -12t86.5 -36.5t58.5 -71t21.5 -103.5q0 -53 -24.5 -99t-74.5 -83q-37 -27 -98 -47q-29 -6 -55.5 -10.5 t-59.5 -4.5q-18 0 -38.5 1t-58.5 15.5t-73.5 49.5t-54 85t-18.5 118q0 106 36.5 190t103.5 143.5t156 89t191 29.5q55 0 76.5 -3t60.5 -13q68 -12 123 -45q66 -33 115 -88q47 -47 78 -119q33 61 80 110.5t108 88.5q57 33 126 51t144 18q43 0 79 -6t73 -22q68 -29 128 -86.5 t93 -146.5t33 -191v-25q0 -43 -6 -79t-23 -73q-29 -70 -84 -116q-68 -61 -174 -92t-254 -31h-823q-63 0 -117.5 -25.5t-103.5 -70.5q-41 -47 -70 -105q-23 -57 -22 -121q0 -51 15 -84.5t50 -72.5q10 -10 27.5 -22.5t53.5 -27t85 -14.5l12 -2q90 0 175 33t161 90l133 115 l136 110q88 57 195.5 87t227.5 30q45 0 64.5 -2t63.5 -16.5t87 -51.5q43 -33 65 -84t22 -112q0 -66 -26 -120t-76 -100t-107.5 -69t-122.5 -23l-19 -2q-55 0 -104 25q-47 18 -93 62t-68.5 88.5t-22.5 93.5l2 39l12 34l20 33l29 31l43 -27l-22 -41l-7 -51q0 -37 8.5 -62.5 t11.5 -31.5t20.5 -28.5t39 -33t53.5 -14.5q41 0 72 15.5t58 52.5q20 29 30 64.5t11.5 53t1.5 27.5q0 41 -10.5 72t-28 53.5t-50.5 42.5q-25 12 -61 12q-88 0 -172 -31.5t-168 -99.5l-143 -123l-142 -122q-92 -66 -194.5 -99t-206.5 -33q-76 0 -140.5 26t-119.5 76t-83 107.5 t-28 114.5zM109 471q-1 -74 30 -111t97 -36q33 0 51 7t30 25l17 45l6 70q0 27 -10 47q-6 23 -22.5 36t-41.5 24l-41 8q-27 0 -46 -7.5t-36 -23.5q-16 -12 -26 -37zM1360 1188q0 74 27.5 131t84 101t125.5 69q33 10 68 16t76 6q104 0 178 -32q74 -29 127 -93q39 -51 65 -135 q23 -84 23 -184v-25q0 -14 -4 -43l-6 -75l-72 -521h-80l72 496l4 62q0 31 -3 61.5t-20 71.5q-18 55 -58 99t-96 67.5t-120 23.5q-55 0 -102 -16q-47 -14 -92.5 -47t-69 -75t-23.5 -93l6 -37q6 -16 23 -33l29 -33l34 -22l-45 10l-26 6l-25 2l-33 2l-34 49q-12 25 -19 58 l-12 63z" />
<glyph unicode="&#xce;" horiz-adv-x="2619" d="M20 436q0 100 42 186.5t125 167t190.5 126t234.5 45.5q131 0 242 -38t191.5 -108t123.5 -168t43 -219q0 -29 -2 -59.5t-10 -72.5t-28.5 -90t-43 -84t-53.5 -67h553l37 269q-68 0 -129 18t-107.5 59t-76.5 101q-25 59 -25 135q0 70 22.5 124t67.5 101t101.5 73t121.5 26 q66 0 120.5 -19.5t100.5 -56.5t69.5 -82t23.5 -98l-2 -25l-29 -248q61 20 64 23q25 12 40 20t32.5 17.5t41.5 27.5q43 29 67.5 56.5t39.5 60.5h80l-68 -637h-348l-55 -537h-256l59 537h-860v55q49 31 90 72q33 37 65 94q23 49 39 109q6 31 10.5 57.5t4.5 61.5 q0 90 -22.5 161.5t-69.5 130.5q-49 68 -120 102t-157 34h-18q-92 0 -175 -36t-161 -112q-66 -66 -107 -143q-35 -74 -35 -150l7 -65q2 -14 8 -38t14 -42l31 -70q16 -27 33 -37l-7 31l-2 21v16v22q0 45 2.5 64.5t15.5 63.5t48 96q35 43 82 67q51 23 113 23q55 0 94 -23 q41 -18 73 -63q27 -39 48 -94q16 -53 16 -109q0 -68 -19.5 -126t-60.5 -99q-37 -43 -94 -63.5t-125 -20.5q-80 0 -144.5 32.5t-116.5 101.5t-77 144q-23 80 -23 168zM264 289q0 -41 4 -62l19 -53q12 -27 25.5 -38t31.5 -11t35.5 9t30 27.5t18.5 43.5l8 59l-6 72 q-4 33 -14 55q-6 20 -25 33q-12 12 -35 12q-20 0 -34.5 -9t-28.5 -29.5t-23 -51.5zM1409 637q1 -57 21 -100q16 -39 61 -78q12 -10 34.5 -23.5t45.5 -23.5q43 -18 100 -25l29 238l2 37q0 80 -35 118.5t-106 38.5q-33 0 -60.5 -14t-49 -41t-30 -54.5t-10.5 -37.5t-2 -35z M1700 1180q0 70 34.5 130t103.5 112.5t140.5 77t149.5 24.5q108 0 184 -35q78 -33 137 -105q47 -59 76 -149q27 -94 27 -195l-2 -67l-6 -62l-68 -520h-84l72 498l4 51q0 74 -24.5 135.5t-74 110.5t-105.5 73.5t-124 24.5q-55 0 -104 -16.5t-74 -28.5q-14 -6 -45 -27 q-57 -35 -86 -77q-27 -47 -27 -95l6 -45l21 -53l24 -49q12 -16 29 -29l-29 25l-26 18l-29 13l-33 16l-34 49q-12 25 -19 57l-12 64zM1880 55h264l51 453l-71 -49l-66 -39l-76 -37l-65 -27z" />
<glyph unicode="&#xcf;" horiz-adv-x="3108" d="M33 436q0 100 42 186.5t125 167t190.5 126t234.5 45.5q131 0 241.5 -38t191.5 -108t124 -168t43 -219q0 -29 -2 -59.5t-9.5 -70.5t-28 -86t-46 -86t-56.5 -71h277l72 600q10 66 32.5 120t59.5 96t83 66t93 24q16 0 37.5 -1.5t59.5 -15.5t78 -49t66.5 -75t47.5 -93 q16 45 47.5 89t76 77t91.5 51q25 8 45 12.5t51 4.5q80 0 149.5 -37t119.5 -108t77 -174t27 -220v-41q0 -137 -51.5 -241.5t-155.5 -176.5q-86 -61 -199 -92q-59 -16 -115.5 -24.5t-128.5 -8.5l-1552 -2l-53 -2q-14 -4 -23.5 -7t-26 -11.5t-24.5 -23.5t-12 -46l6 -29 q6 -16 20 -30l21 -31l8 -27q0 -33 -8 -57.5t-28.5 -47t-42 -30.5t-32 -10t-36.5 -2q-41 0 -70 13t-47.5 38t-26.5 68l-8 90q0 53 15.5 87t47 59.5t80.5 43.5q47 12 109 13l1573 -3q111 0 207 37q96 33 165.5 96.5t106.5 153.5t37 203l2 72q0 80 -9 132t-17.5 81.5 t-20.5 58.5q-27 55 -59.5 80.5t-79.5 25.5q-35 0 -75 -23.5t-83 -72.5t-72 -110q-10 -27 -19 -58.5t-16 -74.5l-59 -484v-8h-246l80 588l2 20l2 19v22q0 41 -7 72t-20.5 58.5t-33 37.5t-45.5 14q-33 0 -58.5 -15t-45 -50t-31.5 -80l-15 -98l-71 -588h-660v55q49 27 88 70 q18 20 41 53q12 20 25 39q25 53 37 109q6 29 10 58.5t4 61.5q0 92 -22.5 164t-69.5 131q-49 68 -120 102t-153 34h-18q-92 0 -176 -37t-162 -111q-68 -66 -109 -143q-35 -74 -34 -150v-33q6 -23 8 -34t8 -34.5t17.5 -54t29 -58t33.5 -38.5l-6 31l-2 21v16v22q0 45 2 64.5 t15 63.5t48 96q35 43 82 67q51 23 113 23q55 0 94 -23q41 -18 74 -63q27 -39 47 -94q16 -53 16 -109q0 -70 -19.5 -126t-60.5 -97q-35 -41 -94 -66q-61 -20 -127 -20q-80 0 -144.5 31.5t-115.5 101.5t-74.5 147.5t-23.5 165.5zM276 289q1 -42 5 -62l18 -53q12 -27 25.5 -38 t31.5 -11t36 9t30 27.5t18 43.5l9 59l-7 72q-4 33 -14 55q-6 20 -25 33q-12 12 -34 12q-20 0 -35 -9t-29 -29.5t-22 -51.5zM2257 1200q0 74 26.5 127t83 101.5t125.5 72.5q33 10 68 16.5t76 6.5q104 0 177 -32t128 -95q41 -51 64.5 -136t23.5 -186v-18v-19l-2 -18v-19 q0 -23 -4 -34l-2 -31l-74 -520h-80l70 495l4 64q0 74 -19.5 129t-60.5 100t-96 66q-51 23 -117 22q-55 0 -104.5 -16t-94.5 -48t-67.5 -72t-22.5 -91l6 -39l21 -39l22 -33l31 -26l-24 12l-29 8l-31 6l-31 7l-34 47l-21 55l-10 63z" />
<glyph unicode="&#xd1;" horiz-adv-x="1476" d="M33 332q0 51 15 92t47 72.5t85 50.5q25 8 52.5 12t66.5 4h45l47 385h834l-25 -59h-239l-46 -326h76q27 0 60.5 -1t81.5 -15q66 -14 119 -50t82.5 -93.5t29.5 -127.5q0 -57 -23 -108q-18 -49 -61 -92t-94 -64.5t-103 -21.5l-34 4l-39 6l-37 12q-14 6 -25 21v114 q37 1 72 13q31 12 51.5 36.5t32.5 57.5t12 70q0 35 -10 66.5t-32.5 60t-57.5 43t-68 14.5h-41l-18 -152q-10 -90 -47 -158.5t-103 -121.5q-51 -41 -121 -66q-68 -20 -135 -20q-109 0 -191.5 19.5t-139.5 66.5q-55 41 -91 106q-29 68 -28 150zM113 332q0 -54 18 -103 q18 -43 57 -73.5t93 -49.5q27 -6 53 -10t57 -4q45 0 85 17.5t78 54.5t61.5 86t31.5 106l17 152h-388q-37 0 -64.5 -9.5t-51.5 -31.5q-25 -18 -34 -46t-11 -43.5t-2 -45.5zM432 563h240l45 326h-246zM717 1247q0 80 26.5 143.5t85 114.5t136 77t168.5 26q43 0 63.5 -2 t64.5 -15.5t94 -49.5t75 -87q6 -14 16 -45t10 -70q0 -41 -2 -58t-16.5 -56t-44 -71t-74.5 -54q-43 -16 -94 -17q-39 0 -68 13.5t-54.5 41t-39.5 61.5t-14 71l2 30q0 12 8 29l14 25l23 22l-27 2q-43 0 -74 -10q-35 -6 -69 -27q-6 -4 -21.5 -15t-31 -28.5t-29.5 -50.5l-8 -35 l-2 -41q0 -39 8 -68.5t11 -35.5t17 -29q4 -6 15.5 -21.5t27.5 -31.5q29 -20 60 -37h-129l-58 68q-23 29 -41 71l-22 74zM1130 1278q0 -25 5 -37l12 -29q10 -14 22 -18l31 -6q18 0 31.5 7t23.5 24l15 32l6 39l-6 37q-4 18 -12.5 31.5t-24.5 21.5l-33 9q-13 -1 -29 -11 q-8 -4 -22 -24l-14 -35z" />
<glyph unicode="&#xd2;" d="M29 160l102 788h246l-92 -708q0 -37 20.5 -58.5t59.5 -21.5q16 0 42.5 18.5t58.5 56t54 82.5q8 16 16.5 45t12.5 41l72 545h243l-116 -893h624l84 672h-12q-45 0 -90 19.5t-91 64.5t-73 102.5t-27 126.5v13q0 109 43 197.5t131 154.5q80 57 177.5 88t214.5 31 q53 0 103 -20.5t89 -59.5q41 -35 63.5 -83t22.5 -101q0 -47 -17.5 -91.5t-56.5 -83.5q-33 -29 -80 -53q-43 -16 -90 -16q-25 0 -37 2t-41.5 13t-59.5 40t-45 64.5t-15 68.5v15l4 16l2 12l6 17l14 28l25 25l-37 2q-35 0 -60.5 -4t-58.5 -19q-57 -18 -105 -62t-74 -94 t-26 -112q0 -53 17.5 -92t54.5 -76q31 -31 68 -49q39 -14 73 -14l21 151h240l-125 -948h-1112l24 160q-33 -45 -70 -74q-16 -16 -33.5 -27.5t-38 -21.5t-32.5 -14.5t-53 -14.5l-109 -8q-25 0 -50.5 13.5t-53 44t-35.5 50t-12 52.5zM1649 1198l6 -41q6 -18 20 -33l31 -22 l45 -6q18 0 33.5 7t30.5 25l20 35l8 37l-6 39l-16 39q-8 14 -25 29q-8 6 -33 10q-27 0 -47 -10q-20 -6 -37 -27l-22 -39z" />
<glyph unicode="&#xd3;" horiz-adv-x="1288" d="M29 332q0 55 15 94t47 70.5t85 50.5q25 8 52.5 12t68.5 4h43l47 385h834l-25 -59h-240l-45 -326h285l-20 -55h-273l-18 -152q-10 -90 -47 -158.5t-103 -121.5q-51 -41 -121 -66q-68 -20 -135 -20h-26q-90 0 -164 20q-84 18 -142 66q-55 41 -90 106q-29 68 -28 150z M109 332q0 -53 18 -99.5t57 -77t92 -49.5q27 -6 53.5 -10t57.5 -4q45 0 85 17.5t78 54.5t61.5 86t31.5 106l16 152h-387q-36 0 -65 -10q-27 -8 -51 -31q-25 -18 -34 -46t-11 -43.5t-2 -45.5zM428 563h240l45 326h-244zM700 1247q0 80 27 143.5t85 114.5t136 77t168 26 q61 0 120.5 -19.5t104.5 -52.5t72 -81t27 -107v-9q0 -55 -15.5 -97t-48.5 -81t-76 -58.5t-92 -19.5q-39 0 -67.5 13.5t-54 41t-40 61.5t-14.5 73q0 35 10.5 56.5t36.5 47.5l-26 2q-43 0 -74 -10q-35 -6 -70 -27l-53 -38q-18 -18 -27 -41l-10 -45l-2 -46q0 -39 8.5 -68.5 t11.5 -35.5t17 -29q4 -6 15.5 -21.5t27.5 -31.5q29 -20 59 -37h-129l-57 68q-23 29 -41 71l-22 74zM1106 1284q0 -25 4 -39l16 -31l25 -20q12 -6 33 -6q18 4 33 14l28 31l19 37l6 41q0 35 -19.5 56.5t-54.5 21.5q-21 -1 -39 -9q-12 -4 -26.5 -20.5t-20.5 -36.5z" />
<glyph unicode="&#xd4;" horiz-adv-x="1456" d="M-70 -313q0 47 18.5 89t51.5 77q39 33 88 49t105 16l591 -2q66 0 121 29q57 25 101.5 74t67 108t22.5 125t-11 104q-8 45 -28.5 80t-50.5 53q-25 18 -62 19h-37l-18 -152q-12 -86 -49 -156.5t-103 -123.5q-51 -39 -119 -66q-68 -20 -135 -20q-109 0 -191.5 19.5 t-139.5 66.5q-55 41 -91 106q-29 68 -28 150q0 55 13 93t46 70.5t84 51.5q25 8 52.5 12t68.5 4h43l47 385h838l-25 -59h-244l-41 -326h76q68 0 126.5 -17.5t111.5 -57t81.5 -97t28.5 -125.5v-14q0 -72 -23.5 -139.5t-76.5 -127t-130 -91t-165 -31.5l-637 -2l-51 -6 q-20 -6 -47 -25q-18 -16 -31 -37q-6 -16 -10 -47l6 -31q8 -18 23 -30l22 -29l8 -27q0 -33 -10 -61.5t-27.5 -48t-50.5 -31.5q-16 -6 -26.5 -8t-36.5 -2q-43 0 -68.5 12t-43 40t-25.5 67zM113 332q0 -56 20 -103q16 -39 62 -77q37 -31 84 -46q25 -6 51 -10t57 -4 q45 0 85 17.5t78 54.5t61.5 86t31.5 106l21 152h-392q-37 0 -63.5 -9.5t-48 -28.5t-37.5 -58q-6 -18 -8 -34t-2 -46zM428 563h244l41 326h-242zM713 1247q-1 85 28 144q29 66 86.5 115.5t137 75.5t168.5 26q61 0 117.5 -18.5t109.5 -55.5q43 -35 69.5 -84t26.5 -111 q0 -55 -15.5 -97t-48 -81t-75.5 -58.5t-92 -19.5q-39 0 -71 13.5t-56.5 41t-37.5 59.5t-13 71q0 29 12 58.5t37 49.5l-27 2q-43 0 -76 -10q-35 -6 -69 -27l-56 -38q-16 -16 -26 -46l-11 -38l-2 -21v-10v-12v-29.5t7.5 -42.5t26 -61.5t45 -53t61.5 -41.5h-129l-58 68 q-23 29 -41 71l-22 74zM1133 1260q0 -20 4 -31l14 -23l20 -14l27 -4l27 4l22 14l15 23l6 31q0 35 -4 51l-7 41q-6 16 -15 24t-30 13q-18 0 -32.5 -9.5t-26.5 -31.5l-16 -43z" />
<glyph unicode="&#xd5;" horiz-adv-x="1564" d="M8 0l127 948h246l-117 -893h844l88 672h-12q-29 0 -45 4l-45 19q-23 8 -47 26l-46 41q-47 47 -77 109q-25 59 -25 127q0 109 44 197.5t132 154.5q78 57 177.5 88t215.5 31q53 0 98.5 -18.5t92.5 -63.5q41 -35 63.5 -83t22.5 -99q0 -47 -17.5 -91.5t-56.5 -83.5 q-33 -29 -80 -53q-43 -16 -88 -16q-25 0 -37 2t-41.5 13t-61.5 42t-50 64q-14 37 -15 69q0 29 12.5 56.5t41.5 54.5l-37 2q-35 0 -60.5 -4t-58.5 -19q-57 -18 -105.5 -62t-74 -94t-25.5 -112q0 -53 17.5 -92t54.5 -76q31 -31 67 -49q39 -14 74 -14l21 151h243l-129 -948 h-1331zM1382 1221l7 -41l12 -37q6 -14 20 -25l27 -14l33 -4l39 6q18 6 31.5 18.5t23.5 32.5l8 43q0 27 -8 43q-4 16 -25 35l-34 20l-41 9l-37 -7l-29 -16q-12 -8 -19.5 -23.5t-7.5 -39.5z" />
<glyph unicode="&#xd6;" horiz-adv-x="1456" d="M-18 -313q0 47 17 89t54 77q37 31 86 49q53 16 109 16l311 -2q119 0 211 33q94 27 168 86t114 149t40 197l2 78q0 80 -9.5 133t-17.5 81.5t-20 55.5q-25 49 -59 75.5t-81 26.5q-39 0 -76.5 -21.5t-81.5 -70.5t-73 -110q-10 -27 -19.5 -58.5t-15.5 -74.5l-57 -488v-8h-244 l80 588l4 55q0 43 -8 74q-6 39 -23 61q-12 25 -31.5 37t-46.5 16q-33 0 -58.5 -16t-43.5 -50t-30.5 -78t-18.5 -99l-68 -588h-80l80 655q4 43 8.5 63.5t20.5 55.5q25 57 63.5 98t83.5 65t93 24q53 0 93 -15.5t81 -50.5q35 -29 65 -76q10 -14 23.5 -39.5t23.5 -52.5 q16 45 48 89t77 77t92 51q25 8 45.5 12.5t51.5 4.5q80 0 149.5 -35t119.5 -108t75.5 -175t25.5 -221v-41q0 -70 -12 -128t-41 -112q-49 -98 -154 -166q-80 -51 -195.5 -81.5t-244.5 -30.5l-323 -2l-54 -6q-20 -6 -47 -25q-18 -16 -31 -37q-6 -16 -10 -47l2 -16l4 -17l9 -14 l14 -16l20 -29l9 -25q0 -35 -11 -57q-10 -31 -28.5 -50.5t-45 -31.5t-65.5 -12q-41 0 -70.5 13t-46.5 42l-22 66q-10 41 -10 88zM915 1200q0 72 31 132.5t92 107.5q49 37 119 59q76 20 148 21q76 0 136 -18.5t118 -57.5q53 -41 82.5 -99.5t29.5 -132.5q0 -47 -18.5 -91 t-54 -82t-78.5 -58t-93 -20h-8q-47 0 -81.5 11t-69.5 35.5t-58 55.5q-16 29 -26 70l-2 53l2 31q0 20 4 30l8 27l12 18q-34 0 -71 -18q-31 -18 -60 -53q-12 -18 -22 -37q-2 -4 -19 -39q-12 -37 -12 -80l6 -37l19 -37l26 -37l29 -26l-49 18l-51 10l-37 54l-29 63l-18 64z M1264 1196l6 -43l18 -37q12 -14 31 -24l39 -9h10q17 1 31 9l26 28l19 33l8 35q0 20 -8 39l-19 45q-12 20 -25.5 32.5t-31.5 12.5q-27 0 -47 -10q-18 -6 -31 -27l-20 -39z" />
<glyph unicode="&#xd8;" horiz-adv-x="2283" d="M43 344v62.5t8 89.5q0 39 6 71q0 4 17.5 73t48.5 125t70 99l18 19l18 12l9 4l10 4h8l8 2l29 -6l22 -18l17 -25l6 -27q0 -16 -4 -24l-15 -21q-47 -39 -81.5 -91t-59.5 -107q-14 -35 -24.5 -67t-16.5 -50q-12 -55 -12 -113v-12q0 -86 16.5 -155.5t55.5 -141.5 q74 -127 221 -235q131 -92 300 -143.5t365 -51.5q164 0 301.5 38t262.5 118q139 90 209.5 214t70.5 277q0 78 -8 125q-6 53 -22.5 85t-36 47.5t-48.5 19.5q-47 0 -78.5 -13.5t-54.5 -44.5l-63 -483h-244l117 889h-498q-90 0 -180 -36t-168 -108q-76 -63 -121 -147 q-18 -39 -28.5 -79t-10.5 -83l6 -65q2 -14 8.5 -38t14.5 -42l31 -70q16 -27 32 -37l-6 29l-2 20v17v22q0 25 1 53.5t16 69.5q14 51 49 103q35 43 82 67q51 23 112 23q55 0 95 -23q43 -18 75 -63q27 -39 47 -94q16 -53 17 -109q0 -70 -19.5 -126t-60.5 -97q-35 -41 -94 -66 q-61 -20 -127 -20q-80 0 -142.5 31.5t-117.5 101.5q-49 68 -75 146.5t-26 166.5q0 98 42 183.5t130 166t193.5 121.5t226.5 41h1006l-21 -59h-243l-45 -326l30 31l47 29q25 12 56 18l63 6q63 0 115 -29q53 -25 93 -79t60.5 -122.5t20.5 -140.5q0 -158 -78 -287.5 t-237 -240.5q-150 -102 -345.5 -156.5t-416.5 -54.5q-213 0 -400.5 55.5t-339 166t-232.5 259t-81 326.5zM643 289l6 -60l19 -53q12 -25 25.5 -38t31.5 -13q19 0 35 8q14 6 27.5 25.5t19.5 46.5l8 59v29q0 16 -3 46t-15 52q-6 20 -25 33q-12 12 -37 12q-16 0 -33.5 -11 t-31 -30.5t-21.5 -50.5zM1477 1247q0 80 26.5 143.5t85 114.5t136 77t167.5 26q61 0 121 -19.5t105 -52.5t71.5 -81t26.5 -107v-9q0 -55 -16.5 -99t-46 -80t-72.5 -56.5t-92 -20.5q-39 0 -68 13.5t-55.5 42t-40 60.5t-13.5 69q0 35 11.5 59.5t36.5 48.5l-27 2q-43 0 -76 -10 q-35 -6 -69 -27l-56 -38q-18 -18 -26 -41l-11 -45l-2 -46q0 -39 8.5 -68.5t11.5 -35.5t17 -29q4 -6 15.5 -21.5t27.5 -31.5q29 -20 60 -37h-129l-58 68q-23 29 -41 71l-22 74zM1898 1307l7 -35q0 -23 4 -33l12 -27q6 -12 18 -18l25 -6l33 6q16 6 26 23l15 34l6 41 q0 25 -4 39.5t-12.5 27.5t-22.5 21l-29 9l-30 -7l-25 -16l-18 -27z" />
<glyph unicode="&#xd9;" horiz-adv-x="2959" d="M29 436q0 98 44 187.5t138 171.5t211 125q59 20 119.5 30.5t134.5 10.5q33 0 63.5 -2.5t61.5 -8.5q57 -6 112 -24q35 -10 51.5 -16.5t49.5 -23t51 -26.5t43 -29q82 57 173 88t185 31t184.5 -28.5t178.5 -90.5q43 31 84 52l82 37l86 20l98 8h709l-25 -59h-244l-114 -889 h-242l113 889h-207q-31 0 -43 -1t-37 -9q-37 -8 -80 -31l-59 -35l-45 -37q41 -41 77 -90q29 -39 60 -100q8 -20 16 -44t19.5 -67t11.5 -94q0 -43 -4 -72.5t-19 -68.5q-18 -66 -62 -126.5t-99.5 -92t-116.5 -31.5q-53 0 -98 23.5t-79 80t-52 121.5q-16 72 -17 147l2 41 q0 20 2 43t10.5 53.5t34.5 82.5l21 36l24 39l29 37l35 37q-20 27 -53 53l-70 47q-35 20 -75 33t-75 13q-28 -1 -57 -11q-29 -6 -70 -24l-67 -33q-27 -14 -45 -33q39 -39 76 -92q29 -39 59 -100q25 -51 37 -102.5t12 -100.5q0 -43 -4 -72.5t-18 -68.5q-18 -66 -62.5 -126.5 t-99.5 -92t-117 -31.5q-53 0 -98 23.5t-79 80t-52 121.5q-16 72 -17 147l2 41q0 20 2 43t8.5 43.5t14.5 45t18.5 45t20.5 38.5q4 6 25.5 36t31.5 41.5t35 35.5q-31 35 -66.5 61.5t-76.5 43.5l-88 24q-31 6 -45.5 8t-47.5 2q-104 0 -197 -30.5t-176 -90t-130 -141.5t-47 -172 v-33q6 -23 8 -34t8 -34.5t17.5 -54t28.5 -58t34 -38.5l-6 31l-2 21v16v22q0 45 2 64.5t15 63.5t48 96q35 43 82 67q51 23 113 23q55 0 94 -23q41 -18 74 -63q27 -39 47 -94q16 -53 16 -109q0 -70 -19.5 -126t-60.5 -97q-35 -41 -94 -66q-61 -20 -127 -20q-80 0 -144.5 31.5 t-115.5 101.5t-74.5 147.5t-23.5 165.5zM272 289q0 -41 4 -62l19 -53q12 -27 25.5 -38t31.5 -11q19 0 35 8q18 10 30.5 28.5t18.5 43.5l8 59l-6 72q-4 33 -14 55q-6 20 -25 33q-12 12 -34 12q-20 0 -35 -9t-29 -29.5t-22 -51.5zM907 347q0 -19 4 -46l19 -76q10 -33 26 -49 q16 -12 43 -16q31 0 54 16t40 52t26 81t9 94l-6 70l-18 68l-29 63q-12 33 -35 60l-57 -66q-23 -27 -40 -60.5t-28 -74.5l-8 -72v-44zM1624 349q0 -19 4 -46l19 -76q12 -29 30 -51q16 -12 43 -16q31 0 54.5 17.5t37 47t23.5 80.5l8 98q0 78 -22 138q-18 66 -62 123l-57 -64 q-25 -31 -42.5 -63.5t-27.5 -73.5l-8 -72v-42zM2376 1247q0 84 28.5 146.5t86 112.5t137 76t168.5 26q61 0 117.5 -18.5t109.5 -55.5q43 -35 69.5 -84t26.5 -111q0 -18 -1 -38.5t-15.5 -58.5t-46 -78t-74.5 -60.5t-94 -20.5q-39 0 -68 15q-33 12 -57.5 39.5t-37.5 59.5 t-13 71q0 29 12 58.5t37 49.5l-27 2q-43 0 -74 -10q-35 -6 -67.5 -25.5t-57.5 -44.5q-18 -23 -30 -51l-8 -39l-3 -34q0 -39 7.5 -70t27.5 -64q4 -6 15.5 -21t32 -33.5t55.5 -37.5h-127q-39 35 -62 70l-39 69l-22 74zM2796 1260q0 -23 4 -31l16 -23l20 -14l27 -4l29 6 q12 6 20 23l15 30l4 39q0 31 -9 49l-18 35l-18 14l-23 5q-31 0 -51 -33q-16 -33 -16 -96z" />
<glyph unicode="&#xda;" horiz-adv-x="1267" d="M-129 -313q0 47 18.5 88t55.5 78q37 31 82 49q49 16 108 16l393 -2q74 0 142 37q68 33 122 95.5t80 129.5q6 14 16.5 57.5t10.5 88.5q0 38 -12 75q-10 37 -31.5 70t-45.5 47t-58 19q-25 0 -50.5 -12.5t-54.5 -39.5l-59 -483h-244l117 889h-246l-115 -889h-80l115 948h834 l-25 -59h-244l-41 -326q41 41 86.5 62.5t96.5 21.5q57 0 107 -22.5t97.5 -68.5t71 -103.5t23.5 -120.5q0 -117 -36 -208t-103.5 -146.5t-165 -85t-215.5 -29.5l-369 -2l-51 -6q-20 -6 -47 -25q-18 -16 -31 -37q-10 -25 -10 -47q0 -14 8 -31l31 -43l12 -20l4 -23 q0 -33 -10 -59q-6 -29 -25.5 -49.5t-48.5 -32.5q-16 -6 -26.5 -8t-37.5 -2q-39 0 -67.5 13t-46 40t-26.5 67t-9 89zM471 1247q0 80 26.5 143.5t85 114.5t138.5 77t168 26q61 0 117.5 -18.5t109.5 -55.5q43 -35 69.5 -84t26.5 -111q0 -55 -15 -97t-48 -81t-76 -58.5 t-92 -19.5q-39 0 -67.5 13.5t-54 41t-40 61.5t-14.5 71l2 30q0 12 8 29l14 25l23 22l-27 2q-41 0 -71 -10q-35 -6 -68 -25.5t-55.5 -42t-34.5 -53.5l-8 -39l-2 -34v-29.5t8 -41.5t11 -36t18 -29q4 -6 15 -21.5t28 -31.5q29 -20 59 -37h-129q-29 29 -59 70q-23 33 -39 69 l-21 74zM889 1272q0 -23 4 -35l12 -27q10 -14 23 -18l28 -4q14 0 27.5 7t24.5 24l14 34l6 39q0 27 -4 39l-12 31q-6 12 -19 18l-24 9q-19 -1 -35 -11q-12 -6 -25 -26l-16 -39z" />
<glyph unicode="&#xdb;" horiz-adv-x="1648" d="M16 0l127 948h244l-115 -893h404l80 650q0 47 25.5 89t70.5 87q39 37 92 59q23 8 50.5 14.5t54.5 6.5q102 0 187 -46.5t157 -142.5q61 -86 94 -183t33 -198q0 -199 -75 -295t-224 -96h-1205zM920 55h313q47 0 84 23q33 23 63.5 73t44.5 107q6 29 10.5 58.5t4.5 64.5 q0 84 -21 154q-18 76 -60 147.5t-94.5 110t-111.5 38.5q-33 0 -60.5 -12t-45.5 -35l-21 -34l-14 -45zM1024 1200q0 78 29.5 136.5t91.5 103.5q49 37 119 59q76 20 147 21q76 0 135.5 -18.5t116.5 -57.5q53 -41 83 -99.5t30 -132.5q0 -47 -18.5 -91t-54.5 -82t-79 -58 t-92 -20h-8q-35 0 -75 12t-76 35.5t-55.5 53.5t-25.5 71l-2 34q0 39 7.5 67t25.5 50q-45 0 -78 -16q-33 -12 -58.5 -44t-38.5 -67t-13 -76q0 -31 4 -47l14 -41l23 -39l32 -30l-24 10l-23 8l-24 6q-16 0 -25 4l-41 58l-27 61l-16 64zM1372 1180l6 -41q6 -14 20.5 -26.5 t28.5 -18.5l35 -4q23 0 35 4l31 18q12 8 20 27l8 37v12q0 20 -8 39q-6 25 -22 45q-12 20 -31 33q-12 12 -31 12q-16 0 -34 -12l-29 -35l-23 -45z" />
<glyph unicode="&#xdc;" horiz-adv-x="2220" d="M20 436q0 98 44.5 187.5t138.5 171.5t211 125q59 20 119.5 30.5t134.5 10.5q33 0 63.5 -2.5t61.5 -8.5q57 -6 112 -24q35 -10 51.5 -16.5t49 -23t51 -26.5t43.5 -29l84 52l84 37l88 20l100 8h705l-21 -59h-244l-116 -889h-244l117 889h-209q-31 0 -43 -1t-37 -9 q-37 -8 -80 -31q-31 -12 -57 -33l-47 -39q39 -39 75 -92q29 -39 60 -100q25 -51 37 -102.5t12 -100.5q0 -43 -4 -72.5t-19 -68.5q-23 -72 -65.5 -131.5t-96 -89t-114.5 -29.5q-53 0 -98 23.5t-82 82.5q-31 55 -49 123q-8 35 -12.5 69t-4.5 81v34q0 51 8.5 82t16.5 52.5 t19 42t22.5 39t29 42t27.5 35t35 35.5q-31 35 -65.5 60.5t-77.5 44t-83 26.5t-54.5 10t-47.5 2q-96 0 -188 -29.5t-178 -93t-136 -145.5q-43 -78 -43 -170v-8l7 -66q2 -16 8 -35.5t14 -39.5l31 -68q14 -23 33 -35l-7 31l-2 21v16v22q0 45 2.5 64.5t15.5 63.5t48 96 q35 43 82 67q51 23 113 23q55 0 94 -23q41 -18 73 -63q27 -39 48 -94q16 -53 16 -109q0 -68 -19.5 -126t-60.5 -99q-37 -43 -94 -63.5t-125 -20.5q-80 0 -144.5 32.5t-116.5 101.5t-77 144q-23 80 -23 168zM264 289q0 -41 4 -62l19 -53q12 -27 25.5 -38t31.5 -11q19 0 35 8 q18 10 30.5 28.5t18.5 43.5l8 59l-6 72q-4 33 -14 55q-6 20 -25 33q-12 12 -35 12q-20 0 -34.5 -9t-28.5 -29.5t-23 -51.5zM899 347q0 -19 4 -46l19 -76q10 -33 26 -49q16 -12 43 -16q31 0 53.5 16.5t40 52t26.5 80.5t9 94l-6 70l-18 68l-29 63q-12 33 -35 60l-57 -66 q-23 -27 -40 -60.5t-28 -74.5l-8 -72v-44zM1653 1247q-1 80 26 146q27 61 85.5 112t136 77t167.5 26q61 0 121 -19.5t105 -52.5t71.5 -81t26.5 -107v-9q0 -55 -16.5 -99t-46 -80t-72.5 -56.5t-96 -20.5q-25 0 -37.5 2t-39 13.5t-37.5 19.5t-32 27q-29 31 -51 63 q-8 18 -12 33.5t-4 38.5l2 29l10 28l16 27l25 25l-23 2q-35 0 -63.5 -9.5t-61.5 -31.5q-16 -10 -22 -16.5t-24.5 -28t-24.5 -43.5l-10 -45l-3 -46q0 -39 8.5 -68.5t11.5 -35.5t17 -29q4 -6 15.5 -21.5t27.5 -31.5q29 -20 60 -37h-129l-58 68q-23 29 -41 71l-22 74z M2066 1270q0 -23 5 -33l14 -27q10 -14 22 -18l33 -4q16 0 28.5 7t24.5 28l15 37l6 43q0 23 -4 32l-10 29q-6 14 -16.5 19.5t-22.5 5.5q-21 -1 -39 -11q-14 -6 -29 -26l-20 -39z" />
<glyph unicode="&#xdf;" horiz-adv-x="1036" d="M20 0l115 948h834l-25 -59h-244l-112 -889h-244l117 889h-246l-115 -889h-80zM461 1247q0 80 26.5 143.5t85 114.5t136 77t168.5 26q61 0 117.5 -18.5t109.5 -55.5q43 -35 69.5 -84t26.5 -111q0 -55 -15.5 -97t-48 -81t-75.5 -58.5t-92 -19.5q-39 0 -68 13.5t-54.5 41 t-39.5 61.5t-14 71l2 30q0 12 8 29l14 25l23 22l-27 2q-43 0 -74 -10q-35 -6 -69 -27l-54 -38q-16 -16 -26 -46l-12 -47l-3 -41q0 -39 7.5 -70.5t27.5 -60.5q4 -6 15.5 -21.5t27.5 -31.5q29 -20 60 -37h-125q-37 35 -60.5 68t-40.5 69l-20 76zM874 1278q0 -25 5 -37l12 -29 q10 -14 22 -18l31 -6l31 6l22 20l15 29l4 39l-6 41q-4 18 -15 33q-6 16 -22 24l-29 9q-13 -1 -29 -11q-8 -4 -22 -24l-14 -35z" />
<glyph unicode="&#xe0;" horiz-adv-x="2811" d="M33 436q0 100 42 186.5t125 167t190.5 126t234.5 45.5q131 0 241.5 -38t191.5 -108t124 -168t43 -219q0 -29 -2 -59.5t-9.5 -70.5t-28 -86t-46 -86t-56.5 -71h277l72 600q10 66 32.5 120t59.5 96t83 66t93 24q16 0 37.5 -1.5t59.5 -15.5t78 -49t66.5 -75t47.5 -93 q16 45 47.5 89t76 77t91.5 51q25 8 45 12.5t51 4.5q80 0 149.5 -37t119.5 -108t77 -174t27 -220v-41q0 -137 -51.5 -241.5t-155.5 -176.5q-86 -61 -199 -92q-59 -16 -115.5 -24.5t-128.5 -8.5l-1552 -2l-53 -2q-14 -4 -23.5 -7t-26 -11.5t-24.5 -23.5t-12 -46l6 -29 q6 -16 20 -30l21 -31l8 -27q0 -33 -8 -57.5t-28.5 -47t-42 -30.5t-32 -10t-36.5 -2q-41 0 -70 13t-47.5 38t-26.5 68l-8 90q0 49 16.5 82.5t55.5 66.5q10 6 29.5 16.5t56.5 24.5q49 12 110 13l1553 -3q111 0 207 37q94 31 164.5 94.5t111.5 155.5q37 90 37 203l2 72 q0 80 -9 132t-17.5 81.5t-20.5 58.5q-27 55 -59.5 80.5t-79.5 25.5q-35 0 -75 -23.5t-83 -72.5t-72 -110q-10 -27 -19 -58.5t-16 -74.5l-59 -484v-8h-246l80 588l2 20l2 19v22q0 41 -7 72t-20.5 58.5t-33 37.5t-45.5 14q-33 0 -58.5 -15t-45 -50t-31.5 -80l-15 -98l-71 -588 h-660v55q49 27 88 70q18 20 41 53q12 20 25 39q25 53 37 109q6 29 10 58.5t4 61.5q0 92 -22.5 164t-69.5 131q-49 68 -120 102t-153 34h-18q-92 0 -176 -37t-162 -111q-68 -66 -109 -143q-35 -74 -34 -150v-33q6 -23 8 -34t8 -34.5t17.5 -54t29 -58t33.5 -38.5l-6 31l-2 21 v16v22q0 45 2 64.5t15 63.5t48 96q35 43 82 67q51 23 113 23q55 0 94 -23q41 -18 74 -63q27 -39 47 -94q16 -53 16 -109q0 -70 -19.5 -126t-60.5 -97q-35 -41 -94 -66q-61 -20 -127 -20q-80 0 -144.5 31.5t-115.5 101.5t-74.5 147.5t-23.5 165.5zM276 289q1 -42 5 -62 l18 -53q12 -27 25.5 -38t31.5 -11t36 9t30 27.5t18 43.5l9 59l-7 72q-4 33 -14 55q-6 20 -25 33q-12 12 -34 12q-20 0 -35 -9t-29 -29.5t-22 -51.5zM1284 1352q0 41 11.5 69.5t36 50t48 30.5t66.5 14q37 0 66.5 -10.5t52.5 -32.5q25 -18 38 -53.5t13 -67.5q0 -37 -12 -68 q-12 -27 -38 -48.5t-54.5 -31.5t-61.5 -10q-37 0 -63.5 9t-53 29.5t-38 51.5t-11.5 68z" />
<glyph unicode="&#xe1;" horiz-adv-x="1564" d="M29 332q0 55 15 94t47 70.5t85 50.5q25 8 52.5 12t68.5 4h43l47 385h834l-25 -59h-240l-45 -326h285l-20 -55h-273l-18 -152q-10 -90 -47 -158.5t-103 -121.5q-51 -41 -121 -66q-68 -20 -135 -20q-109 0 -191.5 19.5t-140.5 66.5q-55 41 -90 106q-29 68 -28 150zM109 332 q0 -53 18 -99.5t57 -77t92 -49.5q27 -6 53.5 -10t57.5 -4q45 0 85 17.5t78 54.5t61.5 86t31.5 106l16 152h-387q-37 0 -64.5 -9.5t-51.5 -31.5q-25 -18 -34 -46t-11 -43.5t-2 -45.5zM428 563h240l45 326h-244zM725 1247q0 72 30.5 135.5t92.5 112.5q27 20 56.5 35.5 t66.5 30.5q72 23 145 22q43 0 79 -6t73 -23q63 -27 121 -86q49 -51 76.5 -135t27.5 -176v-16v-21l-2 -24l-2 -21l-74 -555h-80l70 545l2 37q0 57 -21 100q-18 47 -61 80q-35 33 -88 51.5t-121 18.5q-18 0 -38.5 -1t-61.5 -16.5t-82 -49.5t-61.5 -74t-20.5 -78l6 -62l19 -55 q14 -27 36.5 -43.5t55.5 -24.5h-129q-35 35 -61.5 78t-39.5 86l-12 57z" />
<glyph unicode="&#xe2;" horiz-adv-x="1564" d="M-70 -313q0 47 18.5 89t51.5 77q39 33 88 49t105 16l591 -2q66 0 121 29q57 25 101.5 74t67 108t22.5 125t-11 104q-8 45 -28.5 80t-50.5 53q-25 18 -62 19h-37l-18 -152q-12 -85 -49 -159q-37 -68 -103 -121q-51 -39 -119 -66q-68 -20 -135 -20q-109 0 -191.5 19.5 t-139.5 66.5q-55 41 -91 106q-29 68 -28 150q0 55 13 93t46 70.5t84 51.5q25 8 52.5 12t68.5 4h43l47 385h838l-25 -59h-244l-41 -326h76q68 0 126.5 -17.5t111.5 -57t81.5 -97t28.5 -125.5v-14q0 -72 -23.5 -139.5t-76.5 -127t-130 -91t-165 -31.5l-637 -2l-51 -6 q-20 -6 -47 -25q-18 -16 -31 -37q-6 -16 -10 -47l6 -31q8 -18 23 -30l22 -29l8 -27q0 -33 -10 -61.5t-27.5 -48t-50.5 -31.5q-16 -6 -26.5 -8t-36.5 -2q-43 0 -68.5 12t-43 40t-25.5 67zM113 332q0 -55 18.5 -98.5t63.5 -81.5q37 -31 84 -46q25 -6 51 -10t57 -4 q45 0 85 17.5t78 54.5t61.5 86t31.5 106l21 152h-392q-37 0 -63.5 -9.5t-48 -28.5t-37.5 -58q-6 -18 -8 -34t-2 -46zM428 563h244l41 326h-242zM725 1247q0 72 30.5 135.5t92.5 112.5q27 20 56.5 35.5t63 28t71.5 18.5t81 6t79 -6t73 -23q66 -27 117 -83t78.5 -136 t27.5 -172l-6 -88l-70 -555h-80l70 545l2 31q0 55 -19.5 101t-57.5 80t-92 54.5t-122 20.5q-47 0 -93 -17.5t-90 -50.5t-65 -74q-8 -16 -14 -36.5t-6 -40.5l6 -60q6 -31 19.5 -54.5t37.5 -45.5q23 -16 54 -25h-129q-35 35 -61.5 78t-39.5 86l-12 57z" />
<glyph unicode="&#xe3;" horiz-adv-x="1880" d="M16 0l127 948h242l-117 -893h848l84 672h-12q-43 0 -82 19.5t-75 61.5t-60 103q-18 59 -19 129q0 113 32 200t99.5 152.5t156.5 98.5t187 33q92 0 163 -35t122 -107q45 -61 70 -145q10 -37 16 -83t6 -97l-2 -33l-2 -29l-4 -26v-21l-67 -520h-80l67 496l4 49 q0 68 -22.5 124t-68.5 102t-103.5 69.5t-120.5 23.5q-59 0 -120.5 -18.5t-120 -56t-89.5 -89t-31 -112.5q0 -55 11.5 -93t37 -68t52.5 -44q37 -14 67 -14l21 151h240l-125 -948h-1332z" />
<glyph unicode="&#xe4;" d="M33 453q0 100 40 184t124 167t190.5 126t233.5 43q49 0 92 -6t89 -19.5t82 -32t72 -47.5q68 -49 104 -116.5t36 -147.5l-4 -39l-13 -82l-12 -94l-2 -74q0 -53 9 -92t29.5 -68.5t58.5 -46t89 -16.5q74 0 138.5 37t119 106.5t80.5 139.5q27 80 27 149q0 88 -23 150 q-18 61 -61 114q-35 41 -80 65t-113 44q-63 12 -112 45t-84 82t-55.5 106.5t-20.5 116.5q0 76 31.5 142.5t93 114.5t137.5 77q49 16 85 21.5t71 5.5q45 0 66.5 -2t58.5 -15q55 -12 105 -47t78 -86t28 -119q0 -51 -13.5 -91t-42.5 -68q-25 -31 -70.5 -45.5t-95.5 -14.5 q-37 0 -65.5 11.5t-38.5 18.5t-31 26q-29 27 -47 59q-14 37 -14 68l6 43l18 43l-22 2q-47 0 -82 -15.5t-66 -52.5q-23 -27 -40 -72q-14 -43 -15 -82q0 -43 12.5 -77.5t34 -61t54.5 -43.5q39 -14 77 -14q74 -18 131 -58q53 -33 95.5 -88t66.5 -139q10 -35 16.5 -80t6.5 -96 q0 -86 -33 -170q-14 -39 -39 -80t-57 -82q-76 -94 -171.5 -140t-207.5 -46q-92 0 -151.5 17.5t-102.5 54.5q-49 43 -74.5 119.5t-25.5 187.5v45t4 55l14 119l2 33q0 49 -19.5 95t-62.5 89q-37 41 -82 61q-41 23 -82 23q-94 0 -180 -36t-168 -112q-74 -68 -110.5 -141.5 t-36.5 -150.5l6 -66q2 -14 8 -35.5t14 -42.5l31 -71q16 -27 33 -37l-6 28l-2 21v16v23q0 45 2 64.5t17 64.5t48 92t84 70.5t113 23.5q53 0 92 -22q41 -18 72.5 -62.5t49 -96.5t17.5 -108q0 -68 -19.5 -126t-59.5 -102t-97 -67q-61 -20 -129 -20q-79 0 -145 33 q-61 31 -111.5 99.5t-75.5 148.5q-23 84 -22 172zM272 303l7 -61l18 -54q12 -27 25.5 -38t33.5 -11q18 0 35 9.5t29 27.5l20 45l9 60l-7 69q-4 33 -13 54.5t-24.5 35t-35.5 13.5q-18 0 -36 -11.5t-32 -33.5l-22 -50zM1470 1317l7 -39l18 -35l31 -22l39 -9l39 7l26 18l17 29 l6 37q0 23 -8 40l-19 33q-12 16 -31 25l-39 8q-20 0 -36 -8l-27 -19q-12 -12 -18 -30z" />
<glyph unicode="&#xe5;" horiz-adv-x="2007" d="M20 436q0 100 42 186.5t125 167t190.5 126t234.5 45.5q131 0 242 -38t191.5 -108t123.5 -168t43 -219q0 -29 -2 -59.5t-10 -72.5t-28.5 -90t-43 -84t-53.5 -67h473l88 672h-12q-45 0 -92 21q-43 23 -89 66.5t-79 105.5q-25 55 -25 124v9q0 109 43 198.5t126 150 t182.5 91.5t218.5 31q53 0 100 -19.5t89 -58.5t63 -88q23 -45 22 -98q0 -47 -17.5 -91.5t-56.5 -83.5q-33 -29 -79 -53q-43 -16 -91 -16q-25 0 -37 2t-41.5 13t-59 40t-45 64.5t-15.5 68.5v15l4 16l2 12l6 17l14 28l25 25l-37 2q-35 0 -60.5 -4t-58.5 -19q-57 -18 -105 -62 t-73.5 -94t-25.5 -112q0 -53 17 -92t54 -76q31 -31 68 -49q39 -14 74 -14l20 151h244l-129 -948h-1020v55q49 31 90 72q33 37 65 94q23 49 39 109q6 31 10.5 57.5t4.5 61.5q0 90 -22.5 161.5t-69.5 130.5q-49 68 -120 102t-157 34h-18q-92 0 -175 -36t-161 -112 q-66 -66 -107 -143q-35 -74 -35 -150l7 -65q2 -14 8 -38t14 -42l31 -70q16 -27 33 -37l-7 31l-2 21v16v22q0 45 2.5 64.5t15.5 63.5t48 96q35 43 82 67q51 23 113 23q55 0 94 -23q41 -18 73 -63q27 -39 48 -94q16 -53 16 -109q0 -68 -19.5 -126t-60.5 -99q-37 -43 -94 -63.5 t-125 -20.5q-80 0 -144.5 32.5t-116.5 101.5t-77 144q-23 80 -23 168zM264 289q0 -42 4 -62l19 -53q12 -27 25.5 -38t31.5 -11t35.5 9t30 27.5t18.5 43.5l8 59l-6 72q-4 33 -14 55q-6 20 -25 33q-12 12 -35 12q-20 0 -34.5 -9t-28.5 -29.5t-23 -51.5zM1827 1202l2 -22l6 -37 l18 -25l29 -16l35 -4l41 6q18 6 33.5 19.5t23.5 33.5l8 43l-6 45l-16 47q-12 20 -26.5 33.5t-35.5 13.5q-16 0 -38.5 -11t-40 -32.5t-25.5 -48.5z" />
<glyph unicode="&#xe6;" horiz-adv-x="1667" d="M-27 -254q0 27 9 53l18 49q10 18 31 35q14 6 45 11l221 -3v-55h-166q-37 0 -59 -20q-20 -27 -21 -70q0 -41 20.5 -74.5t57.5 -60.5t74 -38t82 -11q59 0 101 40t73 122q25 80 92 122q72 39 174 39q-25 18 -37 49t-12 66h244l-2 -12l4 -27l18 -33l18 -24l19 -10l244 -3 l-25 -55h-252q-80 0 -128 -20.5t-73 -67.5l-43 -88l-41 -90q-43 -45 -127 -70q-37 -10 -89 -16t-115 -6q-25 0 -54.5 1t-74.5 15q-57 14 -111.5 50t-84.5 87.5t-30 114.5zM29 0l127 948h243l-114 -893h403l80 650q0 47 29 92q23 39 67 84q39 37 92 59q23 8 50.5 14.5 t54.5 6.5q102 0 187 -46.5t157 -142.5q61 -86 94 -183t33 -198q0 -199 -75 -295t-224 -96h-1204zM932 55h311q47 0 84 23.5t66.5 72t44.5 105.5q6 29 10 58.5t4 66.5q0 84 -20 154q-18 76 -59.5 146.5t-95.5 110t-114 39.5q-29 0 -57.5 -12t-46.5 -35l-21 -34l-14 -45z M1036 1200q0 78 30 136.5t91 103.5q49 37 119 59q76 20 147 21q76 0 135.5 -18.5t116.5 -57.5q53 -41 83 -99.5t30 -132.5q0 -49 -18.5 -91t-53.5 -78.5t-82 -63.5q-43 -18 -90 -18h-8q-29 0 -43 2t-50 14t-75 45t-58.5 70.5t-19.5 81.5q0 33 12.5 60.5t32.5 49.5 q-45 0 -78 -16q-33 -12 -58 -44t-38.5 -67t-13.5 -76q0 -31 4 -47l14 -41l23 -39l33 -30l-52 18l-45 10l-41 58l-26 61l-17 64zM1384 1180l7 -41l18 -29l27 -18l34 -5l35 7q18 6 31.5 18t24.5 35l8 41q0 20 -8 39q-6 25 -23 45q-12 20 -31 33q-12 12 -30 12q-17 0 -35 -12 l-29 -35l-22 -45z" />
<glyph unicode="&#xe7;" horiz-adv-x="2072" d="M37 436q0 121 48 215t144 170q84 66 192.5 100.5t225.5 34.5q59 0 81 -3t63 -13q70 -12 134 -42t119.5 -73t96.5 -100l30 223h834l-25 -59h-243l-117 -889h-240l115 889h-244l-114 -889h-244l80 588q-16 72 -47 119q-27 51 -70 89t-108 60q-25 8 -61 14.5t-71 6.5h-18 q-92 0 -176 -37t-162 -111q-68 -66 -108 -143q-35 -74 -35 -150v-33q6 -22 8 -30q2 -14 8 -38t17.5 -54.5t29 -58t33.5 -38.5l-6 31l-2 21v16v22q0 45 2 64.5t15.5 63.5t47.5 96q35 43 82 67q51 23 113 23q55 0 94 -23q41 -18 74 -63q27 -39 47 -94q16 -53 16 -109 q0 -70 -19.5 -126t-60.5 -97q-35 -41 -94 -66q-61 -20 -127 -20q-80 0 -144.5 31.5t-115.5 101.5t-74.5 147.5t-23.5 165.5zM281 289q0 -42 4 -62l18 -53q12 -27 25.5 -38t31.5 -11t36 9t30 27.5t18 43.5l9 59l-7 72q-4 33 -14 55q-6 20 -24 33q-12 12 -35 12 q-20 0 -34.5 -9t-29 -29.5t-22.5 -51.5zM1495 1247q0 80 26.5 143.5t85 114.5t138.5 77t168 26q61 0 117.5 -18.5t109.5 -55.5q43 -35 69.5 -84t26.5 -111q0 -55 -15 -97t-48 -81t-76 -58.5t-92 -19.5q-25 0 -37 2t-42 14.5t-64.5 45.5t-55.5 67q-8 18 -12 34t-4 38l2 25 l10 28l15 27l22 25l-20 2q-35 0 -62.5 -9.5t-58.5 -31t-46.5 -43t-21.5 -36t-10 -24.5l-8 -39l-2 -34v-29.5t8 -41.5t11 -36t18 -29q4 -6 15 -21.5t28 -31.5q29 -20 59 -37h-129q-29 29 -59 70q-23 33 -39 69l-21 74zM1907 1274q0 -23 4 -35l14 -27q10 -14 22.5 -19t32.5 -5 q17 0 25 4l23 18l14 23l6 27l2 53q0 23 -4 33l-6 22q-2 8 -15 14q-6 6 -20 7q-23 0 -41 -11q-18 -6 -31 -24l-20 -39z" />
<glyph unicode="&#xe8;" horiz-adv-x="2387" d="M25 440q0 121 48 215.5t144 169.5q84 66 192.5 101t225.5 35q27 0 58.5 -1.5t86.5 -15.5q70 -12 134.5 -42t120 -75t93.5 -100q18 51 49 94t74 73t99 50q55 16 110 17q49 0 87 -19.5t66.5 -59.5t43 -94.5t14.5 -113.5l-4 -74l-4 -45l-14 -119l-7 -65l-2 -54 q0 -57 9.5 -98t30 -72.5t59.5 -50.5q18 -8 39.5 -12t54.5 -4q68 0 129 37t117 110q27 35 44 68t29 72q27 80 27 149v8q0 88 -22 150q-18 61 -62 114q-35 41 -84 68q-23 12 -43 20.5t-63 20.5q-63 12 -112.5 45t-84.5 82t-55.5 106.5t-20.5 116.5q0 76 31 141.5t92.5 114.5 t136.5 78q49 16 85 21.5t71 5.5q45 0 66.5 -2t58.5 -15q55 -12 105.5 -47t78 -86t27.5 -119q0 -51 -13.5 -91t-41.5 -68q-25 -31 -71 -45.5t-93 -14.5q-39 0 -68 11.5t-39 18.5t-30 26q-31 27 -45.5 61.5t-14.5 67.5l6 43l19 41l-23 2q-45 0 -82 -15.5t-67 -52.5 q-14 -18 -20.5 -28.5t-21 -49.5t-14.5 -78q0 -43 12.5 -76.5t34 -60t54.5 -43.5q39 -14 78 -14q74 -18 131 -58q59 -35 100 -91t66 -136q10 -35 16 -80t6 -96q0 -86 -31.5 -169t-95.5 -165q-76 -94 -170 -141t-207 -47q-81 -2 -149 16q-61 18 -105 55q-49 43 -74.5 120 t-25.5 188v45t4 55l14 119l13 63l4 54q0 57 -23 86q-18 29 -61 28q-25 0 -49.5 -13t-46.5 -42q-14 -18 -35 -64l-21 -75l-80 -625h-243l80 592q-18 74 -54 125q-29 49 -86 90q-45 33 -103.5 49t-121.5 16q-98 0 -179 -28.5t-156 -89t-113.5 -142.5t-38.5 -172l6 -65 q2 -14 8 -38t14 -42l31 -70q16 -27 33 -37l-6 31l-2 21v16v23q0 45 2 64t15 63.5t48 95.5q35 43 82 67q51 23 113 23q55 0 94 -23q41 -18 74 -63q27 -39 47 -94q16 -53 16 -109q0 -68 -19.5 -126t-60.5 -99q-37 -43 -94 -63.5t-125 -20.5q-80 0 -144.5 32.5t-116.5 101.5 t-77 144q-23 80 -22 168zM268 293q0 -41 4 -62l19 -53q12 -27 25.5 -38t31.5 -11q19 0 35 8q18 10 30.5 28.5t18.5 43.5l8 59l-6 72q-4 33 -14 55q-6 20 -25 33q-12 12 -35 12q-20 0 -34.5 -9t-28.5 -29.5t-23 -51.5zM2040 1309l6 -37l18 -31l29 -22l39 -7l35 7q14 6 28 20 l17 29l6 37l-6 34l-19 31q-10 14 -28 23l-33 8q-23 0 -41 -8l-29 -19q-12 -12 -18 -31z" />
<glyph unicode="&#xe9;" horiz-adv-x="1964" d="M-74 -254q0 74 19.5 136.5t56.5 117.5q45 66 110.5 100.5t147.5 34.5h983q66 0 125 25.5t113.5 83t82 114t27.5 113.5v27q0 72 -19.5 126t-58.5 93q-33 37 -85 58.5t-105 21.5t-105.5 -18.5t-101.5 -55.5q-41 -35 -72 -84q-23 -43 -32 -107l-35 -323h-229l32 323l2 23 q0 51 -22 94q-16 39 -62 84q-45 41 -110 64q-29 10 -65 16t-79 6q-53 0 -93 -7t-73.5 -23.5t-62.5 -45.5q-18 -20 -35 -63l41 6q23 0 33 4l29 2l28 2q57 0 106.5 -12t86.5 -36.5t58.5 -71t21.5 -103.5q0 -53 -24.5 -99t-74.5 -83q-37 -27 -98 -47q-29 -6 -55.5 -10.5 t-59.5 -4.5q-18 0 -38.5 1t-58.5 15.5t-73.5 49.5t-54 85t-18.5 118q0 106 36.5 190t103.5 143.5t156 89t191 29.5q55 0 76.5 -3t60.5 -13q68 -12 123 -45q66 -33 115 -88q47 -47 78 -119q33 61 80 110.5t108 88.5q57 33 126 51t144 18q43 0 79 -6t73 -22q68 -29 128 -86.5 t93 -146.5t33 -191v-25q0 -43 -6 -79t-23 -73q-29 -70 -84 -116q-68 -61 -174 -92t-254 -31h-823q-63 0 -117.5 -25.5t-103.5 -70.5q-41 -47 -70 -105q-23 -57 -22 -121q0 -51 15 -84.5t50 -72.5q10 -10 27.5 -22.5t53.5 -27t85 -14.5l12 -2q90 0 175 33t161 90l133 115 l136 110q88 57 195.5 87t227.5 30q45 0 64.5 -2t63.5 -16.5t87 -51.5q43 -33 65 -84t22 -112q0 -66 -26 -120t-76 -100t-107.5 -69t-122.5 -23l-19 -2q-55 0 -104 25q-47 18 -93 62t-68.5 88.5t-22.5 93.5l2 39l12 34l20 33l29 31l43 -27l-22 -41l-7 -51q0 -37 8.5 -62.5 t11.5 -31.5t20.5 -28.5t39 -33t53.5 -14.5q41 0 72 15.5t58 52.5q20 29 30 64.5t11.5 53t1.5 27.5q0 41 -10.5 72t-28 53.5t-50.5 42.5q-25 12 -61 12q-88 0 -172 -31.5t-168 -99.5l-143 -123l-142 -122q-92 -66 -194.5 -99t-206.5 -33q-76 0 -140.5 26t-119.5 76t-83 107.5 t-28 114.5zM109 465q0 -29 7 -51.5t25 -48.5q16 -18 39 -31q16 -6 56 -10q27 0 45 8q16 6 31.5 24.5t21.5 40.5l8 49q0 29 -7 52.5t-26 46.5q-12 20 -30.5 29.5t-55.5 13.5q-31 0 -51 -10q-14 -4 -35 -25l-22 -41q-6 -18 -6 -47zM1348 1200q0 78 29.5 136.5t90.5 103.5 q49 37 119 59q76 20 148 21q76 0 135 -18.5t117 -57.5q53 -41 82.5 -99.5t29.5 -132.5q0 -47 -19.5 -95t-53 -82t-77.5 -54t-94 -20h-8q-35 0 -74.5 12t-75.5 35.5t-55.5 53.5t-25.5 71l-2 34l2 33l6 33l10 29l17 22q-37 0 -71 -16.5t-65.5 -50t-46.5 -74.5q-6 -18 -10 -37 t-4 -41l6 -37q6 -20 23 -39l24 -31l31 -26l-25 6l-32 6l-29 2l-10 2l-39 56l-29 65l-18 68zM1700 1184l6 -39l18 -33l29 -22l39 -7h8l33 7q12 6 22 22l15 31l6 35l-6 41l-19 32q-14 16 -28 25l-35 8q-21 0 -39 -10q-16 -6 -27 -23q-12 -12 -18 -32z" />
<glyph unicode="&#xea;" horiz-adv-x="2387" d="M20 436q0 100 42 186.5t125 167t190.5 126t234.5 45.5q131 0 242 -38t191.5 -108t123.5 -168t43 -219q0 -29 -2 -59.5t-10 -72.5t-28.5 -90t-43 -84t-53.5 -67h553l37 269q-68 0 -129 18t-107.5 59t-76.5 101q-25 59 -25 135q0 70 22.5 124t67.5 101t101.5 73t121.5 26 q66 0 120.5 -19.5t100.5 -56.5t69.5 -82t23.5 -98l-2 -25l-29 -248q61 20 64 23q25 12 40 20t32.5 17.5t41.5 27.5q43 29 67.5 56.5t39.5 60.5h80l-68 -637h-348l-55 -537h-256l59 537h-860v55q49 31 90 72q33 37 65 94q23 49 39 109q6 31 10.5 57.5t4.5 61.5 q0 90 -22.5 161.5t-69.5 130.5q-49 68 -120 102t-157 34h-18q-92 0 -175 -36t-161 -112q-66 -66 -107 -143q-35 -74 -35 -150l7 -65q2 -14 8 -38t14 -42l31 -70q16 -27 33 -37l-7 31l-2 21v16v22q0 45 2.5 64.5t15.5 63.5t48 96q35 43 82 67q51 23 113 23q55 0 94 -23 q41 -18 73 -63q27 -39 48 -94q16 -53 16 -109q0 -68 -19.5 -126t-60.5 -99q-37 -43 -94 -63.5t-125 -20.5q-80 0 -144.5 32.5t-116.5 101.5t-77 144q-23 80 -23 168zM264 289q0 -41 4 -62l19 -53q12 -27 25.5 -38t31.5 -11q19 0 35 8q18 10 30.5 28.5t18.5 43.5l8 59l-6 72 q-4 33 -14 55q-6 20 -25 33q-12 12 -35 12q-20 0 -34.5 -9t-28.5 -29.5t-23 -51.5zM1409 637q1 -57 21 -100q16 -39 61 -78q12 -10 34.5 -23.5t45.5 -23.5q43 -18 100 -25l29 238l2 37q0 80 -35 118.5t-106 38.5q-33 0 -60.5 -14t-49 -41t-30 -54.5t-10.5 -37.5t-2 -35z M1599 1200q0 78 30 136.5t91 103.5q49 37 119 59q76 20 148 21q76 0 135 -18.5t116 -57.5q53 -41 83 -99.5t30 -132.5q0 -47 -18 -94q-18 -41 -54 -79t-80.5 -58t-95.5 -20q-47 0 -86 15t-82 50q-35 33 -59 72q-18 37 -18 80q0 33 10 55l33 51q-45 0 -76 -14.5t-62 -46.5 q-23 -27 -41 -66q-12 -35 -12 -76q0 -31 4 -47l15 -41l24 -37q10 -14 35 -28l-53 20l-47 8l-41 54l-27 61l-16 64zM1880 55h264l51 453l-71 -49l-66 -39l-76 -37l-65 -27zM1948 1180l6 -41q6 -14 20.5 -26.5t28.5 -18.5l35 -4q23 0 35 4l30 18q12 8 21 27l8 37v12 q0 23 -8 37q-6 14 -19.5 27.5t-31.5 19.5l-31 6l-35 -6l-31 -17l-22 -28q-6 -12 -6 -35v-12z" />
<glyph unicode="&#xeb;" horiz-adv-x="2791" d="M33 436q0 100 42 186.5t125 167t190.5 126t234.5 45.5q131 0 241.5 -38t191.5 -108t124 -168t43 -219q0 -29 -2 -59.5t-9.5 -70.5t-28 -86t-46 -86t-56.5 -71h277l72 600q10 66 32.5 120t59.5 96t83 66t93 24q16 0 37.5 -1.5t59.5 -15.5t78 -49t66.5 -75t47.5 -93 q16 45 47.5 89t76 77t91.5 51q25 8 45 12.5t51 4.5q80 0 149.5 -37t119.5 -108t77 -174t27 -220v-41q0 -137 -51.5 -241.5t-155.5 -176.5q-86 -61 -199 -92q-59 -16 -115.5 -24.5t-128.5 -8.5l-1552 -2l-53 -2q-14 -4 -23.5 -7t-26 -11.5t-24.5 -23.5t-12 -46l6 -29 q6 -16 20 -30l21 -31l8 -27q0 -33 -8 -57.5t-28.5 -47t-42 -30.5t-32 -10t-36.5 -2q-41 0 -70 13t-47.5 38t-26.5 68l-8 90q0 49 16.5 82.5t55.5 66.5q10 6 29.5 16.5t56.5 24.5q49 12 110 13l1579 -3q119 0 203 35q90 31 156.5 96.5t100.5 156.5t34 202l2 72q0 80 -9 132 t-17.5 81.5t-20.5 58.5q-27 55 -59.5 80.5t-79.5 25.5q-35 0 -75 -23.5t-83 -72.5t-72 -110q-10 -27 -19 -58.5t-16 -74.5l-59 -484v-8h-246l80 588l2 20l2 19v22q0 41 -7 72t-20.5 58.5t-33 37.5t-45.5 14q-33 0 -58.5 -15t-45 -50t-31.5 -80l-15 -98l-71 -588h-660v55 q49 27 88 70q18 20 41 53q12 20 25 39q25 53 37 109q6 29 10 58.5t4 61.5q0 92 -22.5 164t-69.5 131q-49 68 -120 102t-153 34h-18q-92 0 -176 -37t-162 -111q-68 -66 -109 -143q-35 -74 -34 -150v-33q6 -23 8 -34t8 -34.5t17.5 -54t29 -58t33.5 -38.5l-6 31l-2 21v16v22 q0 45 2 64.5t15 63.5t48 96q35 43 82 67q51 23 113 23q55 0 94 -23q41 -18 74 -63q27 -39 47 -94q16 -53 16 -109q0 -70 -19.5 -126t-60.5 -97q-35 -41 -94 -66q-61 -20 -127 -20q-79 -2 -145 33q-63 31 -114.5 100.5t-75 147t-23.5 165.5zM276 289q1 -42 5 -62l18 -53 q12 -27 25.5 -38t31.5 -11t36 9t30 27.5t18 43.5l9 59l-7 72q-4 33 -14 55q-6 20 -25 33q-12 12 -34 12q-20 0 -35 -9t-29 -29.5t-22 -51.5zM2257 1200q0 78 29.5 136.5t91.5 103.5q49 37 119 59q76 20 147 21q76 0 135.5 -18.5t116.5 -57.5q53 -41 83 -99.5t30 -132.5 q0 -47 -18.5 -91t-54.5 -82t-79 -58t-92 -20h-8q-47 0 -82 11t-71 34.5t-55.5 53.5t-25.5 73l-2 32l2 35l6 33l11 29l16 22q-45 0 -78 -16q-33 -12 -58.5 -44t-39 -65t-13.5 -76q0 -33 2.5 -48t17.5 -46t52 -61l-45 18l-49 10l-39 52l-27 61l-18 66zM2607 1186l6 -39l19 -33 l28 -22l39 -9h8l33 7q14 8 25 22l14 31l6 37l-6 41l-18 32q-10 14 -29 23l-37 8q-23 0 -40 -8t-27 -25l-17 -30z" />
<glyph unicode="&#xec;" horiz-adv-x="3020" d="M33 332q0 55 13 93t46 70.5t84 51.5q25 8 52.5 12t68.5 4h43l47 385h838l-25 -59h-244l-41 -326h146q12 16 34.5 35.5t45.5 36.5q45 31 102 57q14 6 49 16.5t62 18.5q55 12 110 12q41 0 77 -6t73 -22q68 -23 131 -77t95 -126t32 -152v-10v-37q-6 -29 -10 -55.5 t-20.5 -70.5t-41.5 -81q-16 -29 -45 -47h524l37 269q-70 12 -133 36q-55 25 -104 66t-76 106.5t-27 135.5q0 66 24.5 120t70 89.5t101.5 54t120 18.5q59 0 117.5 -18.5t102.5 -52t67.5 -85t23.5 -112.5l-2 -35l-29 -227l76 39q37 23 72 53l65 63l60 72h80l-80 -647h-328 l-70 -545h-239l63 545h-782v43q31 14 58.5 44t44 66.5t24.5 74.5t9 57.5t1 29.5q0 66 -16 115q-12 55 -45 98q-29 43 -76 70t-105 27q-27 0 -43 -4l-45 -15q-27 -6 -43 -20l-28 -23q35 0 78 -26q37 -18 77.5 -61.5t62 -90.5t21.5 -96q0 -61 -18.5 -113.5t-55 -93.5 t-85.5 -64q-49 -18 -111 -18h-31q-51 0 -88 23.5t-63 70.5q-8 16 -17.5 38t-16.5 52.5t-9 50t-2 58.5q0 63 12 115.5t37 99.5h-109l-18 -152q-12 -86 -49 -156.5t-103 -123.5q-51 -39 -119 -66q-68 -20 -135 -20q-109 0 -191.5 19.5t-139.5 66.5q-55 41 -91 106 q-29 68 -28 150zM113 332q0 -55 18.5 -98.5t63.5 -81.5q37 -31 84 -46q25 -6 51 -10t57 -4q45 0 85 17.5t78 54.5t61.5 86t31.5 106l21 152h-392q-37 0 -63.5 -9.5t-48 -28.5t-37.5 -58q-6 -18 -8 -34t-2 -46zM428 563h244l41 326h-242zM1049 299l6 -61l18 -54 q12 -27 25.5 -38t34.5 -11q18 0 34.5 9.5t28.5 27.5l21 45l8 59l-6 72q-2 31 -12.5 52.5t-26 35t-39.5 13.5q-18 0 -33.5 -10.5t-30 -31t-22.5 -51.5zM2056 655q0 -55 20.5 -101t59.5 -81q12 -10 34.5 -23.5t55.5 -26.5t98 -24l31 248l2 21q0 33 -10 60.5t-33 47.5 q-16 20 -41.5 29.5t-64.5 13.5q-31 0 -60 -14q-25 -12 -49 -37l-33 -53q-6 -20 -10 -60zM2253 1200q0 78 29.5 136.5t91.5 103.5q49 37 118 59q76 20 148 21q76 0 135 -18.5t117 -57.5q53 -41 82.5 -99.5t29.5 -132.5q0 -47 -18 -91t-54 -82t-80 -58t-95 -20q-35 0 -48.5 3 t-46 15t-75.5 47q-35 33 -60 72q-18 37 -18 78q0 33 11 57t32 51q-45 0 -78 -16q-33 -12 -58.5 -44t-39 -67t-13.5 -76q0 -31 4 -47l15 -43l22 -39l31 -28l-45 20q-25 10 -53 12l-37 52l-27 63l-16 66zM2523 55h246l59 477q-20 -29 -28.5 -38t-30.5 -31q-14 -14 -30.5 -28.5 t-35.5 -26.5q-29 -23 -69 -46l-74 -30zM2601 1180l6 -41q6 -14 20.5 -26.5t28.5 -18.5l35 -4q23 0 33 4l31 18l20 27l8 37v12q0 23 -8 37q-6 14 -19.5 27.5t-31.5 19.5l-31 6l-35 -6l-30 -19l-21 -28q-6 -12 -6 -33v-12z" />
<glyph unicode="&#xed;" d="M29 160l102 788h246l-92 -708q0 -37 20.5 -58.5t59.5 -21.5q25 0 51 20q12 8 29.5 26.5t31.5 39.5l51 82q20 45 21 75l72 545h243l-116 -893h616l125 893h240l-197 -1448h-240l64 500h-864l24 160q-33 -45 -70 -74q-16 -16 -33.5 -27.5t-38 -21.5t-32.5 -14.5t-53 -14.5 l-109 -8q-25 0 -50.5 13.5t-53 44t-35.5 50t-12 52.5z" />
<glyph unicode="&#xee;" horiz-adv-x="1988" d="M20 436q0 100 42 186.5t125 167t190.5 126t234.5 45.5q131 0 242 -38t191.5 -108t123.5 -168t43 -219q0 -29 -2 -59.5t-10 -72.5t-28.5 -90t-43 -84t-53.5 -67h469l121 893h244l-197 -1448h-244l68 500h-776v55q49 31 90 72q33 37 65 94q23 49 39 109q6 31 10.5 57.5 t4.5 61.5q0 90 -22.5 161.5t-69.5 130.5q-49 68 -120 102t-157 34h-18q-92 0 -175 -36t-161 -112q-66 -66 -107 -143q-35 -74 -35 -150l7 -65q2 -14 8 -38t14 -42l31 -70q16 -27 33 -37l-7 31l-2 21v16v22q0 45 2.5 64.5t15.5 63.5t48 96q35 43 82 67q51 23 113 23 q55 0 94 -23q41 -18 73 -63q27 -39 48 -94q16 -53 16 -109q0 -68 -19.5 -126t-60.5 -99q-37 -43 -94 -63.5t-125 -20.5q-80 0 -144.5 32.5t-116.5 101.5t-77 144q-23 80 -23 168zM264 289q0 -42 4 -62l19 -53q12 -27 25.5 -38t31.5 -11t35.5 9t30 27.5t18.5 43.5l8 59l-6 72 q-4 33 -14 55q-6 20 -25 33q-12 12 -35 12q-20 0 -34.5 -9t-28.5 -29.5t-23 -51.5z" />
<glyph unicode="&#xf0;" horiz-adv-x="776" d="M-172 655l12 58h865l-13 -58h-256l-160 -659h-167l155 659h-436z" />
<glyph unicode="&#xf1;" horiz-adv-x="2387" d="M37 436q0 100 40 185.5t124 167t190.5 127t233.5 45.5q131 0 241.5 -37t192.5 -108t126 -169t44 -219q0 -59 -11.5 -116.5t-32 -105.5t-44.5 -85l-54 -66h478l110 893h246l-96 -776q37 43 84 64.5t102 21.5q57 0 105.5 -19.5t94.5 -57.5t69.5 -88t23.5 -103v-15 q0 -113 -70.5 -210t-222 -181t-366.5 -129t-465 -45q-236 0 -414 19.5t-320 56.5q-150 43 -231 104q-35 29 -55.5 66t-20.5 78q0 33 11.5 58.5t35.5 49.5l50 33q18 6 53 10l592 -2l-37 -59h-533q-25 0 -39 -4q-14 -6 -27.5 -19.5t-19.5 -31.5l-6 -35q0 -63 78 -110.5 t235 -82.5q96 -18 153.5 -27.5t129.5 -9.5q55 0 175 -7t177 -7q84 0 166 8t158 27q152 31 289 99.5t208.5 162.5t71.5 203q0 27 -10 52.5t-32.5 48t-46 31.5t-58.5 13q-37 0 -61.5 -16.5t-43.5 -50.5l-45 -383h-243l36 315h-780v55q49 27 85 67t69 97q23 49 39 109 q6 31 10 57.5t4 58.5q0 86 -23.5 161t-70.5 134q-47 66 -119 102t-158 36h-18q-92 0 -175 -36t-161 -112q-66 -66 -106 -143q-35 -74 -35 -150l6 -65q2 -14 8 -38t14 -42l31 -70q16 -27 33 -37l-6 29l-2 20v17v22q0 45 2 64.5t17.5 64.5t48 92.5t83.5 71t113 23.5 q53 0 92 -23q41 -18 73 -62t49 -96.5t17 -107.5q0 -70 -19.5 -126t-60.5 -97q-35 -41 -96 -66q-61 -20 -129 -20q-78 0 -142.5 30.5t-115.5 100t-73.5 149.5t-22.5 166zM276 289l7 -60l18 -53q12 -25 25.5 -38t33.5 -13q19 0 33 8q18 10 31 29l20 43l9 59l-7 70 q-4 33 -13 54.5t-24.5 34.5t-35.5 13t-37 -10t-31 -33l-22 -47z" />
<glyph unicode="&#xf2;" horiz-adv-x="1564" d="M16 0l127 948h244l-115 -893h840l121 893h244l-197 -1448h-244l68 500h-1088z" />
<glyph unicode="&#xf3;" horiz-adv-x="1943" d="M16 -4l123 952h252l-123 -897h848l123 897h242l-109 -776q37 43 85 64.5t104 21.5q57 0 104 -19.5t93 -57.5t69.5 -88t23.5 -103v-17q0 -111 -55 -201.5t-177 -171.5t-291 -123t-380 -42l-41 -2q-139 0 -273 17.5t-245 51.5q-143 41 -214 99.5t-71 132.5q0 33 11.5 58.5 t36.5 49.5l49 33q16 6 55 10l588 -2l-35 -59h-533q-25 0 -39 -5t-27 -18.5t-20 -31.5l-6 -35q0 -43 36 -79t100.5 -60.5t140.5 -38.5l180 -27l143 -10l164 -4q119 0 229.5 30.5t206.5 89.5q113 70 168.5 159t55.5 196q0 27 -10.5 52.5t-33 48t-46 31.5t-58.5 13 q-37 0 -61.5 -16.5t-42.5 -50.5l-47 -383h-244l39 311h-1088z" />
<glyph unicode="&#xf4;" horiz-adv-x="2177" d="M16 152v8l105 788h244l-97 -708q0 -37 20.5 -58.5t63.5 -21.5q23 0 47.5 18.5t61.5 65.5q12 14 27.5 38.5t28.5 51t20 69.5l67 545h244l-117 -893h617l112 893h244l-96 -776q37 43 84 64.5t102 21.5q57 0 106.5 -19.5t95.5 -58.5t69.5 -89t23.5 -101v-13 q0 -111 -66.5 -211t-206 -182t-337.5 -129q-94 -20 -210 -32.5t-237 -12.5q-223 0 -388 19.5t-298 56.5q-141 43 -214 104.5t-73 143.5q0 29 12.5 56.5t37.5 51.5l51 33q18 6 53 10l592 -2l-37 -59h-532q-25 0 -39.5 -5t-27.5 -19.5t-19 -28.5l-7 -37q1 -62 60 -109 q61 -47 172.5 -77.5t247.5 -45.5q68 -6 143.5 -10t161.5 -4h104q152 0 291 37q139 31 258 98q129 74 195.5 165t66.5 202q0 27 -10 52.5t-31.5 48t-45 31.5t-58.5 13q-39 0 -63.5 -16.5t-43.5 -50.5l-43 -383h-243l34 315h-860l21 160q-18 -23 -27.5 -34t-40.5 -38 q-31 -31 -68.5 -49.5t-89.5 -30.5l-110 -8q-23 0 -50.5 12.5t-52 42t-34.5 51.5z" />
<glyph unicode="&#xf5;" horiz-adv-x="2387" d="M20 436q0 100 42 186.5t125 167t190.5 126t234.5 45.5q131 0 242 -38t191.5 -108t123.5 -168t43 -219q0 -29 -2 -59.5t-10 -72.5t-28.5 -90t-43 -84t-53.5 -67h553l37 269q-68 0 -129 18t-107.5 59t-76.5 101q-25 59 -25 135q0 70 22.5 124t67.5 101t101.5 73t121.5 26 q66 0 120.5 -19.5t100.5 -56.5t69.5 -82t23.5 -98l-2 -25l-29 -248q61 20 64 23q25 12 40 20t32.5 17.5t41.5 27.5q43 29 67.5 56.5t39.5 60.5h80l-68 -637h-348l-55 -537h-256l59 537h-860v55q49 31 90 72q33 37 65 94q23 49 39 109q6 31 10.5 57.5t4.5 61.5 q0 90 -22.5 161.5t-69.5 130.5q-49 68 -120 102t-157 34h-18q-92 0 -175 -36t-161 -112q-66 -66 -107 -143q-35 -74 -35 -150l7 -65q2 -14 8 -38t14 -42l31 -70q16 -27 33 -37l-7 31l-2 21v16v22q0 45 2.5 64.5t15.5 63.5t48 96q35 43 82 67q51 23 113 23q55 0 94 -23 q41 -18 73 -63q27 -39 48 -94q16 -53 16 -109q0 -68 -19.5 -126t-60.5 -99q-37 -43 -94 -63.5t-125 -20.5q-80 0 -144.5 32.5t-116.5 101.5t-77 144q-23 80 -23 168zM264 289q0 -42 4 -62l19 -53q12 -27 25.5 -38t31.5 -11t35.5 9t30 27.5t18.5 43.5l8 59l-6 72 q-4 33 -14 55q-6 20 -25 33q-12 12 -35 12q-20 0 -34.5 -9t-28.5 -29.5t-23 -51.5zM1409 637q1 -57 21 -100q16 -39 61 -78q12 -10 34.5 -23.5t45.5 -23.5q43 -18 100 -25l29 238l2 37q0 80 -35 118.5t-106 38.5q-33 0 -60.5 -14t-49 -41t-30 -54.5t-10.5 -37.5t-2 -35z M1880 55h264l51 453l-71 -49l-66 -39l-76 -37l-65 -27z" />
<glyph unicode="&#xf6;" horiz-adv-x="2516" d="M-35 -217q0 29 10 49l25 39q18 18 41 27l51 8l948 -2q20 33 31 65l23 64l14 71l4 80q0 37 -2 72t-9 80t-27.5 87t-53.5 63.5t-72 21.5h-37l-18 -152q-12 -88 -49 -158.5t-103 -121.5q-51 -41 -120 -66q-68 -20 -138 -20q-106 0 -188 19.5t-139.5 63.5t-89.5 107 q-29 68 -29 152q0 55 13 93t46 70.5t84 51.5q25 8 52.5 12t66.5 4h45l47 385h838l-25 -59h-243l-46 -326h93q82 0 149.5 -31.5t109.5 -87t62 -122.5q8 -31 14.5 -71t6.5 -81v-27q0 -16 -4 -45l-13 -69q-6 -33 -20 -64l-29 -59l299 -2l129 1044h739l-22 -59h-158l-119 -1041 h-243l119 1041h-244l-127 -1041h-410q-59 -80 -135 -149.5t-160 -114.5q-98 -53 -221 -79.5t-248 -26.5q-92 0 -174 21.5t-168 69.5t-133 101q-43 53 -43 113zM47 -217q0 -39 33 -78q35 -39 100.5 -71.5t135 -52t141.5 -19.5l18 -2q111 0 191 22q86 18 144 54t105.5 88.5 t92.5 125.5l-836 -2h-47l-41 -12q-14 -6 -29 -18zM117 332q0 -55 18.5 -98.5t63.5 -81.5q37 -31 84 -46q25 -6 51 -10t57 -4q45 0 85 17.5t78 54.5t61.5 86t31.5 106l21 152h-392q-37 0 -63.5 -9.5t-48 -28.5t-37.5 -58q-6 -18 -8 -34t-2 -46zM432 563h244l41 326h-242z" />
<glyph unicode="&#xf8;" horiz-adv-x="3276" d="M33 332q0 55 13 93t46 70.5t84 51.5q25 8 52.5 12t68.5 4h43l47 385h838l-25 -59h-244l-41 -326h146q12 16 34.5 35.5t45.5 36.5q45 31 102 57q14 6 49 16.5t62 18.5q55 12 110 12q41 0 77 -6t73 -22q68 -23 131 -77t95 -126t32 -152v-10v-37q-6 -29 -10 -55.5 t-20.5 -70.5t-41.5 -81q-16 -29 -45 -47h524l37 269q-70 12 -133 36q-55 25 -104 66t-76 106.5t-27 135.5q0 66 24.5 120t70 89.5t101.5 54t120 18.5q59 0 117.5 -18.5t102.5 -52t67.5 -85t23.5 -112.5l-2 -35l-29 -227l76 39q37 23 72 53l65 63l60 72h80l-80 -647h-328 l-70 -545h-239l63 545h-782v43q68 35 103.5 110.5t35.5 190.5q0 23 -3 45.5t-19 54.5q-18 49 -60.5 92.5t-88.5 65t-95 21.5q-41 0 -74 -17q-33 -12 -63 -43q35 0 78 -26q37 -18 77.5 -61.5t62 -90.5t21.5 -96q0 -61 -18.5 -113.5t-55 -93.5t-85.5 -64q-49 -18 -111 -18h-31 q-51 0 -88 23.5t-63 70.5q-8 16 -17.5 38t-16.5 52.5t-9 50t-2 58.5q0 63 12 115.5t37 99.5h-109l-18 -152q-12 -86 -49 -156.5t-103 -123.5q-51 -39 -119 -66q-68 -20 -135 -20q-109 0 -191.5 19.5t-139.5 66.5q-55 41 -91 106q-29 68 -28 150zM113 332q0 -56 20 -103 q16 -39 62 -77q37 -31 84 -46q25 -6 51 -10t57 -4q45 0 85 17.5t78 54.5t61.5 86t31.5 106l21 152h-392q-37 0 -63.5 -9.5t-48 -28.5t-37.5 -58q-6 -18 -8 -34t-2 -46zM428 563h244l41 326h-242zM1049 299l6 -61l18 -54q12 -27 25.5 -38t34.5 -11q18 0 32 8q18 10 31 29 l21 45l8 59l-6 72q-2 31 -12.5 52.5t-26 35t-39.5 13.5q-18 0 -33.5 -10.5t-30 -31t-22.5 -51.5zM2056 655q0 -55 20.5 -101t59.5 -81q12 -10 34.5 -23.5t55.5 -26.5t98 -24l31 248l2 25q0 35 -9 58.5t-30.5 43t-44 26.5t-61.5 11q-33 0 -58.5 -9t-50.5 -32q-25 -18 -36 -49 t-11 -66zM2327 1139q0 78 31.5 145.5t101.5 130.5q31 27 65.5 49.5t75.5 40.5q74 31 160 31q104 0 184 -37q78 -33 139 -106q47 -61 75 -154.5t28 -198.5l-6 -116l-72 -521h-80l68 496l4 55q0 72 -23.5 131.5t-72 106.5t-106.5 73.5t-126 26.5q-20 0 -45 -1t-66 -15 q-51 -14 -110.5 -50t-88 -81t-28.5 -92l6 -45l21 -56l26 -51q12 -16 29 -29l-29 27l-26 19l-17 6l-41 16l-34 49l-25 49l-14 49zM2523 55h246l59 477q-20 -29 -28.5 -38t-30.5 -31q-14 -14 -30.5 -28.5t-35.5 -26.5q-29 -23 -69 -46l-74 -30z" />
<glyph unicode="&#xf9;" horiz-adv-x="2428" d="M-49 -211q0 33 9 53.5t32 36.5l45 21q25 6 59 6l881 -2q55 104 85 226t30 251v25q0 43 -2.5 81.5t-8.5 81.5t-11 69t-17 60q-23 68 -61 100.5t-85 32.5q-39 0 -76.5 -21.5t-81.5 -70.5t-73 -110q-10 -27 -19.5 -58.5t-15.5 -74.5l-57 -496h-244l80 588l4 55q0 43 -8 74 q-6 39 -23 61q-12 25 -31.5 37t-46.5 16q-33 0 -58.5 -16t-43.5 -50t-30.5 -78t-18.5 -99l-68 -588h-80l80 655q4 43 8.5 63.5t20.5 55.5q25 57 63.5 98t83.5 65t93 24q53 0 93 -15.5t81 -50.5q35 -29 65 -76q10 -14 23.5 -39.5t23.5 -52.5q16 45 48 89t77 77t92 51 q25 8 45.5 12.5t51.5 4.5q88 0 153.5 -38t116.5 -115t75.5 -183.5t24.5 -243.5q0 -72 -7 -130t-25 -124q-16 -70 -39 -115t-29 -56t-31 -50l303 -2l129 1044h740l-25 -59h-156l-118 -1041h-244l119 1041h-244l-131 -1041h-414q-59 -82 -137 -147q-70 -63 -172 -115 q-84 -43 -197.5 -69.5t-236.5 -26.5q-98 0 -173 16.5t-141 51.5q-80 41 -117.5 100t-37.5 131zM29 -217q-1 -57 32 -102q33 -41 103 -72q25 -10 43 -15.5t70.5 -13.5t77 -9t53.5 -1q88 0 162.5 19.5t145 57.5t124 86t100.5 117l-831 -2l-37 -2l-25 -16l-14 -20z" />
<glyph unicode="&#xfa;" horiz-adv-x="2916" d="M-10 -213q0 27 7 48.5t26.5 40t44.5 30.5l49 8l1339 -2l41 88q10 20 17.5 39.5t16.5 54.5t15 80l6 98q0 78 -10 125q-6 53 -22.5 85t-36 47.5t-47.5 19.5q-47 0 -79 -12.5t-57 -44.5l-61 -488h-244l117 893h-500q-92 0 -178 -36t-167 -105.5t-124 -149.5 q-18 -39 -28.5 -79t-10.5 -83l7 -65q2 -14 8 -35.5t14 -42.5l31 -72q16 -27 33 -36l-7 28l-2 21v16v23q0 45 2.5 64.5t17.5 64.5t48 92t84 70.5t113 23.5q53 0 92 -23q41 -18 72.5 -62t49 -96.5t17.5 -107.5q0 -68 -19.5 -126t-60.5 -99q-37 -43 -97.5 -63.5t-125.5 -20.5 q-80 0 -144.5 34t-117.5 103q-23 33 -39.5 64.5t-32.5 76.5q-23 80 -22 168q0 98 43 185.5t127 165t190.5 119.5t226.5 42h1008l-25 -59h-243l-39 -326l26 29l45 27q25 12 56 18l63 6q61 0 114.5 -25.5t92.5 -80.5q41 -49 61.5 -119t20.5 -141q0 -53 -8 -101l-19 -96 l-30 -90q-14 -43 -39 -84l297 -2l123 1044h741l-21 -59h-159l-121 -1040h-240l117 1040h-246l-127 -1040h-395q-68 -92 -164 -170q-90 -72 -211 -131q-106 -47 -237 -75t-252 -28q-158 0 -287 23q-66 8 -128 23.5t-128 39.5q-135 49 -201.5 110.5t-66.5 137.5zM68 -213 q0 -53 47 -94t141 -75t217 -51.5t252 -17.5l68 -2q94 0 174 23q84 18 172 57t155 99q72 55 125 133l-1222 -2l-50 -2l-41 -13q-20 -6 -30 -20zM268 297q0 -41 4 -64l19 -53q10 -25 23.5 -37t33.5 -12q19 0 33 8q18 10 31 29l20 45l8 59l-6 70q-4 33 -13 54.5t-24.5 34.5 t-36.5 13q-20 0 -34.5 -9t-28.5 -29.5t-23 -51.5z" />
<glyph unicode="&#xfb;" horiz-adv-x="3270" d="M29 -217q0 29 11 50.5t36 39.5l49 25l47 8l1757 -2q47 57 78 108t61 123q25 61 37 125q6 33 10.5 63.5t4.5 67.5v43q0 121 -17 197q-14 86 -49 147q-25 51 -57 74q-29 25 -64 25q-41 0 -69 -11q-29 -6 -64 -24l-47 -31l-37 -35q37 -39 70 -92q4 -6 20.5 -34.5t35 -73 t28.5 -97.5t10 -98q0 -74 -18.5 -140.5t-57.5 -126t-90 -92t-106 -32.5q-47 0 -90 24q-37 25 -68 78t-45 123q-6 35 -10 71t-4 76l2 41q0 20 2 43t9 53.5t30 82.5l18 36l23 39l26 37l31 37q-25 31 -54.5 56.5t-64.5 43.5l-37 15l-33 12l-34 6l-35 2q-59 0 -108.5 -21.5 t-96.5 -68.5q41 -43 70 -90q4 -6 20.5 -34.5t33.5 -71.5t29.5 -95.5t12.5 -103.5q0 -78 -19.5 -142.5t-59.5 -125t-89 -92t-104 -31.5q-47 0 -86 23.5t-71 75.5t-50 126q-6 35 -10.5 71t-4.5 79l2 38q0 20 2.5 43t10.5 56t30 80l19 36l22 39l27 37l31 37q-27 37 -59.5 62.5 t-69.5 42t-70 23.5t-48 9t-46 2q-90 0 -171 -29.5t-162 -93t-120 -146.5t-39 -171l6 -63q2 -16 8.5 -36t14.5 -40q12 -45 26.5 -70.5t28.5 -36.5l-6 29l-2 20v17v22q0 66 14 121q8 31 17.5 52.5t30.5 50.5q27 45 72.5 68.5t103.5 23.5q47 0 84 -23q35 -16 64.5 -61t45 -97.5 t15.5 -107.5q0 -66 -19.5 -125t-53.5 -99t-87 -65q-55 -20 -115 -20q-70 0 -127 29.5t-106 101.5q-41 63 -66 145q-20 88 -20 170q0 104 38.5 191.5t122.5 168.5t191 124q53 20 107.5 30.5t121.5 10.5q66 0 113 -11q49 -6 100 -23.5t92 -41.5q45 -23 84 -54q72 57 154 88 t166 31q82 0 165 -29.5t161 -89.5l79 58q37 27 60 37q35 16 72.5 24t57 9.5t30.5 1.5q102 0 176.5 -38t128.5 -116q43 -68 67.5 -169t24.5 -235q0 -68 -12 -139q-8 -68 -31 -129q-12 -35 -22.5 -59.5t-30.5 -61.5q-27 -53 -70 -108l330 -2l114 1044h603v-59h-99l-106 -1041 h-219l106 1041h-219l-115 -1041h-450q-90 -96 -219 -176q-119 -74 -280 -129t-338 -81.5t-351 -26.5q-152 0 -294 18.5t-273 54.5q-166 49 -251 117t-85 158zM100 -229q0 -55 74 -109q76 -49 225 -86q59 -16 119 -26.5t130.5 -18.5t133 -12t140.5 -4l32 -2q139 0 269.5 22.5 t252 67.5t224 109.5t176.5 137.5l-1673 -2l-41 -2q-20 -6 -33 -16l-23 -25q-6 -12 -6 -34zM244 289l6 -60l16 -53q10 -27 22.5 -39t30.5 -12q17 0 31 8l27 29q12 18 18 43l8 59l-6 70l-12 55q-8 18 -22.5 32.5t-30.5 14.5q-18 0 -35 -10l-27 -33q-12 -16 -20 -47zM819 347 q0 -19 4 -46l15 -74q10 -31 24.5 -47t40.5 -20q31 0 49 16q16 16 35 53q12 27 23 78l8 96l-6 70q-2 23 -5 35t-12 33l-24 63l-31 60l-51 -64l-39 -68l-23 -71l-8 -70v-44zM1464 347q0 -19 5.5 -50t6.5 -40t10 -35.5t22.5 -42t39.5 -19.5q31 0 48.5 16.5t35.5 52.5l21 78 l8 96l-6 70q-4 37 -15 68l-26 65l-31 58l-51 -64l-39 -65l-23 -70l-6 -74v-44z" />
<glyph unicode="&#xfc;" horiz-adv-x="2240" d="M-129 -242q0 33 12.5 58.5t39 47t59.5 34.5l69 8l750 -2q53 96 79.5 204.5t26.5 215.5q0 53 -10 86q-6 37 -25.5 68.5t-40 45t-51.5 17.5l-32 -4q-16 -4 -33 -15l-17 -10l-16 -8l-14 -12l-13 -9l-59 -483h-244l117 889h-246l-114 -889h-80l114 948h834l-21 -59h-243 l-45 -326l43 37l45 25l47 14l53 6q63 0 111.5 -22.5t93.5 -65.5t68.5 -98.5t23.5 -118.5v-8q0 -27 -2 -55.5t-8 -57.5q-6 -55 -24.5 -110.5t-43 -107.5t-51.5 -95l297 -2l127 1044h739l-22 -59h-160l-117 -1041h-243l118 1041h-247l-127 -1041h-408q-53 -72 -131 -133 q-31 -25 -73 -51t-87 -51q-82 -41 -184 -64q-43 -10 -93.5 -16t-105.5 -6q-76 0 -104.5 3t-90 15.5t-120.5 46.5q-55 29 -88 72t-33 94zM-51 -256q6 -26 33 -49q23 -23 71.5 -44.5t110.5 -33.5q39 -6 62.5 -8t70.5 -2q55 0 76.5 3t73 15.5t114 46t109.5 78.5q45 39 90 100 l-672 -2q-68 0 -102.5 -21.5t-34.5 -66.5z" />
<glyph unicode="&#xfd;" horiz-adv-x="3067" d="M16 436q0 98 44 187.5t138.5 171.5t211.5 125q59 20 119.5 30.5t134.5 10.5q33 0 63.5 -2.5t60.5 -8.5q57 -6 113 -24q35 -10 51.5 -16.5t49 -23t51 -26.5t43.5 -29l90 56l84 41q41 16 86 24l96 9q94 0 172 -33q76 -29 145 -92q78 -74 118 -187.5t40 -257.5 q0 -35 -2 -69.5t-8 -69.5q-4 -43 -8 -63.5t-20.5 -70.5t-41 -104.5t-63.5 -107.5l352 -2l127 1044h741l-24 -59h-156l-121 -1041h-243l120 1041h-243l-129 -1041h-467q-74 -90 -176 -161q-92 -66 -219 -118t-269.5 -78t-283.5 -26q-182 0 -313.5 16.5t-234 52.5t-159.5 93.5 t-57 130.5q0 43 18.5 75t52 46.5t60.5 20.5l63 6l1317 -2q12 20 31 51q8 14 28 55l46 115q6 23 11 42t17 81q8 61 9 89t1 44q0 119 -21.5 207t-68.5 164q-39 63 -84 92q-45 33 -94 33q-43 0 -76 -11q-33 -6 -71 -24l-47 -29l-45 -37q39 -39 75 -92q29 -39 60 -100 q25 -51 37 -102.5t12 -100.5q0 -43 -4 -72.5t-19 -68.5q-23 -72 -65.5 -131.5t-96 -89t-114.5 -29.5q-53 0 -98 23.5t-79 80t-53 123.5q-8 35 -12 68.5t-4 83.5v34q0 51 8 82t16.5 52.5t19.5 42t22.5 39t29 42t27.5 35t35 35.5q-31 35 -66 60.5t-78 44t-82.5 26.5t-54 10 t-47.5 2q-96 0 -188 -29.5t-178 -93t-136 -145.5q-43 -78 -43 -170v-8l6 -66q2 -16 8.5 -35.5t14.5 -39.5l31 -68q14 -23 33 -35l-7 31l-2 21v16v22q0 45 2 64.5t15.5 63.5t48.5 96q35 43 82 67q51 23 112 23q55 0 95 -23q41 -18 73 -63q27 -39 47 -94q16 -53 17 -109 q0 -68 -19.5 -126t-60.5 -99q-37 -43 -94.5 -63.5t-124.5 -20.5q-80 0 -144.5 32.5t-117 101.5t-76.5 144q-23 80 -23 168zM109 -229q0 -63 55 -111q53 -41 170 -72q35 -8 103.5 -17t90.5 -11q47 0 141.5 -5.5t123.5 -5.5h24q49 0 86 4.5t88 16.5q102 18 191 57q51 20 88 41 t82 56q82 59 141 126l-1278 -2l-39 -2l-35 -12q-14 -10 -24 -24zM260 289l6 -60l19 -53q12 -25 25.5 -38t29.5 -13q19 0 35 8q18 10 30.5 28.5t18.5 43.5l8 59l-6 72q-4 33 -14 55q-6 20 -25 33q-12 12 -35 12q-20 0 -34.5 -9t-29 -29.5t-22.5 -51.5zM897 347q0 -19 4 -46 q2 -18 5 -34.5t12.5 -43t25.5 -47.5q16 -12 43 -16q33 0 55.5 16.5t40 52t25.5 78.5l8 96l-6 70l-18 68l-29 63q-12 33 -35 60l-55 -64q-14 -18 -25.5 -38.5t-15.5 -29.5q-18 -33 -27 -71l-8 -70v-44z" />
<glyph unicode="&#xff;" horiz-adv-x="2811" d="M29 449q0 100 42 186t125 167t190.5 126t234.5 45q98 0 178 -27q84 -25 153.5 -79t104.5 -120.5t35 -146.5l-5 -43l-14 -117l-6 -63l-2 -51q0 -57 9 -97.5t28.5 -70t58.5 -49.5q18 -8 40 -12.5t54 -4.5q70 0 132.5 34t117 101.5t83 143t28.5 149.5v21q0 84 -23 141 q-18 59 -61 98q-10 8 -33.5 22.5t-46.5 24.5q-49 23 -117 37q-12 0 -28 8l-27 21l-18 27q-6 12 -7 28v13q0 12 9 26l24 21l15 8l16 6l12 4l17 2q88 0 153.5 -38t112.5 -118q41 -68 61.5 -164t20.5 -200q0 -55 -16.5 -107.5t-24.5 -72t-31 -62.5q-35 -66 -92 -127 q-29 -33 -51.5 -51t-61.5 -41l-20 -18l-15 -17l-10 -18l-8 -17l-6 -34q0 -25 -4 -37l532 -2l127 1044h742l-21 -59h-160l-120 -1041h-244l121 1041h-244l-129 -1041h-617q-41 -80 -102 -143q-57 -68 -137 -119q-94 -61 -217 -96q-63 -16 -121.5 -24.5t-132.5 -8.5 q-102 0 -200.5 19.5t-176.5 52.5q-94 39 -143.5 94t-49.5 123q0 20 2.5 30.5t13.5 35t37.5 46t67.5 38.5q37 8 45 10h31l848 -2v18q0 31 -8 48.5t-29 29.5q-57 10 -101 34.5t-74 67.5t-48 107q-16 70 -17 153v48.5t5 58.5l16 119l2 28q0 55 -20 99q-18 47 -57.5 89t-84.5 62 q-41 23 -84 23q-98 0 -184 -37q-84 -33 -164 -107q-72 -66 -111.5 -142.5t-39.5 -153.5v-33q6 -23 8 -34t8 -34.5t17.5 -54.5t28.5 -58.5t34 -37.5l-6 43l-2 47q0 45 2 64.5t15 63.5t48 95q35 43 82 68q51 23 113 22q55 0 94 -22q41 -18 74 -64q27 -39 47 -94 q16 -53 16 -109q0 -68 -19.5 -126t-60.5 -99q-35 -41 -94 -66q-61 -20 -127 -20q-80 0 -144.5 31.5t-114.5 99.5t-74.5 146.5t-24.5 171.5zM143 -254q0 -47 33 -82q35 -39 102.5 -67.5t153.5 -42.5q45 -8 87 -12.5t102 -4.5q78 0 146.5 21.5t142 66.5t120.5 105 q49 55 70 120l-840 -2q-31 0 -48 -5t-34.5 -18t-25.5 -34zM272 299q0 -41 4 -63l19 -54q10 -25 24 -37q8 -6 33 -10q18 0 33.5 9.5t30.5 29.5l20 43l8 59l-6 72q-4 33 -14 55q-6 20 -25 33q-12 12 -34 13q-19 -1 -37 -13q-12 -8 -26.5 -28.5t-22.5 -51.5z" />
<glyph unicode="&#x152;" d="M29 160l102 788h246l-92 -708q0 -37 20.5 -58.5t59.5 -21.5q22 0 51 20q31 18 63.5 61.5t51 84.5t18.5 77l72 545h243l-116 -893h624l117 893h240l-125 -948h-1112l24 160q-33 -45 -70 -74q-16 -16 -33.5 -27.5t-38 -21.5t-32.5 -14.5t-53 -14.5l-109 -8 q-25 0 -50.5 13.5t-53 44t-35.5 50t-12 52.5zM846 1354q0 37 10 64.5t29.5 54t50.5 39t63 12.5q31 0 61 -13.5t58 -42.5q29 -25 41 -53.5t17 -62.5q-1 -31 -15 -60q-10 -25 -43 -53q-23 -23 -55.5 -37t-63.5 -14q-39 0 -65.5 11t-48 37t-31.5 52z" />
<glyph unicode="&#x153;" horiz-adv-x="1648" d="M-27 -254q0 27 9 53l18 49q10 18 31 35q14 6 45 11l221 -3v-55h-166q-37 0 -59 -20q-20 -27 -21 -70q0 -41 20.5 -74.5t57.5 -60.5t74 -38t82 -11q59 0 101 40t73 122q25 80 92 122q72 39 174 39q-25 18 -37 49t-12 66h244l-2 -12l4 -27l18 -33l18 -24l19 -10l244 -3 l-25 -55h-252q-80 0 -128 -20.5t-73 -67.5l-43 -88l-41 -90q-43 -45 -127 -70q-37 -10 -89 -16t-115 -6q-25 0 -54.5 1t-74.5 15q-57 14 -111.5 50t-84.5 87.5t-30 114.5zM29 0l127 948h243l-114 -893h403l80 650q0 47 25.5 89t70.5 87q39 37 92 59q23 8 50.5 14.5t54.5 6.5 q102 0 187 -46.5t157 -142.5q61 -86 94 -183t33 -198q0 -199 -75 -295t-224 -96h-1204zM717 1354q0 37 10 65.5t29.5 53t51.5 38t64 13.5q20 0 30.5 -2.5t33.5 -12.5q33 -12 57 -41q25 -23 41 -57q10 -25 15 -59q0 -31 -12.5 -55.5t-45.5 -57.5q-23 -23 -55.5 -37t-63.5 -14 q-41 0 -67.5 11t-48 37t-31.5 52zM932 55h311q47 0 84 23.5t66.5 72t44.5 105.5q6 29 10 58.5t4 66.5q0 84 -20 154q-18 76 -59.5 146.5t-95.5 110t-114 39.5q-29 0 -57.5 -12t-46.5 -35l-21 -34l-14 -45z" />
<glyph unicode="&#x178;" horiz-adv-x="2072" d="M37 436q0 121 48 215t144 170q84 66 192.5 100.5t225.5 34.5q59 0 81 -3t63 -13q70 -12 134 -42t119.5 -73t96.5 -100l30 223h834l-25 -59h-243l-117 -889h-240l115 889h-244l-114 -889h-244l80 588q-16 72 -47 119q-27 51 -70 89t-108 60q-25 8 -61 14.5t-71 6.5h-18 q-92 0 -176 -37t-162 -111q-68 -66 -108 -143q-35 -74 -35 -150v-33q6 -23 8 -34t8 -34.5t17.5 -54t29 -58t33.5 -38.5l-6 31l-2 21v16v22q0 45 2 64.5t15.5 63.5t47.5 96q35 43 82 67q51 23 113 23q55 0 94 -23q41 -18 74 -63q27 -39 47 -94q16 -53 16 -109 q0 -70 -19.5 -126t-60.5 -97q-35 -41 -94 -66q-61 -20 -127 -20q-80 0 -144.5 31.5t-115.5 101.5t-74.5 147.5t-23.5 165.5zM281 289q0 -42 4 -62l18 -53q12 -27 25.5 -38t31.5 -11t36 9t30 27.5t18 43.5l9 59l-7 72q-4 33 -14 55q-6 20 -24 33q-12 12 -35 12 q-20 0 -34.5 -9t-29 -29.5t-22.5 -51.5zM969 1354q0 37 10 65.5t29.5 53t51.5 38t64 13.5q39 0 69 -13.5t51.5 -38t32.5 -54t11 -62.5q0 -37 -9 -64.5t-34 -54.5q-18 -25 -50 -37t-71 -12q-40 0 -67 10q-27 12 -48.5 38t-31.5 52z" />
<glyph unicode="&#x2c6;" horiz-adv-x="1099" d="M63 395q0 223 141.5 370.5t315.5 178.5l41 6l41 2q139 0 254 -98q57 -51 87 -131t30 -195v-4v-6q0 -127 -63.5 -217t-170.5 -90h-8l-6 2h-12q-31 0 -54.5 15.5t-35.5 33.5l-17 33l-2 16l-10 -16q-6 -14 -31 -37q-6 -6 -19.5 -15.5t-29.5 -19.5q-33 -18 -70 -18h-12 q-72 0 -104 53q-33 59 -33 129v29q0 20 4 30q12 96 65.5 173t131.5 77q29 0 51 -12l37 -25l18 -26l6 -12l21 63h127l-60 -289l-4 -22l-2 -27q0 -27 9.5 -45t31.5 -25l12 -2h11q61 0 108 74q45 78 45 176v13q0 182 -89 267t-200 85l-38 -2l-37 -6q-133 -27 -248 -150 t-115 -295v-12q0 -170 99 -281q51 -53 111.5 -79.5t137.5 -26.5q121 0 204 42t141.5 92t84.5 91l29 45l62 -22l-29 -52q-29 -47 -91.5 -102t-166.5 -104q-49 -20 -112.5 -35t-133.5 -15l-51 3q-27 0 -53 8q-129 23 -239 118t-110 289zM385 389q0 -55 21.5 -81.5t54.5 -28.5 h12q25 6 51.5 30.5t34.5 63.5l4 20l10 49l11 50l4 24v6v4q0 37 -22.5 63.5t-57.5 28.5l-12 -2l-11 -2l-24 -12l-21 -18l-10 -23l-14 -29l-17 -47l-10 -51l-4 -18v-21v-6z" />
<glyph unicode="&#x2dc;" horiz-adv-x="464" d="M37 1053q0 61 27.5 126.5t84 134t118 110.5t128.5 57l37 -62q-16 -6 -37 -14.5t-41 -20.5q-35 -16 -71 -51l-56 -61q-18 -29 -26 -60q29 0 55.5 -11t54 -37.5t38.5 -52.5t11 -58q0 -35 -12 -63.5t-37 -53.5q-27 -20 -53.5 -30.5t-58.5 -10.5h-23q-27 6 -39 8 q-25 10 -49.5 30.5t-37.5 51.5t-13 68z" />
<glyph unicode="&#x2000;" horiz-adv-x="837" />
<glyph unicode="&#x2001;" horiz-adv-x="1675" />
<glyph unicode="&#x2002;" horiz-adv-x="837" />
<glyph unicode="&#x2003;" horiz-adv-x="1675" />
<glyph unicode="&#x2004;" horiz-adv-x="558" />
<glyph unicode="&#x2005;" horiz-adv-x="418" />
<glyph unicode="&#x2006;" horiz-adv-x="279" />
<glyph unicode="&#x2007;" horiz-adv-x="279" />
<glyph unicode="&#x2008;" horiz-adv-x="209" />
<glyph unicode="&#x2009;" horiz-adv-x="335" />
<glyph unicode="&#x200a;" horiz-adv-x="93" />
<glyph unicode="&#x2010;" horiz-adv-x="1396" d="M51 436v164h1204v-164h-1204z" />
<glyph unicode="&#x2011;" horiz-adv-x="1396" d="M51 436v164h1204v-164h-1204z" />
<glyph unicode="&#x2012;" horiz-adv-x="1396" d="M51 436v164h1204v-164h-1204z" />
<glyph unicode="&#x2013;" horiz-adv-x="1904" d="M70 207v6v4v2v2l112 531h117l-102 -490v-10l-4 -10v-9v-10q0 -25 4 -39l16 -32l20 -23l25 -14l8 -4l10 -2h9l10 -3h33q16 6 22 9q20 8 50 29.5t46.5 47t32.5 68.5l6 33l11 37l8 39l10 41l2 12l4 16l2 13l4 16l21 100l18 95l15 65l4 25h454l-102 -490v-12l-4 -17v-12 l-2 -12q0 -33 7 -51.5t26 -30.5l34 -14l39 -7q31 0 52.5 9.5t43 31t31.5 41.5l21 48l4 12l2 12l104 492h121l-102 -488q-6 -43 -22.5 -81t-41.5 -68l-43 -45l-47 -33l-37 -17l-37 -10q-20 0 -30 -4l-29 -2h-12h-8h-9l-10 2h-14l-19 4l-16 2l-16 4l-21 9l-20 10l-23 14 l-20 19q-16 16 -29 53l-8 86v12v12v13l2 16l82 381h-205l-86 -399l-31 -70q-16 -33 -39 -55l-41 -39l-43 -31l-47 -24l-45 -13q-25 0 -39 -4l-35 -2h-14h-12h-12l-9 -2l-16 2l-10 2l-11 4l-12 6l-16 11l-8 6l-4 6l-5 6l-6 6l-4 4l-6 6l-6 5l-4 6l-4 8l-11 14l-10 17l-6 18 l-8 23q-2 10 -4 12l-4 16v13zM1112 967q0 72 23.5 124t68.5 101q43 41 109 65q37 12 67.5 18.5t75.5 6.5q57 0 93 -4t75 -18q68 -18 109 -66q10 -12 26.5 -36.5t33.5 -60.5t28 -98v-12v-12v-12l2 -13l-2 -41q0 -25 -4 -39l-2 -18l-3 -16q-2 -14 -4 -19l-4 -18l-172 -785h-67 l168 760l4 27l4 28l2 13v16l2 10v13q0 53 -17.5 100t-50 81t-92.5 52q-29 8 -58.5 12t-74.5 4q-55 0 -104.5 -12t-81 -38.5t-49.5 -63.5q-6 -16 -10.5 -39t-6.5 -37v-10v-8q0 -33 4 -50l13 -43l12 -34l14 -27l14 -27l17 -18l4 -4l10 -6l6 -4l-12 -58l-10 8l-21 21l-16 12 l-10 10l-21 21l-24 31l-13 16l-10 21l-12 22l-12 27l-15 57z" />
<glyph unicode="&#x2014;" horiz-adv-x="1822" d="M70 207v6v4v2v2l112 531h117l-102 -490v-10l-4 -10v-9v-10q0 -25 4 -39l16 -32l20 -23l25 -14l8 -4l10 -2h9l10 -3h33q16 6 22 9q20 8 50 29.5t46.5 47t32.5 68.5l6 33l11 37l8 39l10 41l2 12l4 16l2 13l4 16l21 100l18 95l15 65l4 25h454l-102 -490v-12l-4 -17v-12 l-2 -12q0 -33 7 -51.5t26 -30.5l34 -14l39 -7q31 0 52.5 9.5t43 31t31.5 41.5l21 48l4 12l2 12l104 492h121l-102 -488q-6 -43 -22.5 -81t-41.5 -68l-43 -45l-47 -33l-37 -17l-37 -10q-20 0 -30 -4l-29 -2h-12h-8h-9l-10 2h-14l-19 4l-16 2l-16 4l-21 9l-20 10l-23 14 l-20 19q-16 16 -29 53l-8 86v12v12v13l2 16l82 381h-205l-86 -399l-31 -70q-16 -33 -39 -55l-41 -39l-43 -31l-47 -24l-45 -13q-25 0 -39 -4l-35 -2h-14h-12h-12l-9 -2l-16 2l-10 2l-11 4l-12 6l-16 11l-8 6l-4 6l-5 6l-6 6l-4 4l-6 6l-6 5l-4 6l-4 8l-11 14l-10 17l-6 18 l-8 23q-2 10 -4 12l-4 16v13zM1077 1014q0 57 19.5 107t58.5 96.5t96 74.5q53 23 125 33h8l13 2h12h10q45 0 64.5 -2t54.5 -14q53 -12 100 -49q41 -29 63.5 -74t22.5 -101v-8v-6q0 -41 -15 -78t-43 -64.5t-62 -41.5l-66 -21l-14 -2h-13l-34 2q-16 0 -33 9l-29 14l-26 22 l-37 41l-25 41l-8 19l-2 20q-2 14 -4 19l-2 20l2 35l10 35l12 28l15 27l12 21l14 16l8 8l5 6l-11 -2l-32 -6q-20 0 -39 -10q-23 -8 -45 -23q-23 -10 -48 -32l-43 -50q-16 -20 -28 -65l-10 -86v-10v-9l6 -53q6 -29 22 -51l29 -41l33 -35l10 -10l10 -10l8 -8l11 -7l10 -8 l12 -10l10 -12v-4l-10 -39l-12 8l-27 22l-20 15l-13 12l-26 25l-29 34l-22 33l-21 37l-16 41l-13 49l-4 17l-2 16v18zM1393 1098l6 -43l18 -35l27 -19l31 -6l32 6q18 8 31 23q12 10 23 33l8 47v4q0 23 -4 33q0 14 -13 30l-14 21l-18 18l-17 11l-14 6l-10 4l-6 2l-7 -2 l-10 -4l-10 -8l-12 -13l-9 -8l-6 -10l-8 -12l-6 -13l-10 -28z" />
<glyph unicode="&#x2018;" horiz-adv-x="681" d="M184 1065q0 59 20.5 110.5t67.5 104.5q27 29 72 59l98 47v-43l-86 -61q-33 -27 -53 -53l-20 -43l-7 -49l3 -29q4 -14 10 -18l10 -13l16 -4l11 2l16 6l25 6l20 3q20 0 38.5 -7.5t33.5 -21.5q14 -10 22 -35l8 -41q0 -25 -7 -45t-23.5 -35.5t-46.5 -27.5l-54 -9 q-20 0 -30.5 2t-36 13.5t-50 39t-44.5 66.5q-12 35 -13 76z" />
<glyph unicode="&#x2019;" horiz-adv-x="681" d="M193 1270q0 27 7 44t23.5 33.5t39 25.5t61.5 13q35 0 63.5 -13t56.5 -44q25 -23 39 -63q6 -18 10.5 -36t4.5 -40q0 -61 -21.5 -113.5t-68.5 -101.5q-12 -12 -31 -26.5t-43 -33.5q-35 -20 -96 -47v47l86 58q14 12 27.5 25.5t25.5 32t18 38.5l8 51q0 18 -4 29.5t-8 15.5 l-12 13l-12 4l-15 -2l-14 -6l-25 -7l-18 -2l-39 6q-16 6 -33 23l-22 35z" />
<glyph unicode="&#x201a;" horiz-adv-x="1476" />
<glyph unicode="&#x201c;" horiz-adv-x="907" d="M66 1071q0 16 1 37.5t17 62.5t47 84t82 78q43 27 113 53v-40q-29 -14 -42.5 -22.5t-33.5 -25.5l-51 -49q-16 -20 -29 -53l-8 -55l2 -31q0 -12 6 -18l10 -13l13 -2l14 2l20 6l21 7l20 2q20 0 39 -7.5t33 -23.5q14 -10 22 -35l9 -41q0 -25 -11 -45q-6 -20 -26 -37l-41 -26 l-51 -9q-20 0 -30.5 2t-37.5 14.5t-50.5 40t-43.5 66.5q-6 18 -10 37t-4 41zM545 1069q0 37 2 53.5t17.5 54t48 82t78.5 75t112 48.5v-36q-41 -23 -84 -56q-31 -25 -48.5 -48t-25.5 -52l-8 -57l2 -25q4 -12 8 -16l12 -13l13 -2l12 2l21 6l20 7l23 2q23 0 40 -7.5t31 -23.5 q12 -10 23 -33l8 -39q0 -27 -7 -43t-11.5 -22t-20.5 -21l-43 -26l-51 -9q-20 0 -30.5 2t-35 13.5t-49 39t-45.5 66.5q-12 35 -12 78z" />
<glyph unicode="&#x201d;" horiz-adv-x="907" d="M66 1466q0 25 8 43.5t27.5 38t45.5 29.5l52 8q33 0 61 -14q33 -12 57.5 -40t39 -67t14.5 -80q0 -53 -15.5 -99t-52.5 -91q-31 -43 -80 -75t-108 -50v43l84 53q12 10 24.5 22.5t22.5 26.5l24 52l9 57q0 16 -5 25l-6 16l-12 10l-12 4l-15 -2l-16 -6q-16 0 -25 -4l-20 -2 l-39 6q-16 6 -33 23l-22 34zM547 1468q0 25 9 45.5t27.5 38t41.5 25.5l49 8q35 0 64.5 -13t56 -42t41.5 -68q6 -18 10 -36.5t4 -41.5q0 -55 -15.5 -97t-48 -87t-84.5 -78q-6 -4 -36.5 -20.5t-73.5 -32.5v43q47 23 75.5 46.5t49.5 49.5q10 12 14 20.5t14.5 34t10.5 37v17.5 q0 18 -4 29l-7 20l-6 6l-4 4l-12 2l-16 -2l-19 -6q-14 0 -22 -4l-19 -2q-20 0 -37.5 7t-34.5 24l-22 35z" />
<glyph unicode="&#x201e;" horiz-adv-x="2324" d="M25 332v63.5t8 89.5q0 37 5 71t17 83q16 82 40 137t57 101q4 14 10 20l16 10l15 4l14 2q14 0 22 -4l21 -12l14 -18l4 -21l-4 -18q-4 -16 -8 -21q-33 -39 -61 -88l-50 -117q-18 -61 -29.5 -136t-11.5 -146q0 -173 82 -312q80 -133 244 -243q143 -92 316.5 -143.5 t365.5 -51.5q172 0 321.5 62.5t280.5 185.5t198.5 268.5t67.5 317.5q0 98 -13 176t-42 147.5t-71 103.5t-95 34h-16l-33 -3l-33 -6l-35 -12l-32 -14l-49 -29l-45 -37q41 -41 77 -90q29 -39 60 -100q8 -20 16 -44t19.5 -67t11.5 -94q0 -43 -4 -72.5t-19 -68.5 q-23 -72 -65.5 -131.5t-96 -89t-114.5 -29.5q-55 0 -99.5 24.5t-80.5 83.5q-31 55 -50 123q-8 35 -12 69t-4 81v32q0 20 2 43t10.5 53.5t34.5 82.5l45 71l66 78q-29 35 -66 62.5t-77 44t-78.5 23.5t-53 9t-47.5 2q-100 0 -192 -29.5t-178 -93t-133.5 -144.5t-47.5 -169v-8 l6 -66q2 -16 8.5 -35.5t14.5 -39.5l31 -68q14 -23 32 -35l-6 29l-2 20v17v22q0 45 2 64.5t17.5 64.5t48.5 92.5t84 71t112 23.5q53 0 93 -23q41 -18 72.5 -62t49 -96.5t17.5 -107.5q0 -70 -19.5 -126t-60.5 -97q-35 -41 -96 -66q-61 -20 -127 -20q-80 0 -144.5 33.5 t-117.5 103.5q-23 33 -39.5 64.5t-32.5 76.5q-23 80 -23 168q0 102 44.5 190.5t137.5 169.5t212 124q59 20 119.5 30.5t134.5 10.5q29 0 59.5 -2.5t58.5 -8.5q61 -6 113 -26q45 -12 86 -39q33 -16 53 -29q10 -6 37 -25l86 58l74 37q43 16 84 24t59.5 9.5t30.5 1.5 q104 0 186 -37t148 -119q57 -72 87 -171t30 -218v-10q0 -176 -78 -332t-235.5 -297.5t-351.5 -214t-411 -72.5q-104 0 -202.5 14.5t-192.5 44.5q-184 55 -350 172q-178 123 -266 278t-88 333zM600 289l6 -62l19 -53q12 -27 25.5 -38t33.5 -11q18 0 34.5 9t29.5 28l20 43 l8 59l-6 70q-4 33 -13 54.5t-24.5 34.5t-36.5 13q-20 0 -36.5 -10t-30.5 -33l-23 -47zM1239 347q0 -19 3 -41.5t6 -39t12.5 -44t27.5 -46.5q16 -12 43 -16q30 0 53 16q25 18 40.5 53t23.5 78l8 96l-6 72q-4 27 -7 38t-11.5 38t-24.5 53q-12 33 -35 60l-55 -64 q-25 -31 -43.5 -65.5t-26.5 -73.5l-8 -70v-44z" />
<glyph unicode="&#x2022;" horiz-adv-x="1556" d="M70 207v6v4v2v2l112 531h117l-102 -490v-10l-4 -10v-9v-10q0 -25 4 -39l16 -32l20 -23l25 -14l8 -4l10 -2h9l10 -3h33q16 6 22 9q20 8 50 29.5t46.5 47t32.5 68.5l6 33l11 37l8 39l10 41l2 12l4 16l2 13l4 16l21 100l18 95l15 65l4 25h454l-102 -490v-12l-4 -17v-12 l-2 -12q0 -33 7 -51.5t26 -30.5l34 -14l39 -7q31 0 52.5 9.5t43 31t31.5 41.5l21 48l4 12l2 12l104 492h121l-102 -488q-6 -43 -22.5 -81t-41.5 -68l-43 -45l-47 -33l-37 -17l-37 -10q-20 0 -30 -4l-29 -2h-12h-8h-9l-10 2h-14l-19 4l-16 2l-16 4l-21 9l-20 10l-23 14 l-20 19q-16 16 -29 53l-8 86v12v12v13l2 16l82 381h-205l-86 -399l-31 -70q-16 -33 -39 -55l-41 -39l-43 -31l-47 -24l-45 -13q-25 0 -39 -4l-35 -2h-14h-12h-12l-9 -2l-16 2l-10 2l-11 4l-12 6l-16 11l-8 6l-4 6l-5 6l-6 6l-4 4l-6 6l-6 5l-4 6l-4 8l-11 14l-10 17l-6 18 l-8 23q-2 10 -4 12l-4 16v13zM729 1124q0 23 8 43.5t21.5 33.5t38.5 24l49 10q25 0 44 -6t38 -27l22 -33l11 -39v-6v-4l-7 -37l-18 -30l-27 -23l-28 -14l-17 -4h-14q-24 0 -47 8q-20 6 -37.5 22.5t-26.5 34.5z" />
<glyph unicode="&#x2026;" horiz-adv-x="835" d="M131 1264l6 55q6 25 19.5 38t33.5 21l39 8q23 0 41.5 -7t31.5 -21.5t22 -36.5l8 -43l-8 -66l-19 -114l-53 -295h-43l-55 295l-19 102zM498 1239v27l6 53q6 25 19.5 38t33.5 21l41 8q23 0 40 -7t32 -21q14 -10 22 -35l6 -43v-33v-26q-4 -20 -4 -31q0 -16 -4 -41t-10 -53 l-57 -293h-48l-55 291l-20 120z" />
<glyph unicode="&#x202f;" horiz-adv-x="335" />
</font>
</defs>
</svg>
